<svg width="32" height="32" viewBox="0 0 32 32" fill="none" xmlns="http://www.w3.org/2000/svg">
<rect x="1.5" y="1.5" width="29" height="29" stroke="white" stroke-width="3"/>
<path d="M10.7548 20.2C9.52818 20.2 8.48818 19.94 7.63484 19.42C6.78151 18.8867 6.13484 18.14 5.69484 17.18C5.25484 16.22 5.03484 15.1 5.03484 13.82V12.56C5.03484 11.28 5.22818 10.1667 5.61484 9.22C6.01484 8.26 6.60818 7.52 7.39484 7C8.18151 6.46667 9.16818 6.2 10.3548 6.2C11.3682 6.2 12.2148 6.4 12.8948 6.8C13.5748 7.18667 14.0748 7.70667 14.3948 8.36C14.7282 9 14.8682 9.7 14.8148 10.46L12.4748 11.04C12.6082 9.70667 12.4682 8.68667 12.0548 7.98C11.6548 7.26 11.0548 6.9 10.2548 6.9C9.40151 6.9 8.74151 7.26 8.27484 7.98C7.82151 8.7 7.59484 9.89333 7.59484 11.56V14.82C7.59484 16.4733 7.85484 17.6667 8.37484 18.4C8.89484 19.1333 9.68818 19.5 10.7548 19.5C11.1948 19.5 11.6015 19.42 11.9748 19.26C12.3615 19.1 12.6815 18.8267 12.9348 18.44C13.2015 18.04 13.3682 17.48 13.4348 16.76L14.8748 17.14C14.6882 17.8867 14.3882 18.4867 13.9748 18.94C13.5615 19.3933 13.0748 19.72 12.5148 19.92C11.9682 20.1067 11.3815 20.2 10.7548 20.2ZM26.6284 8.08L22.8484 20H21.1284L17.3284 8.08C17.2351 7.77333 17.1618 7.56 17.1084 7.44C17.0551 7.30667 16.9951 7.22 16.9284 7.18C16.8618 7.14 16.7551 7.11333 16.6084 7.1L15.5084 6.96V6.4H21.0684V6.96L19.9684 7.1C19.7551 7.12667 19.6418 7.18667 19.6284 7.28C19.6151 7.36 19.6751 7.62667 19.8084 8.08L22.8484 17.62L25.8484 8.08C25.9951 7.62667 26.0551 7.36 26.0284 7.28C26.0151 7.18667 25.9018 7.12667 25.6884 7.1L24.5884 6.96V6.4H28.4284V6.96L27.3284 7.1C27.1951 7.11333 27.0951 7.14 27.0284 7.18C26.9618 7.22 26.9018 7.30667 26.8484 7.44C26.7951 7.56 26.7218 7.77333 26.6284 8.08Z" fill="white"/>
<rect x="5" y="23" width="23" height="1" fill="white"/>
</svg>
