<svg width="86" height="16" viewBox="0 0 86 16" fill="none" xmlns="http://www.w3.org/2000/svg">
<path d="M9.07643 1.43425L10.7761 1.51932L16.2827 12.1546L14.583 12.0695L12.8832 11.9844L12.0966 10.4651L10.5233 7.42646L8.16336 2.8685L7.37671 1.34918L9.07643 1.43425Z" fill="#414141"/>
<path d="M2.54956 14.7183L3.37721 13.2817L8.15465 4.98911L7.36728 3.41065L6.6212 1.76049L5.79356 3.1971L4.96591 4.63371L3.31061 7.50693L0.974811 11.5613L1.76219 13.1398L2.54956 14.7183Z" fill="#414141"/>
<path d="M3.72648 14.1317L4.56795 12.7103H16.3485L15.507 14.1317L14.6656 15.553H12.9826H9.61675H4.56795H2.88501L3.72648 14.1317Z" fill="#414141"/>
<path d="M23.576 13.13C22.7787 13.13 22.1027 12.961 21.548 12.623C20.9933 12.2763 20.573 11.791 20.287 11.167C20.001 10.543 19.858 9.815 19.858 8.983V8.164C19.858 7.332 19.9837 6.60833 20.235 5.993C20.495 5.369 20.8807 4.888 21.392 4.55C21.9033 4.20333 22.5447 4.03 23.316 4.03C23.9747 4.03 24.525 4.16 24.967 4.42C25.409 4.67133 25.734 5.00933 25.942 5.434C26.1587 5.85 26.2497 6.305 26.215 6.799L24.694 7.176C24.7807 6.30933 24.6897 5.64633 24.421 5.187C24.161 4.719 23.771 4.485 23.251 4.485C22.6963 4.485 22.2673 4.719 21.964 5.187C21.6693 5.655 21.522 6.43067 21.522 7.514V9.633C21.522 10.7077 21.691 11.4833 22.029 11.96C22.367 12.4367 22.8827 12.675 23.576 12.675C23.862 12.675 24.1263 12.623 24.369 12.519C24.6203 12.415 24.8283 12.2373 24.993 11.986C25.1663 11.726 25.2747 11.362 25.318 10.894L26.254 11.141C26.1327 11.6263 25.9377 12.0163 25.669 12.311C25.4003 12.6057 25.084 12.818 24.72 12.948C24.3647 13.0693 23.9833 13.13 23.576 13.13ZM32.9188 11.453C32.7628 12.0597 32.4725 12.493 32.0478 12.753C31.6232 13.0043 31.1292 13.13 30.5658 13.13C29.5258 13.13 28.7458 12.831 28.2258 12.233C27.7058 11.6263 27.4458 10.8247 27.4458 9.828V9.568C27.4458 8.57133 27.6885 7.774 28.1738 7.176C28.6678 6.578 29.3785 6.279 30.3058 6.279C30.8258 6.279 31.2852 6.383 31.6838 6.591C32.0912 6.79033 32.4075 7.08067 32.6328 7.462C32.8668 7.84333 32.9838 8.307 32.9838 8.853C32.9838 8.983 32.9752 9.12167 32.9578 9.269C32.9492 9.41633 32.9275 9.56367 32.8928 9.711H29.0448V10.088C29.0448 11.0067 29.1748 11.6697 29.4348 12.077C29.6948 12.4757 30.1152 12.675 30.6958 12.675C31.0685 12.675 31.3848 12.5667 31.6448 12.35C31.9048 12.1247 32.0522 11.7477 32.0868 11.219L32.9188 11.453ZM30.3058 6.734C29.8812 6.734 29.5648 6.929 29.3568 7.319C29.1488 7.709 29.0448 8.35467 29.0448 9.256H31.3978C31.4325 9.08267 31.4542 8.92233 31.4628 8.775C31.4802 8.619 31.4888 8.476 31.4888 8.346C31.4888 7.79133 31.3805 7.384 31.1638 7.124C30.9472 6.864 30.6612 6.734 30.3058 6.734ZM33.9367 6.773V6.409H36.3547V7.475C36.8834 6.67767 37.5117 6.279 38.2397 6.279C38.5084 6.279 38.7684 6.36567 39.0197 6.539C39.271 6.70367 39.479 7.01567 39.6437 7.475L38.4867 8.099C38.3654 7.74367 38.2224 7.50533 38.0577 7.384C37.9017 7.254 37.7327 7.189 37.5507 7.189C37.36 7.189 37.1737 7.24967 36.9917 7.371C36.8097 7.49233 36.6234 7.71767 36.4327 8.047V11.908C36.4327 12.2027 36.4457 12.3803 36.4717 12.441C36.4977 12.493 36.58 12.5277 36.7187 12.545L37.6937 12.636V13H33.9367V12.636L34.6517 12.545C34.7904 12.5277 34.8727 12.493 34.8987 12.441C34.9247 12.3803 34.9377 12.2027 34.9377 11.908V7.501C34.9377 7.20633 34.9247 7.033 34.8987 6.981C34.8727 6.92033 34.7904 6.88133 34.6517 6.864L33.9367 6.773ZM44.5696 11.648C44.4569 12.1767 44.2402 12.558 43.9196 12.792C43.6076 13.0173 43.2262 13.13 42.7756 13.13C42.3162 13.13 41.9392 13.0303 41.6446 12.831C41.3499 12.623 41.1332 12.35 40.9946 12.012C40.8559 11.674 40.7866 11.3143 40.7866 10.933V7.501C40.7866 7.20633 40.7736 7.033 40.7476 6.981C40.7216 6.92033 40.6392 6.88133 40.5006 6.864L39.7856 6.773V6.409H40.7866V4.901L42.2816 4.602V6.409H44.3616V6.864H42.2816V11.193C42.2816 11.7477 42.3509 12.1333 42.4896 12.35C42.6282 12.558 42.8059 12.662 43.0226 12.662C43.2479 12.662 43.4212 12.5753 43.5426 12.402C43.6726 12.2287 43.7549 11.9123 43.7896 11.453L44.5696 11.648ZM46.8125 5.291C46.5438 5.291 46.3272 5.20867 46.1625 5.044C45.9978 4.87067 45.9155 4.64967 45.9155 4.381C45.9155 4.11233 45.9978 3.89567 46.1625 3.731C46.3272 3.56633 46.5438 3.484 46.8125 3.484C47.0725 3.484 47.2892 3.56633 47.4625 3.731C47.6358 3.89567 47.7225 4.11233 47.7225 4.381C47.7225 4.64967 47.6358 4.87067 47.4625 5.044C47.2892 5.20867 47.0725 5.291 46.8125 5.291ZM45.0705 6.773V6.409H47.5665V11.908C47.5665 12.2027 47.5795 12.3803 47.6055 12.441C47.6315 12.493 47.7138 12.5277 47.8525 12.545L48.5675 12.636V13H45.0705V12.636L45.7855 12.545C45.9242 12.5277 46.0065 12.493 46.0325 12.441C46.0585 12.3803 46.0715 12.2027 46.0715 11.908V7.501C46.0715 7.20633 46.0585 7.033 46.0325 6.981C46.0065 6.92033 45.9242 6.88133 45.7855 6.864L45.0705 6.773ZM56.7655 12.636V13H53.2685V12.636L53.9835 12.545C54.1222 12.5277 54.2045 12.493 54.2305 12.441C54.2565 12.3803 54.2695 12.2027 54.2695 11.908V6.864H51.5655V11.908C51.5655 12.2027 51.5785 12.3803 51.6045 12.441C51.6305 12.493 51.7128 12.5277 51.8515 12.545L52.5665 12.636V13H49.0695V12.636L49.7845 12.545C49.9232 12.5277 50.0055 12.493 50.0315 12.441C50.0575 12.3803 50.0705 12.2027 50.0705 11.908V7.501C50.0705 7.20633 50.0575 7.033 50.0315 6.981C50.0055 6.92033 49.9232 6.88133 49.7845 6.864L49.0695 6.773V6.409H50.0705V5.967C50.0705 5.50767 50.1615 5.07 50.3435 4.654C50.5255 4.238 50.8245 3.9 51.2405 3.64C51.6652 3.38 52.2372 3.25 52.9565 3.25C53.5632 3.25 54.0745 3.34533 54.4905 3.536C54.9065 3.718 55.2142 3.96067 55.4135 4.264C55.6128 4.55867 55.6822 4.88367 55.6215 5.239L54.1915 5.447C54.2868 4.83167 54.2175 4.38967 53.9835 4.121C53.7582 3.84367 53.4158 3.705 52.9565 3.705C52.6792 3.705 52.4322 3.76567 52.2155 3.887C52.0075 3.99967 51.8472 4.20333 51.7345 4.498C51.6218 4.784 51.5655 5.187 51.5655 5.707V6.409H55.7645V11.908C55.7645 12.2027 55.7775 12.3803 55.8035 12.441C55.8295 12.493 55.9118 12.5277 56.0505 12.545L56.7655 12.636ZM60.4947 6.734C60.0787 6.734 59.7667 6.93333 59.5587 7.332C59.3593 7.722 59.2597 8.38067 59.2597 9.308V10.088C59.2597 11.0067 59.3767 11.6697 59.6107 12.077C59.8447 12.4757 60.226 12.675 60.7547 12.675C61.1447 12.675 61.461 12.5667 61.7037 12.35C61.955 12.1247 62.098 11.7477 62.1327 11.219L62.9647 11.453C62.8087 12.0597 62.5227 12.493 62.1067 12.753C61.6993 13.0043 61.2183 13.13 60.6637 13.13C59.667 13.13 58.9173 12.831 58.4147 12.233C57.912 11.6263 57.6607 10.8247 57.6607 9.828V9.568C57.6607 8.57133 57.9033 7.774 58.3887 7.176C58.874 6.578 59.576 6.279 60.4947 6.279C61.1013 6.279 61.5953 6.40033 61.9767 6.643C62.3667 6.877 62.6397 7.189 62.7957 7.579C62.9603 7.96033 63.0037 8.372 62.9257 8.814L61.4957 9.022C61.591 8.294 61.552 7.73067 61.3787 7.332C61.2053 6.93333 60.9107 6.734 60.4947 6.734ZM70.4388 12.675C70.3001 12.805 70.1311 12.9133 69.9318 13C69.7411 13.0867 69.5071 13.13 69.2298 13.13C68.8744 13.13 68.5754 13.052 68.3328 12.896C68.0988 12.74 67.9428 12.519 67.8648 12.233C67.5788 12.545 67.2624 12.7747 66.9158 12.922C66.5778 13.0607 66.2311 13.13 65.8758 13.13C65.2778 13.13 64.8314 12.9653 64.5368 12.636C64.2421 12.298 64.0948 11.8777 64.0948 11.375C64.0948 10.8637 64.2811 10.452 64.6538 10.14C65.0264 9.81933 65.6851 9.659 66.6298 9.659H67.8128V8.606C67.8128 7.88667 67.7174 7.397 67.5268 7.137C67.3448 6.86833 67.0891 6.734 66.7598 6.734C66.5431 6.734 66.3438 6.79033 66.1618 6.903C65.9798 7.007 65.8498 7.20633 65.7718 7.501C65.7024 7.787 65.7154 8.203 65.8108 8.749L64.3808 8.541C64.3114 8.14233 64.3548 7.774 64.5108 7.436C64.6754 7.08933 64.9484 6.812 65.3298 6.604C65.7111 6.38733 66.1964 6.279 66.7858 6.279C67.4531 6.279 67.9688 6.38733 68.3328 6.604C68.6968 6.82067 68.9481 7.10667 69.0868 7.462C69.2341 7.81733 69.3078 8.19867 69.3078 8.606V11.609C69.3078 12.051 69.3468 12.3283 69.4248 12.441C69.5028 12.5537 69.5894 12.61 69.6848 12.61C69.8408 12.61 70.0141 12.519 70.2048 12.337L70.4388 12.675ZM66.4478 12.441C66.6731 12.441 66.8941 12.3847 67.1108 12.272C67.3361 12.1507 67.5701 11.9297 67.8128 11.609V10.114H66.8378C66.4131 10.114 66.1054 10.2137 65.9148 10.413C65.7241 10.6123 65.6288 10.9243 65.6288 11.349C65.6288 11.6957 65.6981 11.9643 65.8368 12.155C65.9754 12.3457 66.1791 12.441 66.4478 12.441ZM77.9019 12.636V13H75.4839V11.921C75.2412 12.3197 74.9682 12.623 74.6649 12.831C74.3702 13.0303 74.0192 13.13 73.6119 13.13C72.8839 13.13 72.3032 12.844 71.8699 12.272C71.4452 11.6913 71.2329 10.881 71.2329 9.841V9.581C71.2329 8.57567 71.4799 7.774 71.9739 7.176C72.4765 6.578 73.1612 6.279 74.0279 6.279C74.5479 6.279 75.0072 6.409 75.4059 6.669V4.472C75.4059 4.17733 75.3929 4.004 75.3669 3.952C75.3409 3.89133 75.2585 3.85233 75.1199 3.835L74.4049 3.744V3.38H76.9009V11.908C76.9009 12.2027 76.9139 12.3803 76.9399 12.441C76.9659 12.493 77.0482 12.5277 77.1869 12.545L77.9019 12.636ZM72.8319 10.231C72.8319 11.037 72.9315 11.6263 73.1309 11.999C73.3302 12.3717 73.6032 12.558 73.9499 12.558C74.1665 12.558 74.3919 12.4713 74.6259 12.298C74.8685 12.116 75.1285 11.752 75.4059 11.206V7.28C75.0765 6.95067 74.6735 6.786 74.1969 6.786C73.7202 6.786 73.3735 7.00267 73.1569 7.436C72.9402 7.86067 72.8319 8.44567 72.8319 9.191V10.231ZM84.7394 9.568V9.828C84.7394 10.8247 84.4794 11.6263 83.9594 12.233C83.448 12.831 82.7157 13.13 81.7624 13.13C80.809 13.13 80.0724 12.831 79.5524 12.233C79.041 11.6263 78.7854 10.8247 78.7854 9.828V9.568C78.7854 8.57133 79.041 7.774 79.5524 7.176C80.0724 6.578 80.809 6.279 81.7624 6.279C82.7157 6.279 83.448 6.578 83.9594 7.176C84.4794 7.774 84.7394 8.57133 84.7394 9.568ZM83.1404 9.308C83.1404 8.38067 83.0234 7.722 82.7894 7.332C82.5554 6.93333 82.213 6.734 81.7624 6.734C81.3204 6.734 80.978 6.93333 80.7354 7.332C80.5014 7.722 80.3844 8.38067 80.3844 9.308V10.088C80.3844 11.0067 80.5014 11.6697 80.7354 12.077C80.978 12.4757 81.3204 12.675 81.7624 12.675C82.213 12.675 82.5554 12.4757 82.7894 12.077C83.0234 11.6697 83.1404 11.0067 83.1404 10.088V9.308Z" fill="#414141"/>
<path d="M19 14.521H85.4154V15.366H19V14.521Z" fill="#414141"/>
</svg>
