<svg width="24" height="24" viewBox="0 0 24 24" fill="none" xmlns="http://www.w3.org/2000/svg">
<g clip-path="url(#clip0_82_646)">
<path d="M2.98765 2.98767C2.31078 2.98763 1.65395 3.21743 1.12473 3.63944C0.595522 4.06145 0.225296 4.65066 0.0746914 5.31057L11.9506 12.5691L23.8265 5.31057C23.6759 4.65066 23.3057 4.06145 22.7765 3.63944C22.2473 3.21743 21.5905 2.98763 20.9136 2.98767H2.98765ZM0 17.6272V7.01802L8.66868 12.3151L0 17.6272ZM10.0998 13.1905L0.285321 19.2047C0.527595 19.7163 0.910221 20.1485 1.38864 20.451C1.86706 20.7536 2.42159 20.914 2.98765 20.9136H12.333C12.0793 20.1938 11.95 19.4361 11.9506 18.6729C11.9496 17.6916 12.1639 16.722 12.5784 15.8325C12.993 14.9431 13.5976 14.1554 14.3497 13.5251L13.8015 13.189L11.9506 14.3198L10.0998 13.1905ZM23.9012 14.4468V7.01652L15.2326 12.3136L15.7375 12.6244C16.6524 12.1807 17.656 11.9503 18.6728 11.9506C20.7851 11.9506 22.6688 12.9246 23.9012 14.4468Z" fill="white"/>
<path d="M23.6532 18.2904C23.6532 20.0352 22.7912 21.3154 21.2824 21.3154C20.5311 21.3154 19.7856 20.9748 19.6094 20.3474H19.5451C19.3689 20.9689 18.734 21.308 18.0289 21.308C16.8786 21.308 16.1482 20.4983 16.1482 19.1658V18.3756C16.1482 17.1148 16.8667 16.2842 18.0304 16.2842C18.9043 16.2842 19.33 16.7817 19.454 17.2253H19.4988V16.3768H20.8507V19.6483C20.8507 20.0546 21.1196 20.2757 21.4647 20.2757C21.9353 20.2757 22.4193 19.6558 22.4193 18.1993V18.023C22.4193 16.1154 21.0001 14.5484 18.7086 14.5484H18.6488C16.2856 14.5484 14.7051 16.1423 14.7051 18.6176V18.8521C14.7051 21.6411 16.553 22.8167 18.5443 22.8167H18.6115C19.3689 22.8167 20.0082 22.7122 20.3742 22.5478V23.6398C20.0471 23.7892 19.4137 23.9012 18.5263 23.9012H18.4606C15.5925 23.9012 13.4443 22.1385 13.4443 18.891V18.5713C13.4443 15.4761 15.5671 13.4445 18.6503 13.4445H18.7026C21.8695 13.4445 23.6532 15.5806 23.6532 17.9767V18.2904ZM17.6181 18.6041V18.9432C17.6181 19.8186 17.9572 20.1383 18.486 20.1383C18.9491 20.1383 19.3285 19.8843 19.3285 19.0284V18.4801C19.3285 17.7093 18.9177 17.4225 18.4741 17.4225C17.9572 17.4225 17.6181 17.7885 17.6181 18.6041Z" fill="white"/>
</g>
<defs>
<clipPath id="clip0_82_646">
<rect width="23.9012" height="23.9012" fill="white"/>
</clipPath>
</defs>
</svg>
