<svg width="75" height="31" viewBox="0 0 75 31" fill="none" xmlns="http://www.w3.org/2000/svg">
<path d="M6.503 30.6143V30.8744H3.95754V30.6143L4.46849 30.5492C4.56758 30.5369 4.62642 30.5121 4.645 30.4749C4.66358 30.4316 4.67287 30.3046 4.67287 30.094V27.8458H2.2296V30.094C2.2296 30.3046 2.23889 30.4316 2.25747 30.4749C2.27605 30.5121 2.33489 30.5369 2.43398 30.5492L2.94493 30.6143V30.8744H0.39947V30.6143L0.91042 30.5492C1.00951 30.5369 1.06835 30.5121 1.08693 30.4749C1.10551 30.4316 1.1148 30.3046 1.1148 30.094V25.3375C1.1148 25.127 1.10551 25.0031 1.08693 24.9659C1.06835 24.9226 1.00951 24.8947 0.91042 24.8823L0.39947 24.8173V24.5572H2.94493V24.8173L2.43398 24.8823C2.33489 24.8947 2.27605 24.9226 2.25747 24.9659C2.23889 25.0031 2.2296 25.127 2.2296 25.3375V27.5207H4.67287V25.3375C4.67287 25.127 4.66358 25.0031 4.645 24.9659C4.62642 24.9226 4.56758 24.8947 4.46849 24.8823L3.95754 24.8173V24.5572H6.503V24.8173L5.99205 24.8823C5.89296 24.8947 5.83412 24.9226 5.81554 24.9659C5.79696 25.0031 5.78767 25.127 5.78767 25.3375V30.094C5.78767 30.3046 5.79696 30.4316 5.81554 30.4749C5.83412 30.5121 5.89296 30.5369 5.99205 30.5492L6.503 30.6143ZM10.4249 29.9082C10.3444 30.286 10.1896 30.5585 9.9604 30.7257C9.73744 30.8868 9.46494 30.9673 9.14288 30.9673C8.81464 30.9673 8.54523 30.8961 8.33465 30.7536C8.12408 30.605 7.96925 30.4099 7.87015 30.1683C7.77106 29.9268 7.72151 29.6698 7.72151 29.3973V26.9447C7.72151 26.7341 7.71222 26.6103 7.69364 26.5731C7.67506 26.5298 7.61623 26.5019 7.51713 26.4895L7.00618 26.4245V26.1644H7.72151V25.0867L8.78986 24.873V26.1644H10.2763V26.4895H8.78986V29.5831C8.78986 29.9795 8.83941 30.2551 8.9385 30.4099C9.0376 30.5585 9.16456 30.6328 9.31939 30.6328C9.48042 30.6328 9.60429 30.5709 9.69099 30.447C9.78389 30.3232 9.84273 30.0971 9.8675 29.7689L10.4249 29.9082ZM16.1618 30.6143V30.8744H13.6628V30.6143L14.1737 30.5492C14.2728 30.5369 14.3316 30.5121 14.3502 30.4749C14.3688 30.4316 14.3781 30.3046 14.3781 30.094V27.7529C14.3781 27.3256 14.3193 27.0159 14.2016 26.8239C14.0839 26.6258 13.9074 26.5267 13.672 26.5267C13.573 26.5267 13.4553 26.5545 13.319 26.6103C13.1828 26.6598 13.0465 26.7527 12.9103 26.889C12.7802 27.0252 12.6656 27.2265 12.5665 27.4928V30.094C12.5665 30.3046 12.5758 30.4316 12.5944 30.4749C12.613 30.5121 12.6718 30.5369 12.7709 30.5492L13.2819 30.6143V30.8744H10.7829V30.6143L11.2938 30.5492C11.3929 30.5369 11.4517 30.5121 11.4703 30.4749C11.4889 30.4316 11.4982 30.3046 11.4982 30.094V26.9447C11.4982 26.7341 11.4889 26.6103 11.4703 26.5731C11.4517 26.5298 11.3929 26.5019 11.2938 26.4895L10.7829 26.4245V26.1644H12.5108V26.9819C12.6842 26.666 12.9072 26.4369 13.1797 26.2944C13.4522 26.1458 13.7278 26.0715 14.0065 26.0715C14.3409 26.0715 14.6227 26.1582 14.8519 26.3316C15.0872 26.4988 15.2544 26.7403 15.3535 27.0562C15.5208 26.7094 15.7468 26.4585 16.0317 26.3037C16.3166 26.1489 16.6015 26.0715 16.8864 26.0715C17.3261 26.0715 17.676 26.217 17.9362 26.5081C18.1963 26.7992 18.3263 27.211 18.3263 27.7437V30.094C18.3263 30.3046 18.3356 30.4316 18.3542 30.4749C18.3728 30.5121 18.4316 30.5369 18.5307 30.5492L19.0417 30.6143V30.8744H16.5427V30.6143L17.0536 30.5492C17.1527 30.5369 17.2115 30.5121 17.2301 30.4749C17.2487 30.4316 17.258 30.3046 17.258 30.094V27.7529C17.258 27.3256 17.1992 27.0159 17.0815 26.8239C16.9638 26.6258 16.7873 26.5267 16.5519 26.5267C16.4529 26.5267 16.3352 26.5545 16.1989 26.6103C16.0627 26.6598 15.9264 26.7558 15.7902 26.8983C15.6539 27.0407 15.5362 27.2482 15.4371 27.5207C15.4433 27.5517 15.4464 27.5888 15.4464 27.6322C15.4464 27.6693 15.4464 27.7065 15.4464 27.7437V30.094C15.4464 30.3046 15.4557 30.4316 15.4743 30.4749C15.4929 30.5121 15.5517 30.5369 15.6508 30.5492L16.1618 30.6143ZM19.2911 24.2599V23.9998H21.0748V30.094C21.0748 30.3046 21.0841 30.4316 21.1027 30.4749C21.1213 30.5121 21.1801 30.5369 21.2792 30.5492L21.7901 30.6143V30.8744H19.2911V30.6143L19.8021 30.5492C19.9012 30.5369 19.96 30.5121 19.9786 30.4749C19.9972 30.4316 20.0065 30.3046 20.0065 30.094V24.7801C20.0065 24.5696 19.9972 24.4457 19.9786 24.4085C19.96 24.3652 19.9012 24.3373 19.8021 24.3249L19.2911 24.2599ZM25.7271 23.749H25.9872V25.5233H23.0237L22.9215 27.3163C23.0887 27.1986 23.2807 27.1088 23.4975 27.0469C23.7204 26.9788 23.9558 26.9447 24.2035 26.9447C24.6246 26.9447 24.9901 27.0252 25.2997 27.1863C25.6156 27.3473 25.8602 27.5733 26.0336 27.8644C26.207 28.1555 26.2937 28.5023 26.2937 28.9049C26.2937 29.2703 26.2225 29.6109 26.0801 29.9268C25.9376 30.2365 25.7054 30.4873 25.3833 30.6793C25.0675 30.8713 24.6494 30.9673 24.1292 30.9673C23.6585 30.9673 23.2621 30.8558 22.9401 30.6328C22.618 30.4037 22.4105 30.0259 22.3176 29.4995L22.9772 29.323C23.0392 29.7937 23.1599 30.1312 23.3395 30.3356C23.5253 30.5399 23.7607 30.6421 24.0456 30.6421C24.4048 30.6421 24.668 30.509 24.8352 30.2427C25.0024 29.9702 25.086 29.5242 25.086 28.9049C25.086 28.5829 25.0551 28.3011 24.9931 28.0595C24.9374 27.8118 24.8321 27.6198 24.6773 27.4835C24.5225 27.3411 24.3057 27.2699 24.027 27.2699C23.8412 27.2699 23.643 27.307 23.4324 27.3813C23.2219 27.4557 23.0082 27.5919 22.7914 27.7901L22.5685 27.6508L22.745 24.5572H25.1139C25.3307 24.5572 25.4607 24.5448 25.5041 24.52C25.5536 24.4953 25.5908 24.4271 25.6156 24.3156L25.7271 23.749Z" fill="white"/>
<path d="M4 1.50204e-05H21.4225L19.8345 17.967L12.6659 20.3263L5.54262 17.967L4 1.50204e-05ZM17.9743 5.80751L18.1558 3.67507H7.22135L7.81117 10.2539H15.3881L15.1159 13.0669L12.6659 13.7475L10.2612 13.0669L10.0797 11.3428H7.90191L8.17414 14.791L12.6659 16.016H12.7112L17.1576 14.791L17.7928 8.07607H9.8075L9.62602 5.80751H17.9743Z" fill="white"/>
<path d="M54.2701 30.9673C53.7003 30.9673 53.2172 30.8465 52.8208 30.605C52.4245 30.3572 52.1241 30.0104 51.9197 29.5645C51.7153 29.1186 51.6131 28.5983 51.6131 28.0038V27.4185C51.6131 26.8239 51.7029 26.3068 51.8826 25.8671C52.0684 25.4212 52.344 25.0774 52.7094 24.8359C53.0748 24.5882 53.5331 24.4643 54.0843 24.4643C54.555 24.4643 54.9483 24.5572 55.2641 24.743C55.58 24.9226 55.8122 25.1641 55.9609 25.4676C56.1157 25.7649 56.1807 26.09 56.156 26.4431L55.069 26.7125C55.131 26.0931 55.0659 25.6193 54.8739 25.2911C54.6881 24.9567 54.4094 24.7894 54.0378 24.7894C53.6415 24.7894 53.3349 24.9567 53.1181 25.2911C52.9075 25.6255 52.8023 26.1798 52.8023 26.954V28.4683C52.8023 29.2363 52.923 29.7906 53.1646 30.1312C53.4061 30.4718 53.7746 30.6421 54.2701 30.6421C54.4745 30.6421 54.6634 30.605 54.8368 30.5307C55.0164 30.4563 55.165 30.3294 55.2827 30.1498C55.4066 29.964 55.484 29.7038 55.5149 29.3694L56.1838 29.5459C56.0971 29.8927 55.9578 30.1714 55.7658 30.382C55.5738 30.5926 55.3477 30.7443 55.0876 30.8372C54.8337 30.9239 54.5612 30.9673 54.2701 30.9673ZM58.8749 29.1186L58.2339 28.9699C57.819 28.8708 57.5093 28.6943 57.3049 28.4404C57.1067 28.1803 57.0077 27.8737 57.0077 27.5207C57.0077 27.2606 57.0634 27.0221 57.1749 26.8054C57.2925 26.5824 57.4753 26.4059 57.723 26.2758C57.9707 26.1396 58.2928 26.0715 58.6891 26.0715C59.1165 26.0715 59.4633 26.1396 59.7296 26.2758C59.9959 26.4121 60.1848 26.5917 60.2963 26.8147C60.4078 27.0376 60.4419 27.2761 60.3985 27.53L59.3766 27.7158C59.4633 27.2946 59.4385 26.9695 59.3023 26.7403C59.1722 26.5112 58.9524 26.3966 58.6427 26.3966C58.4259 26.3966 58.2463 26.4616 58.1039 26.5917C57.9614 26.7156 57.8902 26.8952 57.8902 27.1305C57.8902 27.3473 57.9521 27.5393 58.076 27.7065C58.1999 27.8675 58.3826 27.9759 58.6241 28.0316L59.2651 28.1803C59.7234 28.2856 60.0548 28.4528 60.2592 28.6819C60.4635 28.9049 60.5657 29.1836 60.5657 29.518C60.5657 29.933 60.4109 30.2798 60.1012 30.5585C59.7978 30.831 59.3425 30.9673 58.7356 30.9673C58.525 30.9673 58.2928 30.9363 58.0388 30.8744C57.7911 30.8063 57.562 30.6855 57.3514 30.5121C57.147 30.3387 56.9984 30.0909 56.9055 29.7689L57.5093 29.5273C57.5527 29.9361 57.692 30.2241 57.9274 30.3913C58.1689 30.5585 58.4383 30.6421 58.7356 30.6421C59.0143 30.6421 59.2404 30.5802 59.4138 30.4563C59.5934 30.3263 59.6832 30.1405 59.6832 29.8989C59.6832 29.7317 59.6243 29.58 59.5067 29.4437C59.3952 29.3013 59.1846 29.1929 58.8749 29.1186ZM63.3385 29.1186L62.6975 28.9699C62.2825 28.8708 61.9729 28.6943 61.7685 28.4404C61.5703 28.1803 61.4712 27.8737 61.4712 27.5207C61.4712 27.2606 61.5269 27.0221 61.6384 26.8054C61.7561 26.5824 61.9388 26.4059 62.1865 26.2758C62.4343 26.1396 62.7563 26.0715 63.1527 26.0715C63.58 26.0715 63.9269 26.1396 64.1932 26.2758C64.4595 26.4121 64.6484 26.5917 64.7599 26.8147C64.8713 27.0376 64.9054 27.2761 64.8621 27.53L63.8402 27.7158C63.9269 27.2946 63.9021 26.9695 63.7658 26.7403C63.6358 26.5112 63.4159 26.3966 63.1062 26.3966C62.8895 26.3966 62.7099 26.4616 62.5674 26.5917C62.425 26.7156 62.3538 26.8952 62.3538 27.1305C62.3538 27.3473 62.4157 27.5393 62.5396 27.7065C62.6634 27.8675 62.8461 27.9759 63.0877 28.0316L63.7287 28.1803C64.187 28.2856 64.5183 28.4528 64.7227 28.6819C64.9271 28.9049 65.0293 29.1836 65.0293 29.518C65.0293 29.933 64.8744 30.2798 64.5648 30.5585C64.2613 30.831 63.8061 30.9673 63.1991 30.9673C62.9886 30.9673 62.7563 30.9363 62.5024 30.8744C62.2547 30.8063 62.0255 30.6855 61.8149 30.5121C61.6106 30.3387 61.4619 30.0909 61.369 29.7689L61.9729 29.5273C62.0162 29.9361 62.1556 30.2241 62.3909 30.3913C62.6325 30.5585 62.9019 30.6421 63.1991 30.6421C63.4778 30.6421 63.7039 30.5802 63.8773 30.4563C64.0569 30.3263 64.1467 30.1405 64.1467 29.8989C64.1467 29.7317 64.0879 29.58 63.9702 29.4437C63.8587 29.3013 63.6482 29.1929 63.3385 29.1186ZM67.4119 27.7994H67.161V27.4742H67.4119C67.8516 27.4742 68.1613 27.3442 68.3409 27.0841C68.5267 26.8239 68.6196 26.4895 68.6196 26.0807C68.6196 25.2199 68.3378 24.7894 67.7742 24.7894C67.4274 24.7894 67.1827 24.9412 67.0403 25.2446C66.904 25.5481 66.8669 25.9786 66.9288 26.536L65.814 26.3873C65.7583 26.0529 65.7892 25.7401 65.9069 25.449C66.0308 25.1579 66.2475 24.9226 66.5572 24.743C66.8731 24.5572 67.2818 24.4643 67.7835 24.4643C68.2727 24.4643 68.666 24.5417 68.9633 24.6965C69.2606 24.8452 69.4774 25.0434 69.6136 25.2911C69.7561 25.5326 69.8273 25.7959 69.8273 26.0807C69.8273 26.5143 69.6786 26.8642 69.3814 27.1305C69.0841 27.3906 68.6598 27.5579 68.1086 27.6322C68.6846 27.7065 69.1243 27.8799 69.4278 28.1524C69.7375 28.4249 69.8923 28.8058 69.8923 29.2951C69.8923 29.7844 69.7065 30.1869 69.3349 30.5028C68.9633 30.8125 68.409 30.9673 67.672 30.9673C67.1827 30.9673 66.7647 30.8558 66.4178 30.6328C66.0772 30.4037 65.8604 30.0259 65.7675 29.4995L66.4271 29.323C66.4891 29.7937 66.6191 30.1312 66.8173 30.3356C67.0217 30.5399 67.2787 30.6421 67.5884 30.6421C67.9724 30.6421 68.2511 30.5307 68.4245 30.3077C68.5979 30.0785 68.6846 29.741 68.6846 29.2951C68.6846 28.8554 68.5886 28.4961 68.3966 28.2174C68.2046 27.9387 67.8764 27.7994 67.4119 27.7994Z" fill="white"/>
<path d="M72.7781 1.50204e-05L69.8744 16.6966L59.7112 20.3263L51 16.6966L51.8621 12.4317H55.5825L55.2195 14.2465L60.5279 16.2882L66.6077 14.2465L67.4243 9.84554H52.3158L53.0417 6.12511H68.1956L68.6494 3.72044H53.5408L54.2667 1.50204e-05H72.7781Z" fill="white"/>
</svg>
