<svg width="150" height="41" viewBox="0 0 150 41" fill="none" xmlns="http://www.w3.org/2000/svg">
<path d="M0.399484 32.4911V32.231H3.19587C3.87716 32.231 4.38503 32.3889 4.71948 32.7048C5.06013 33.0144 5.23045 33.4294 5.23045 33.9497V34.1633C5.23045 34.6836 5.06013 35.1017 4.71948 35.4175C4.38503 35.7334 3.87716 35.8913 3.19587 35.8913H2.22968V37.768C2.22968 37.9786 2.23897 38.1055 2.25755 38.1489C2.27613 38.186 2.33497 38.2108 2.43406 38.2232L3.13084 38.2882V38.5484H0.399484V38.2882L0.910452 38.2232C1.00955 38.2108 1.06839 38.186 1.08697 38.1489C1.10555 38.1055 1.11484 37.9786 1.11484 37.768V33.0113C1.11484 32.8008 1.10555 32.6769 1.08697 32.6397C1.06839 32.5964 1.00955 32.5685 0.910452 32.5561L0.399484 32.4911ZM3.19587 32.5561H2.22968V35.5662H3.19587C3.46839 35.5662 3.67587 35.4578 3.81832 35.241C3.96697 35.0242 4.04129 34.727 4.04129 34.3491V33.7639C4.04129 33.386 3.96697 33.0919 3.81832 32.8813C3.67587 32.6645 3.46839 32.5561 3.19587 32.5561ZM8.36739 39.0129C8.22494 39.4031 8.067 39.7159 7.89358 39.9512C7.72635 40.1866 7.51887 40.3569 7.27113 40.4622C7.02339 40.5675 6.71371 40.6201 6.3421 40.6201V39.5982C6.7199 39.5982 7.02339 39.5703 7.25255 39.5146C7.4879 39.465 7.66752 39.3814 7.79139 39.2637C7.92145 39.1522 8.01745 39.0067 8.07939 38.8271L8.17229 38.5484H7.68919L6.36997 34.6186C6.32661 34.4761 6.28945 34.377 6.25848 34.3213C6.23371 34.2593 6.20274 34.2191 6.16558 34.2005C6.13461 34.1819 6.08506 34.1695 6.01694 34.1633L5.50597 34.0983V33.8382H8.01435V34.0983L7.50339 34.1633C7.42906 34.1695 7.38261 34.1943 7.36403 34.2377C7.35164 34.2748 7.37952 34.4018 7.44765 34.6186L8.46029 37.6844L9.5101 34.5814C9.57823 34.3832 9.6061 34.2686 9.59371 34.2377C9.58752 34.2005 9.53797 34.1757 9.44506 34.1633L8.9341 34.0983V33.8382H10.7085V34.0983L10.1976 34.1633C10.1047 34.1757 10.0427 34.2005 10.0118 34.2377C9.98081 34.2748 9.93126 34.3894 9.86313 34.5814L8.36739 39.0129ZM14.1813 37.5822C14.1008 37.96 13.946 38.2325 13.7168 38.3997C13.4938 38.5608 13.2213 38.6413 12.8992 38.6413C12.571 38.6413 12.3016 38.57 12.091 38.4276C11.8804 38.279 11.7256 38.0839 11.6265 37.8423C11.5274 37.6008 11.4778 37.3437 11.4778 37.0712V34.6186C11.4778 34.408 11.4685 34.2841 11.45 34.247C11.4314 34.2036 11.3725 34.1757 11.2734 34.1633L10.7625 34.0983V33.8382H11.4778V32.7605L12.5462 32.5468V33.8382H14.0327V34.1633H12.5462V37.257C12.5462 37.6534 12.5958 37.929 12.6949 38.0839C12.794 38.2325 12.9209 38.3068 13.0758 38.3068C13.2368 38.3068 13.3607 38.2449 13.4474 38.121C13.5403 37.9971 13.5991 37.7711 13.6239 37.4428L14.1813 37.5822ZM19.9462 38.2882V38.5484H17.4472V38.2882L17.9581 38.2232C18.0572 38.2108 18.1161 38.186 18.1346 38.1489C18.1532 38.1055 18.1625 37.9786 18.1625 37.768V35.4268C18.1625 34.9995 18.0975 34.6898 17.9674 34.4978C17.8435 34.2996 17.6577 34.2005 17.41 34.2005C17.3047 34.2005 17.1808 34.2284 17.0384 34.2841C16.9021 34.3337 16.7628 34.4266 16.6203 34.5628C16.4841 34.6991 16.3633 34.9004 16.258 35.1667V37.768C16.258 37.9786 16.2673 38.1055 16.2859 38.1489C16.3044 38.186 16.3633 38.2108 16.4624 38.2232L16.9733 38.2882V38.5484H14.4742V38.2882L14.9852 38.2232C15.0843 38.2108 15.1432 38.186 15.1617 38.1489C15.1803 38.1055 15.1896 37.9786 15.1896 37.768V32.4539C15.1896 32.2433 15.1803 32.1195 15.1617 32.0823C15.1432 32.039 15.0843 32.0111 14.9852 31.9987L14.4742 31.9337V31.6735H16.258V34.5628C16.4376 34.2779 16.6606 34.0704 16.9269 33.9404C17.1994 33.8103 17.4719 33.7453 17.7444 33.7453C18.2028 33.7453 18.5651 33.8908 18.8314 34.1819C19.0977 34.473 19.2309 34.8849 19.2309 35.4175V37.768C19.2309 37.9786 19.2402 38.1055 19.2588 38.1489C19.2773 38.186 19.3362 38.2108 19.4353 38.2232L19.9462 38.2882ZM24.7885 36.0957V36.2815C24.7885 36.9938 24.6027 37.5667 24.231 38.0002C23.8656 38.4276 23.3423 38.6413 22.661 38.6413C21.9797 38.6413 21.4532 38.4276 21.0816 38.0002C20.7162 37.5667 20.5335 36.9938 20.5335 36.2815V36.0957C20.5335 35.3835 20.7162 34.8137 21.0816 34.3863C21.4532 33.959 21.9797 33.7453 22.661 33.7453C23.3423 33.7453 23.8656 33.959 24.231 34.3863C24.6027 34.8137 24.7885 35.3835 24.7885 36.0957ZM23.6458 35.9099C23.6458 35.2472 23.5621 34.7765 23.3949 34.4978C23.2277 34.2129 22.983 34.0704 22.661 34.0704C22.3451 34.0704 22.1005 34.2129 21.927 34.4978C21.7598 34.7765 21.6762 35.2472 21.6762 35.9099V36.4673C21.6762 37.1239 21.7598 37.5977 21.927 37.8888C22.1005 38.1737 22.3451 38.3161 22.661 38.3161C22.983 38.3161 23.2277 38.1737 23.3949 37.8888C23.5621 37.5977 23.6458 37.1239 23.6458 36.4673V35.9099ZM30.9528 38.2882V38.5484H28.4537V38.2882L28.9647 38.2232C29.0638 38.2108 29.1226 38.186 29.1412 38.1489C29.1598 38.1055 29.1691 37.9786 29.1691 37.768V35.4268C29.1691 34.9995 29.104 34.6898 28.974 34.4978C28.8501 34.2996 28.6643 34.2005 28.4166 34.2005C28.3113 34.2005 28.1874 34.2284 28.0449 34.2841C27.9087 34.3337 27.7693 34.4266 27.6269 34.5628C27.4906 34.6991 27.3698 34.9004 27.2646 35.1667V37.768C27.2646 37.9786 27.2738 38.1055 27.2924 38.1489C27.311 38.186 27.3698 38.2108 27.4689 38.2232L27.9799 38.2882V38.5484H25.4808V38.2882L25.9918 38.2232C26.0909 38.2108 26.1497 38.186 26.1683 38.1489C26.1869 38.1055 26.1962 37.9786 26.1962 37.768V34.6186C26.1962 34.408 26.1869 34.2841 26.1683 34.247C26.1497 34.2036 26.0909 34.1757 25.9918 34.1633L25.4808 34.0983V33.8382H27.2088V34.6557C27.3884 34.3399 27.6176 34.1107 27.8963 33.9682C28.1812 33.8196 28.4661 33.7453 28.751 33.7453C29.2093 33.7453 29.5717 33.8908 29.838 34.1819C30.1043 34.473 30.2375 34.8849 30.2375 35.4175V37.768C30.2375 37.9786 30.2468 38.1055 30.2653 38.1489C30.2839 38.186 30.3428 38.2108 30.4418 38.2232L30.9528 38.2882Z" fill="white"/>
<path d="M25.7207 13.1179C26.2197 15.0685 26.2651 16.5202 25.7207 18.0625C25.2671 19.5141 24.7227 20.5121 23.3165 20.5121H16.0584V21.1018H20.8669V22.9617C20.8669 24.3679 19.6874 25.0937 18.4626 25.4113C16.6481 25.9556 15.1512 25.8649 13.6088 25.4113C12.3387 25.0484 11.2046 24.2772 11.2046 22.9617V18.3347C11.2046 17.0191 12.2933 15.8851 13.6088 15.8851H18.4626C20.0957 15.8851 21.502 14.4788 21.502 12.8004V10.6683H23.3165C24.7227 10.6683 25.4032 11.7117 25.7207 13.1179ZM18.7802 22.3266C18.2812 22.3266 17.8729 22.7349 17.8729 23.2792C17.8729 23.7782 18.2812 24.1865 18.7802 24.1865C19.2792 24.1865 19.6874 23.7782 19.6874 23.2792C19.6874 22.7802 19.2792 22.3266 18.7802 22.3266ZM13.382 15.2954C11.7489 15.2954 10.388 16.7016 10.388 18.2893V20.5121H8.70962C7.30337 20.5121 6.48684 19.4687 6.12394 18.0625C5.67031 16.1119 5.67031 14.9778 6.12394 13.1179C6.5322 11.4849 7.757 10.6683 9.16325 10.6683H15.8316V10.0333H10.9778V8.17338C10.9778 6.81249 11.3407 6.04132 13.382 5.67842C14.8336 5.40624 16.6028 5.40624 18.2358 5.67842C19.5514 5.90523 20.6854 6.85785 20.6854 8.17338V12.8004C20.6854 14.1613 19.5967 15.2954 18.2358 15.2954H13.382ZM13.1098 8.80846C13.6088 8.80846 14.0171 8.40019 14.0171 7.9012C14.0171 7.35685 13.6088 6.94858 13.1098 6.94858C12.6108 6.94858 12.2026 7.35685 12.2026 7.9012C12.2026 8.40019 12.6108 8.80846 13.1098 8.80846Z" fill="white"/>
<path d="M61.9851 31.3298V31.0697H64.5307V31.3298L64.0197 31.3948C63.9206 31.4072 63.8618 31.4351 63.8432 31.4784C63.8246 31.5156 63.8153 31.6395 63.8153 31.8501V35.5848C63.8153 35.9378 63.7565 36.2599 63.6388 36.551C63.5211 36.8359 63.3291 37.0619 63.0628 37.2291C62.7965 37.3964 62.4404 37.48 61.9944 37.48C61.7653 37.48 61.5392 37.4428 61.3162 37.3685C61.0995 37.288 60.9106 37.1455 60.7495 36.9411C60.5947 36.7368 60.4925 36.4457 60.4429 36.0679L61.084 35.8821C61.1026 36.2227 61.1521 36.4859 61.2326 36.6717C61.3131 36.8513 61.4153 36.9783 61.5392 37.0526C61.6631 37.1208 61.7962 37.1548 61.9387 37.1548C62.0811 37.1548 62.2081 37.1177 62.3196 37.0433C62.4373 36.969 62.5302 36.8328 62.5983 36.6346C62.6664 36.4364 62.7005 36.1484 62.7005 35.7706V31.8501C62.7005 31.6395 62.6912 31.5156 62.6726 31.4784C62.654 31.4351 62.5952 31.4072 62.4961 31.3948L61.9851 31.3298ZM69.5758 37.1548C69.4767 37.2477 69.356 37.3251 69.2135 37.3871C69.0773 37.449 68.91 37.48 68.7118 37.48C68.4579 37.48 68.2442 37.4242 68.0708 37.3128C67.9036 37.2013 67.7921 37.0433 67.7364 36.839C67.532 37.0619 67.3059 37.2261 67.0582 37.3313C66.8166 37.4304 66.5689 37.48 66.3149 37.48C65.8876 37.48 65.5686 37.3623 65.358 37.127C65.1475 36.8854 65.0422 36.585 65.0422 36.2258C65.0422 35.8604 65.1753 35.5662 65.4417 35.3432C65.708 35.1141 66.1787 34.9995 66.8538 34.9995H67.6992V34.247C67.6992 33.7329 67.6311 33.383 67.4948 33.1971C67.3647 33.0051 67.182 32.9091 66.9467 32.9091C66.7918 32.9091 66.6494 32.9494 66.5193 33.0299C66.3893 33.1042 66.2964 33.2467 66.2406 33.4573C66.1911 33.6617 66.2004 33.959 66.2685 34.3491L65.2466 34.2005C65.197 33.9156 65.228 33.6524 65.3395 33.4108C65.4571 33.1631 65.6522 32.9649 65.9247 32.8162C66.1973 32.6614 66.5441 32.584 66.9653 32.584C67.4422 32.584 67.8107 32.6614 68.0708 32.8162C68.3309 32.9711 68.5106 33.1755 68.6097 33.4294C68.7149 33.6833 68.7676 33.9559 68.7676 34.247V36.393C68.7676 36.7089 68.7955 36.9071 68.8512 36.9876C68.9069 37.0681 68.9689 37.1084 69.037 37.1084C69.1485 37.1084 69.2724 37.0433 69.4086 36.9133L69.5758 37.1548ZM66.7237 36.9876C66.8847 36.9876 67.0427 36.9473 67.1975 36.8668C67.3586 36.7801 67.5258 36.6222 67.6992 36.393V35.3246H67.0024C66.6989 35.3246 66.4791 35.3959 66.3428 35.5383C66.2066 35.6808 66.1384 35.9037 66.1384 36.2072C66.1384 36.455 66.188 36.647 66.2871 36.7832C66.3862 36.9195 66.5317 36.9876 66.7237 36.9876ZM73.5979 33.4573L72.2787 37.3871H71.4333L70.114 33.4573C70.0707 33.3148 70.0335 33.2157 70.0025 33.16C69.9778 33.0981 69.9468 33.0578 69.9096 33.0392C69.8787 33.0206 69.8291 33.0082 69.761 33.0021L69.25 32.937V32.6769H71.7584V32.937L71.2474 33.0021C71.1545 33.0144 71.105 33.0392 71.0988 33.0764C71.0926 33.1135 71.1236 33.2405 71.1917 33.4573L72.2136 36.5417L73.2449 33.4573C73.313 33.2405 73.344 33.1135 73.3378 33.0764C73.3378 33.0392 73.2882 33.0144 73.1891 33.0021L72.6782 32.937V32.6769H74.4526V32.937L73.9416 33.0021C73.8797 33.0082 73.8302 33.0206 73.793 33.0392C73.762 33.0578 73.7342 33.0981 73.7094 33.16C73.6846 33.2157 73.6474 33.3148 73.5979 33.4573ZM79.1746 37.1548C79.0755 37.2477 78.9548 37.3251 78.8123 37.3871C78.6761 37.449 78.5088 37.48 78.3106 37.48C78.0567 37.48 77.843 37.4242 77.6696 37.3128C77.5024 37.2013 77.3909 37.0433 77.3352 36.839C77.1308 37.0619 76.9047 37.2261 76.657 37.3313C76.4154 37.4304 76.1677 37.48 75.9137 37.48C75.4864 37.48 75.1674 37.3623 74.9568 37.127C74.7462 36.8854 74.641 36.585 74.641 36.2258C74.641 35.8604 74.7741 35.5662 75.0404 35.3432C75.3068 35.1141 75.7775 34.9995 76.4526 34.9995H77.298V34.247C77.298 33.7329 77.2299 33.383 77.0936 33.1971C76.9635 33.0051 76.7808 32.9091 76.5455 32.9091C76.3906 32.9091 76.2482 32.9494 76.1181 33.0299C75.9881 33.1042 75.8952 33.2467 75.8394 33.4573C75.7899 33.6617 75.7992 33.959 75.8673 34.3491L74.8453 34.2005C74.7958 33.9156 74.8268 33.6524 74.9382 33.4108C75.0559 33.1631 75.251 32.9649 75.5235 32.8162C75.7961 32.6614 76.1429 32.584 76.5641 32.584C77.041 32.584 77.4095 32.6614 77.6696 32.8162C77.9297 32.9711 78.1093 33.1755 78.2084 33.4294C78.3137 33.6833 78.3664 33.9559 78.3664 34.247V36.393C78.3664 36.7089 78.3942 36.9071 78.45 36.9876C78.5057 37.0681 78.5677 37.1084 78.6358 37.1084C78.7473 37.1084 78.8712 37.0433 79.0074 36.9133L79.1746 37.1548ZM76.3225 36.9876C76.4835 36.9876 76.6415 36.9473 76.7963 36.8668C76.9573 36.7801 77.1246 36.6222 77.298 36.393V35.3246H76.6012C76.2977 35.3246 76.0779 35.3959 75.9416 35.5383C75.8053 35.6808 75.7372 35.9037 75.7372 36.2072C75.7372 36.455 75.7868 36.647 75.8859 36.7832C75.985 36.9195 76.1305 36.9876 76.3225 36.9876Z" fill="white"/>
<path d="M74.1141 14.1986C69.85 15.3327 61.5486 14.8337 63.9528 13.6542C65.9488 12.7016 67.5818 12.7923 67.5818 12.7923C67.5818 12.7923 63.3631 13.7903 66.0849 14.1532C67.2643 14.3347 69.5325 14.2893 71.6645 14.1079C73.4337 13.9718 75.2028 13.6542 75.2028 13.6542C75.2028 13.6542 74.5677 13.9264 74.1141 14.1986ZM70.2583 12.747C68.0355 10.751 66.4478 9.02721 67.5365 7.39414C69.1242 5.03527 73.5244 3.85584 72.5264 -8.82149e-06C72.5264 -8.82149e-06 74.976 2.44959 70.2583 6.12398C66.4931 9.11793 69.3964 10.8417 70.2583 12.747ZM75.4296 4.7631C70.3943 7.71168 71.3016 8.57358 72.5264 10.252C73.8419 12.1119 70.9841 13.5635 70.9841 13.5635C70.9841 13.5635 72.4357 12.4294 71.3016 11.1139C67.4911 6.75906 75.475 4.7631 75.4296 4.7631ZM75.1575 17.0564C79.5123 14.7883 77.5163 12.6109 76.1101 12.8831C75.9286 12.9284 75.7472 12.9738 75.6111 13.0191C75.7018 12.8831 75.8379 12.7923 75.974 12.747C78.7411 11.749 80.9185 15.6048 75.0667 17.1472C75.1121 17.1018 75.1575 17.1018 75.1575 17.0564ZM77.3349 19.8689C79.7391 20.9577 72.0728 23.1351 62.8187 21.6381C59.4165 21.0937 64.4518 19.1431 65.4044 19.7782C65.4044 19.7782 65.0869 19.7782 64.5879 19.8689C64.0889 20.005 62.5466 20.504 63.3631 20.8669C65.6766 21.8649 73.978 21.6381 76.6091 20.8216C77.97 20.4133 77.3349 19.8689 77.3349 19.8689ZM67.1736 17.9637C67.1736 17.9637 66.2663 18.5081 67.8087 18.6895C69.6232 18.871 70.5758 18.871 72.6171 18.4627C73.0254 18.7349 73.4337 18.9163 73.8873 19.0978C69.351 21.0484 63.5899 18.9617 67.1736 17.9637ZM75.3389 22.4093C78.5143 21.7742 78.7865 21.0484 78.7865 21.0484C78.6504 23.0443 72.2089 23.4526 68.0355 23.1804C65.2683 22.999 64.724 22.5454 64.724 22.5454C67.355 22.999 71.7552 23.0443 75.3389 22.4093ZM73.3429 16.0131C73.6151 16.2853 73.9327 16.5121 74.2956 16.6028C68.8066 18.2359 62.6827 16.7389 66.6292 15.4234C66.6292 15.4234 65.6312 16.1945 67.1282 16.3306C69.1242 16.5575 70.6665 16.5575 73.3429 16.0131Z" fill="white"/>
<path d="M106.114 32.4911V32.231H108.66V32.4911L108.149 32.5561C108.05 32.5685 107.991 32.5964 107.972 32.6398C107.954 32.6769 107.944 32.8008 107.944 33.0114V36.7461C107.944 37.0991 107.885 37.4212 107.768 37.7123C107.65 37.9972 107.458 38.2232 107.192 38.3905C106.925 38.5577 106.569 38.6413 106.123 38.6413C105.894 38.6413 105.668 38.6041 105.445 38.5298C105.228 38.4493 105.039 38.3069 104.878 38.1025C104.724 37.8981 104.621 37.607 104.572 37.2292L105.213 37.0434C105.231 37.384 105.281 37.6472 105.362 37.833C105.442 38.0127 105.544 38.1396 105.668 38.2139C105.792 38.2821 105.925 38.3161 106.068 38.3161C106.21 38.3161 106.337 38.279 106.449 38.2047C106.566 38.1303 106.659 37.9941 106.727 37.7959C106.795 37.5977 106.829 37.3097 106.829 36.9319V33.0114C106.829 32.8008 106.82 32.6769 106.802 32.6398C106.783 32.5964 106.724 32.5685 106.625 32.5561L106.114 32.4911ZM113.705 38.3161C113.606 38.409 113.485 38.4865 113.342 38.5484C113.206 38.6103 113.039 38.6413 112.841 38.6413C112.587 38.6413 112.373 38.5856 112.2 38.4741C112.032 38.3626 111.921 38.2047 111.865 38.0003C111.661 38.2232 111.435 38.3874 111.187 38.4927C110.946 38.5918 110.698 38.6413 110.444 38.6413C110.016 38.6413 109.698 38.5236 109.487 38.2883C109.276 38.0467 109.171 37.7463 109.171 37.3871C109.171 37.0217 109.304 36.7275 109.571 36.5045C109.837 36.2754 110.308 36.1608 110.983 36.1608H111.828V35.4083C111.828 34.8942 111.76 34.5443 111.624 34.3585C111.494 34.1665 111.311 34.0705 111.076 34.0705C110.921 34.0705 110.778 34.1107 110.648 34.1912C110.518 34.2656 110.425 34.408 110.37 34.6186C110.32 34.823 110.329 35.1203 110.397 35.5105L109.375 35.3618C109.326 35.0769 109.357 34.8137 109.468 34.5721C109.586 34.3244 109.781 34.1262 110.054 33.9776C110.326 33.8227 110.673 33.7453 111.094 33.7453C111.571 33.7453 111.94 33.8227 112.2 33.9776C112.46 34.1324 112.639 34.3368 112.739 34.5907C112.844 34.8447 112.896 35.1172 112.896 35.4083V37.5543C112.896 37.8702 112.924 38.0684 112.98 38.1489C113.036 38.2294 113.098 38.2697 113.166 38.2697C113.277 38.2697 113.401 38.2047 113.538 38.0746L113.705 38.3161ZM110.853 38.1489C111.014 38.1489 111.172 38.1087 111.326 38.0281C111.487 37.9414 111.655 37.7835 111.828 37.5543V36.4859H111.131C110.828 36.4859 110.608 36.5572 110.472 36.6996C110.335 36.8421 110.267 37.065 110.267 37.3685C110.267 37.6163 110.317 37.8083 110.416 37.9445C110.515 38.0808 110.661 38.1489 110.853 38.1489ZM117.727 34.6186L116.408 38.5484H115.562L114.243 34.6186C114.2 34.4761 114.162 34.377 114.131 34.3213C114.107 34.2594 114.076 34.2191 114.039 34.2005C114.008 34.1819 113.958 34.1696 113.89 34.1634L113.379 34.0983V33.8382H115.887V34.0983L115.376 34.1634C115.283 34.1758 115.234 34.2005 115.228 34.2377C115.222 34.2749 115.252 34.4018 115.321 34.6186L116.343 37.703L117.374 34.6186C117.442 34.4018 117.473 34.2749 117.467 34.2377C117.467 34.2005 117.417 34.1758 117.318 34.1634L116.807 34.0983V33.8382H118.582V34.0983L118.071 34.1634C118.009 34.1696 117.959 34.1819 117.922 34.2005C117.891 34.2191 117.863 34.2594 117.838 34.3213C117.814 34.377 117.776 34.4761 117.727 34.6186ZM123.304 38.3161C123.204 38.409 123.084 38.4865 122.941 38.5484C122.805 38.6103 122.638 38.6413 122.44 38.6413C122.186 38.6413 121.972 38.5856 121.799 38.4741C121.631 38.3626 121.52 38.2047 121.464 38.0003C121.26 38.2232 121.034 38.3874 120.786 38.4927C120.544 38.5918 120.297 38.6413 120.043 38.6413C119.615 38.6413 119.296 38.5236 119.086 38.2883C118.875 38.0467 118.77 37.7463 118.77 37.3871C118.77 37.0217 118.903 36.7275 119.169 36.5045C119.436 36.2754 119.906 36.1608 120.581 36.1608H121.427V35.4083C121.427 34.8942 121.359 34.5443 121.223 34.3585C121.092 34.1665 120.91 34.0705 120.674 34.0705C120.52 34.0705 120.377 34.1107 120.247 34.1912C120.117 34.2656 120.024 34.408 119.968 34.6186C119.919 34.823 119.928 35.1203 119.996 35.5105L118.974 35.3618C118.925 35.0769 118.956 34.8137 119.067 34.5721C119.185 34.3244 119.38 34.1262 119.652 33.9776C119.925 33.8227 120.272 33.7453 120.693 33.7453C121.17 33.7453 121.538 33.8227 121.799 33.9776C122.059 34.1324 122.238 34.3368 122.337 34.5907C122.443 34.8447 122.495 35.1172 122.495 35.4083V37.5543C122.495 37.8702 122.523 38.0684 122.579 38.1489C122.635 38.2294 122.697 38.2697 122.765 38.2697C122.876 38.2697 123 38.2047 123.136 38.0746L123.304 38.3161ZM120.451 38.1489C120.612 38.1489 120.77 38.1087 120.925 38.0281C121.086 37.9414 121.253 37.7835 121.427 37.5543V36.4859H120.73C120.427 36.4859 120.207 36.5572 120.071 36.6996C119.934 36.8421 119.866 37.065 119.866 37.3685C119.866 37.6163 119.916 37.8083 120.015 37.9445C120.114 38.0808 120.259 38.1489 120.451 38.1489ZM125.906 38.3161C126.277 38.3161 126.584 38.2294 126.825 38.056C127.073 37.8764 127.197 37.5977 127.197 37.2199C127.197 36.9412 127.113 36.7089 126.946 36.5231C126.785 36.3373 126.494 36.1825 126.073 36.0586L125.209 35.7985C124.775 35.6684 124.441 35.4454 124.205 35.1296C123.976 34.8075 123.862 34.408 123.862 33.9311C123.862 33.6152 123.933 33.321 124.075 33.0485C124.224 32.776 124.447 32.5561 124.744 32.3889C125.048 32.2217 125.429 32.1381 125.887 32.1381C126.389 32.1381 126.794 32.231 127.104 32.4168C127.414 32.5964 127.631 32.8318 127.754 33.1229C127.878 33.4139 127.909 33.7267 127.847 34.0612L126.779 34.2563C126.878 33.6803 126.835 33.2374 126.649 32.9278C126.469 32.6181 126.175 32.4632 125.766 32.4632C125.45 32.4632 125.196 32.5561 125.004 32.7419C124.819 32.9278 124.726 33.1941 124.726 33.5409C124.726 33.8258 124.806 34.0767 124.967 34.2934C125.135 34.5102 125.407 34.6774 125.785 34.7951L126.649 35.0552C127.12 35.1915 127.473 35.399 127.708 35.6777C127.943 35.9502 128.061 36.3311 128.061 36.8204C128.061 37.1672 127.98 37.48 127.819 37.7587C127.665 38.0312 127.426 38.248 127.104 38.409C126.788 38.5639 126.392 38.6413 125.915 38.6413C125.568 38.6413 125.24 38.5918 124.93 38.4927C124.62 38.3874 124.36 38.217 124.15 37.9817C123.945 37.7463 123.815 37.4274 123.76 37.0248L124.382 36.8018C124.413 37.1982 124.5 37.5079 124.642 37.7309C124.791 37.9476 124.973 38.0994 125.19 38.1861C125.413 38.2728 125.652 38.3161 125.906 38.3161ZM131.085 34.0705C130.788 34.0705 130.565 34.2129 130.416 34.4978C130.274 34.7765 130.203 35.2472 130.203 35.9099V36.4674C130.203 37.1239 130.286 37.5977 130.453 37.8888C130.621 38.1737 130.893 38.3161 131.271 38.3161C131.55 38.3161 131.776 38.2387 131.949 38.0839C132.129 37.9229 132.231 37.6534 132.256 37.2756L132.85 37.4429C132.739 37.8764 132.534 38.1861 132.237 38.3719C131.946 38.5515 131.602 38.6413 131.206 38.6413C130.494 38.6413 129.958 38.4276 129.599 38.0003C129.24 37.5667 129.06 36.9938 129.06 36.2816V36.0958C129.06 35.3835 129.233 34.8137 129.58 34.3863C129.927 33.959 130.429 33.7453 131.085 33.7453C131.519 33.7453 131.872 33.832 132.144 34.0054C132.423 34.1727 132.618 34.3956 132.73 34.6743C132.847 34.9469 132.878 35.241 132.822 35.5569L131.801 35.7056C131.869 35.1853 131.841 34.7827 131.717 34.4978C131.593 34.2129 131.382 34.0705 131.085 34.0705ZM133.454 34.0983V33.8382H135.182V34.6C135.559 34.0302 136.008 33.7453 136.529 33.7453C136.721 33.7453 136.906 33.8072 137.086 33.9311C137.266 34.0488 137.414 34.2718 137.532 34.6L136.705 35.0459C136.618 34.792 136.516 34.6217 136.399 34.535C136.287 34.4421 136.166 34.3956 136.036 34.3956C135.9 34.3956 135.767 34.439 135.637 34.5257C135.507 34.6124 135.374 34.7734 135.237 35.0088V37.768C135.237 37.9786 135.247 38.1056 135.265 38.1489C135.284 38.1861 135.343 38.2109 135.442 38.2232L136.138 38.2883V38.5484H133.454V38.2883L133.965 38.2232C134.064 38.2109 134.122 38.1861 134.141 38.1489C134.16 38.1056 134.169 37.9786 134.169 37.768V34.6186C134.169 34.408 134.16 34.2841 134.141 34.247C134.122 34.2036 134.064 34.1758 133.965 34.1634L133.454 34.0983ZM138.99 33.0392C138.798 33.0392 138.643 32.9804 138.525 32.8627C138.408 32.7389 138.349 32.5809 138.349 32.3889C138.349 32.1969 138.408 32.0421 138.525 31.9244C138.643 31.8067 138.798 31.7479 138.99 31.7479C139.176 31.7479 139.33 31.8067 139.454 31.9244C139.578 32.0421 139.64 32.1969 139.64 32.3889C139.64 32.5809 139.578 32.7389 139.454 32.8627C139.33 32.9804 139.176 33.0392 138.99 33.0392ZM137.745 34.0983V33.8382H139.529V37.768C139.529 37.9786 139.538 38.1056 139.557 38.1489C139.575 38.1861 139.634 38.2109 139.733 38.2232L140.244 38.2883V38.5484H137.745V38.2883L138.256 38.2232C138.355 38.2109 138.414 38.1861 138.432 38.1489C138.451 38.1056 138.46 37.9786 138.46 37.768V34.6186C138.46 34.408 138.451 34.2841 138.432 34.247C138.414 34.2036 138.355 34.1758 138.256 34.1634L137.745 34.0983ZM140.538 34.0983V33.8382H142.266V34.6093C142.445 34.3182 142.64 34.1014 142.851 33.959C143.062 33.8165 143.312 33.7453 143.604 33.7453C144.124 33.7453 144.536 33.9528 144.839 34.3678C145.149 34.7765 145.304 35.3525 145.304 36.0958V36.2816C145.304 37 145.127 37.5729 144.774 38.0003C144.421 38.4276 143.932 38.6413 143.306 38.6413C142.935 38.6413 142.606 38.5484 142.321 38.3626V39.7469C142.321 39.9574 142.331 40.0813 142.349 40.1185C142.368 40.1618 142.427 40.1897 142.526 40.2021L143.223 40.2671V40.5272H140.538V40.2671L141.049 40.2021C141.148 40.1897 141.207 40.1618 141.225 40.1185C141.244 40.0813 141.253 39.9574 141.253 39.7469V34.6186C141.253 34.408 141.244 34.2841 141.225 34.247C141.207 34.2036 141.148 34.1758 141.049 34.1634L140.538 34.0983ZM143.362 34.1541C143.207 34.1541 143.043 34.2191 142.87 34.3492C142.702 34.473 142.52 34.7301 142.321 35.1203V37.9259C142.557 38.1613 142.845 38.279 143.185 38.279C143.532 38.279 143.78 38.1272 143.929 37.8238C144.084 37.5141 144.161 37.0929 144.161 36.5603V35.817C144.161 35.241 144.09 34.8199 143.947 34.5536C143.805 34.2872 143.61 34.1541 143.362 34.1541ZM149.345 37.5822C149.264 37.96 149.109 38.2325 148.88 38.3998C148.657 38.5608 148.385 38.6413 148.063 38.6413C147.734 38.6413 147.465 38.5701 147.254 38.4276C147.044 38.279 146.889 38.0839 146.79 37.8423C146.691 37.6008 146.641 37.3438 146.641 37.0712V34.6186C146.641 34.408 146.632 34.2841 146.613 34.247C146.595 34.2036 146.536 34.1758 146.437 34.1634L145.926 34.0983V33.8382H146.641V32.7605L147.71 32.5469V33.8382H149.196V34.1634H147.71V37.257C147.71 37.6534 147.759 37.929 147.858 38.0839C147.957 38.2325 148.084 38.3069 148.239 38.3069C148.4 38.3069 148.524 38.2449 148.611 38.121C148.704 37.9972 148.762 37.7711 148.787 37.4429L149.345 37.5822Z" fill="white"/>
<path d="M117.29 4.93549H137.613V25.2581H117.29V4.93549ZM128.313 20.8125V14.2802H126.408V20.7671C126.408 21.7198 126 21.9919 125.41 21.9919C124.73 21.9919 124.458 21.5383 124.185 20.994L122.598 21.9466C123.051 22.8992 123.959 23.6704 125.456 23.6704C127.179 23.6704 128.313 22.7631 128.313 20.8125ZM132.85 23.6704C134.664 23.6704 136.025 22.7631 136.025 21.0393C136.025 19.4516 135.118 18.7258 133.485 18.0454L132.986 17.8186C132.169 17.4557 131.806 17.2288 131.806 16.6391C131.806 16.1855 132.169 15.8226 132.714 15.8226C133.303 15.8226 133.621 16.0948 133.984 16.6391L135.435 15.6865C134.846 14.5978 133.938 14.1895 132.759 14.1895C131.035 14.1895 129.947 15.2782 129.947 16.6845C129.947 18.2722 130.854 18.998 132.215 19.5877L132.714 19.7692C133.576 20.1774 134.12 20.4042 134.12 21.0393C134.12 21.5837 133.576 21.9919 132.804 21.9919C131.852 21.9919 131.353 21.4929 130.945 20.8579L129.357 21.7198C129.947 22.8538 131.081 23.6704 132.85 23.6704Z" fill="white"/>
</svg>
