<svg width="36" height="34" viewBox="0 0 36 34" fill="none" xmlns="http://www.w3.org/2000/svg">
<path d="M0.39947 25.2256V24.9655H3.20505C3.85535 24.9655 4.35701 25.1111 4.71003 25.4021C5.06305 25.6932 5.23956 26.0834 5.23956 26.5727V26.7864C5.23956 27.158 5.13737 27.4738 4.93299 27.7339C4.72861 27.9941 4.43443 28.1799 4.05044 28.2913L5.21169 30.5024C5.28601 30.6386 5.34175 30.7377 5.37891 30.7996C5.41607 30.8616 5.45013 30.9018 5.4811 30.9204C5.51826 30.9328 5.56781 30.9452 5.62974 30.9576L6.04779 31.0226V31.2827H4.31056L2.90777 28.4028H2.2296V30.5024C2.2296 30.7129 2.23889 30.8399 2.25747 30.8832C2.27605 30.9204 2.33489 30.9452 2.43398 30.9576L2.94493 31.0226V31.2827H0.39947V31.0226L0.91042 30.9576C1.00951 30.9452 1.06835 30.9204 1.08693 30.8832C1.10551 30.8399 1.1148 30.7129 1.1148 30.5024V25.7459C1.1148 25.5353 1.10551 25.4114 1.08693 25.3743C1.06835 25.3309 1.00951 25.3031 0.91042 25.2907L0.39947 25.2256ZM3.20505 25.2907H2.2296V28.0777H3.20505C3.47756 28.0777 3.68503 27.9941 3.82748 27.8268C3.97612 27.6534 4.05044 27.3376 4.05044 26.8793V26.4798C4.05044 26.0215 3.97612 25.7087 3.82748 25.5415C3.68503 25.3743 3.47756 25.2907 3.20505 25.2907ZM10.4547 30.1772C10.3432 30.6107 10.1357 30.9204 9.83223 31.1062C9.52876 31.2858 9.17574 31.3756 8.77317 31.3756C8.02997 31.3756 7.47257 31.1619 7.10097 30.7346C6.72937 30.3011 6.54357 29.7282 6.54357 29.016V28.8302C6.54357 28.1179 6.71698 27.5481 7.06381 27.1208C7.41683 26.6935 7.92468 26.4798 8.58737 26.4798C8.95897 26.4798 9.28722 26.5541 9.57211 26.7027C9.8632 26.8452 10.0893 27.0527 10.2503 27.3252C10.4175 27.5977 10.5011 27.929 10.5011 28.3192C10.5011 28.4121 10.4949 28.5112 10.4825 28.6165C10.4763 28.7218 10.4609 28.8271 10.4361 28.9323H7.68624V29.2018C7.68624 29.8582 7.77914 30.332 7.96494 30.6231C8.15074 30.908 8.45112 31.0505 8.86607 31.0505C9.13238 31.0505 9.35844 30.973 9.54424 30.8182C9.73004 30.6572 9.83533 30.3878 9.8601 30.01L10.4547 30.1772ZM8.58737 26.8049C8.2839 26.8049 8.05784 26.9443 7.9092 27.223C7.76056 27.5017 7.68624 27.9631 7.68624 28.6072H9.36773C9.3925 28.4833 9.40799 28.3688 9.41418 28.2635C9.42657 28.152 9.43276 28.0498 9.43276 27.9569C9.43276 27.5605 9.35534 27.2694 9.20051 27.0836C9.04568 26.8978 8.8413 26.8049 8.58737 26.8049ZM15.9199 31.0505C15.8208 31.1434 15.7001 31.2208 15.5576 31.2827C15.4214 31.3446 15.2542 31.3756 15.056 31.3756C14.802 31.3756 14.5884 31.3199 14.415 31.2084C14.2477 31.0969 14.1363 30.939 14.0805 30.7346C13.8761 30.9576 13.6501 31.1217 13.4023 31.227C13.1608 31.3261 12.9131 31.3756 12.6591 31.3756C12.2318 31.3756 11.9129 31.2579 11.7023 31.0226C11.4917 30.7811 11.3864 30.4807 11.3864 30.1215C11.3864 29.7561 11.5196 29.4619 11.7859 29.2389C12.0522 29.0098 12.5229 28.8952 13.198 28.8952H14.0434V28.1427C14.0434 27.6286 13.9752 27.2787 13.839 27.0929C13.7089 26.9009 13.5262 26.8049 13.2909 26.8049C13.136 26.8049 12.9936 26.8452 12.8635 26.9257C12.7335 27 12.6406 27.1425 12.5848 27.353C12.5353 27.5574 12.5446 27.8547 12.6127 28.2449L11.5908 28.0962C11.5413 27.8114 11.5722 27.5481 11.6837 27.3066C11.8014 27.0589 11.9965 26.8607 12.269 26.712C12.5415 26.5572 12.8883 26.4798 13.3094 26.4798C13.7863 26.4798 14.1548 26.5572 14.415 26.712C14.6751 26.8669 14.8547 27.0712 14.9538 27.3252C15.0591 27.5791 15.1117 27.8516 15.1117 28.1427V30.2887C15.1117 30.6045 15.1396 30.8027 15.1953 30.8832C15.2511 30.9638 15.313 31.004 15.3811 31.004C15.4926 31.004 15.6165 30.939 15.7527 30.8089L15.9199 31.0505ZM13.0679 30.8832C13.2289 30.8832 13.3869 30.843 13.5417 30.7625C13.7027 30.6758 13.8699 30.5178 14.0434 30.2887V29.2203H13.3466C13.0431 29.2203 12.8233 29.2916 12.687 29.434C12.5508 29.5765 12.4826 29.7994 12.4826 30.1029C12.4826 30.3506 12.5322 30.5426 12.6313 30.6789C12.7304 30.8151 12.8759 30.8832 13.0679 30.8832ZM18.4848 26.8049C18.1875 26.8049 17.9645 26.9474 17.8159 27.2323C17.6735 27.511 17.6022 27.9817 17.6022 28.6444V29.2018C17.6022 29.8582 17.6858 30.332 17.8531 30.6231C18.0203 30.908 18.2928 31.0505 18.6706 31.0505C18.9493 31.0505 19.1753 30.973 19.3487 30.8182C19.5284 30.6572 19.6305 30.3878 19.6553 30.01L20.2499 30.1772C20.1384 30.6107 19.934 30.9204 19.6367 31.1062C19.3457 31.2858 19.0019 31.3756 18.6055 31.3756C17.8933 31.3756 17.3576 31.1619 16.9984 30.7346C16.6392 30.3011 16.4596 29.7282 16.4596 29.016V28.8302C16.4596 28.1179 16.633 27.5481 16.9798 27.1208C17.3266 26.6935 17.8283 26.4798 18.4848 26.4798C18.9183 26.4798 19.2713 26.5665 19.5438 26.7399C19.8225 26.9071 20.0176 27.1301 20.1291 27.4088C20.2468 27.6813 20.2777 27.9755 20.222 28.2913L19.2001 28.44C19.2682 27.9197 19.2404 27.5172 19.1165 27.2323C18.9926 26.9474 18.7821 26.8049 18.4848 26.8049ZM24.1603 30.3166C24.0798 30.6943 23.925 30.9669 23.6958 31.1341C23.4729 31.2951 23.2003 31.3756 22.8783 31.3756C22.55 31.3756 22.2806 31.3044 22.0701 31.1619C21.8595 31.0133 21.7047 30.8182 21.6056 30.5767C21.5065 30.3351 21.4569 30.0781 21.4569 29.8056V27.353C21.4569 27.1425 21.4476 27.0186 21.4291 26.9814C21.4105 26.9381 21.3516 26.9102 21.2525 26.8978L20.7416 26.8328V26.5727H21.4569V25.495L22.5253 25.2814V26.5727H24.0117V26.8978H22.5253V29.9914C22.5253 30.3878 22.5748 30.6634 22.6739 30.8182C22.773 30.9669 22.9 31.0412 23.0548 31.0412C23.2158 31.0412 23.3397 30.9792 23.4264 30.8554C23.5193 30.7315 23.5781 30.5055 23.6029 30.1772L24.1603 30.3166ZM25.4844 31.3756C25.2924 31.3756 25.1345 31.3168 25.0106 31.1991C24.893 31.0752 24.8341 30.9142 24.8341 30.716C24.8341 30.5178 24.893 30.3599 25.0106 30.2422C25.1345 30.1246 25.2924 30.0657 25.4844 30.0657C25.6764 30.0657 25.8344 30.1246 25.9582 30.2422C26.0821 30.3599 26.144 30.5178 26.144 30.716C26.144 30.9142 26.0821 31.0752 25.9582 31.1991C25.8344 31.3168 25.6764 31.3756 25.4844 31.3756ZM28.066 25.7737C27.874 25.7737 27.7191 25.7149 27.6015 25.5972C27.4838 25.4734 27.425 25.3154 27.425 25.1234C27.425 24.9315 27.4838 24.7766 27.6015 24.6589C27.7191 24.5413 27.874 24.4824 28.066 24.4824C28.2518 24.4824 28.4066 24.5413 28.5305 24.6589C28.6543 24.7766 28.7163 24.9315 28.7163 25.1234C28.7163 25.3154 28.6543 25.4734 28.5305 25.5972C28.4066 25.7149 28.2518 25.7737 28.066 25.7737ZM26.8211 26.8328V26.5727H28.6048V31.5986C28.6048 31.9082 28.5521 32.1962 28.4469 32.4625C28.3416 32.7289 28.1712 32.9425 27.9359 33.1036C27.7006 33.2708 27.3878 33.3544 26.9976 33.3544C26.657 33.3544 26.3659 33.2677 26.1244 33.0943C25.8828 32.9209 25.7342 32.6267 25.6784 32.2117L26.2544 32.0352C26.2854 32.4316 26.3597 32.6948 26.4774 32.8249C26.595 32.9611 26.7313 33.0292 26.8861 33.0292C27.0905 33.0292 27.2484 32.9394 27.3599 32.7598C27.4776 32.5802 27.5364 32.2551 27.5364 31.7844V27.353C27.5364 27.1425 27.5271 27.0186 27.5086 26.9814C27.49 26.9381 27.4311 26.9102 27.3321 26.8978L26.8211 26.8328ZM31.7259 29.5269L31.0849 29.3783C30.67 29.2792 30.3603 29.1027 30.1559 28.8487C29.9577 28.5886 29.8586 28.282 29.8586 27.929C29.8586 27.6689 29.9144 27.4305 30.0259 27.2137C30.1435 26.9907 30.3262 26.8142 30.574 26.6842C30.8217 26.5479 31.1438 26.4798 31.5401 26.4798C31.9675 26.4798 32.3143 26.5479 32.5806 26.6842C32.8469 26.8204 33.0358 27 33.1473 27.223C33.2588 27.4459 33.2928 27.6844 33.2495 27.9383L32.2276 28.1241C32.3143 27.703 32.2895 27.3778 32.1533 27.1487C32.0232 26.9195 31.8033 26.8049 31.4937 26.8049C31.2769 26.8049 31.0973 26.87 30.9549 27C30.8124 27.1239 30.7412 27.3035 30.7412 27.5388C30.7412 27.7556 30.8031 27.9476 30.927 28.1148C31.0509 28.2759 31.2336 28.3842 31.4751 28.44L32.1161 28.5886C32.5744 28.6939 32.9058 28.8611 33.1101 29.0903C33.3145 29.3132 33.4167 29.5919 33.4167 29.9264C33.4167 30.3413 33.2619 30.6882 32.9522 30.9669C32.6487 31.2394 32.1935 31.3756 31.5866 31.3756C31.376 31.3756 31.1438 31.3446 30.8898 31.2827C30.6421 31.2146 30.4129 31.0938 30.2024 30.9204C29.998 30.747 29.8494 30.4993 29.7565 30.1772L30.3603 29.9357C30.4037 30.3444 30.543 30.6324 30.7784 30.7996C31.0199 30.9669 31.2893 31.0505 31.5866 31.0505C31.8653 31.0505 32.0913 30.9885 32.2648 30.8647C32.4444 30.7346 32.5342 30.5488 32.5342 30.3073C32.5342 30.14 32.4753 29.9883 32.3577 29.8521C32.2462 29.7096 32.0356 29.6012 31.7259 29.5269Z" fill="white"/>
<path d="M24.9651 7.03252C27.4152 7.8492 29.23 9.21033 29.23 10.5715C29.23 12.0233 27.3244 13.4298 24.6929 14.2919C24.5568 14.3373 24.4207 14.3826 24.2846 14.428C24.3299 14.6095 24.3753 14.8363 24.4207 15.0178C24.9197 17.6494 24.5114 19.7818 23.2864 20.5077C22.1067 21.1883 20.2012 20.5077 18.2502 18.829C18.0233 18.6475 17.8419 18.466 17.615 18.2846C17.4789 18.4207 17.2974 18.5568 17.1613 18.6929C15.165 20.4624 13.0779 21.1883 11.8529 20.4624C10.6732 19.7818 10.3103 17.7855 10.764 15.2901C10.8547 15.0178 10.9001 14.7456 10.9454 14.4734C10.764 14.428 10.5371 14.3373 10.3556 14.2919C7.81484 13.4298 6 11.978 6 10.5715C6 9.21033 7.7241 7.89457 10.1288 7.03252C10.401 6.94178 10.6732 6.85104 10.9908 6.76029C10.9001 6.53344 10.8547 6.26121 10.8093 6.03436C10.3103 3.4482 10.6732 1.4065 11.8529 0.725938C13.0779 3.7998e-07 15.165 0.771309 17.252 2.58615C17.3428 2.72227 17.4789 2.81301 17.615 2.94912C17.7965 2.76764 17.978 2.58615 18.1595 2.45004C20.1558 0.725938 22.1067 3.7998e-07 23.2864 0.680567C24.5114 1.4065 24.8744 3.58432 24.3299 6.26121C24.2846 6.4427 24.2392 6.62418 24.2392 6.80566C24.466 6.85104 24.6929 6.94178 24.9651 7.03252ZM18.7946 3.17598C18.6132 3.31209 18.4771 3.49357 18.2956 3.62969C18.9761 4.401 19.6113 5.21768 20.2012 6.07973C21.2447 6.17047 22.2429 6.30658 23.2864 6.53344C23.3318 6.39732 23.3318 6.26121 23.3771 6.07973C23.8762 3.7658 23.5586 1.95096 22.7873 1.54262C22.0614 1.13428 20.5187 1.67873 18.7946 3.17598ZM13.577 12.9308C13.3501 12.5224 13.1233 12.1595 12.8964 11.7511C12.6242 12.4317 12.3973 13.1122 12.1705 13.7474C12.851 13.9289 13.577 14.0197 14.3029 14.1104C14.0307 13.7021 13.8038 13.3391 13.577 12.9308ZM12.1705 7.48623C12.3973 8.12143 12.6242 8.75662 12.8964 9.43719C13.1233 9.02885 13.3501 8.66588 13.577 8.25754C13.8038 7.89457 14.0307 7.48623 14.2575 7.12326C13.5316 7.214 12.851 7.30475 12.1705 7.48623ZM13.4409 10.6168C13.7585 11.2067 14.0761 11.8419 14.3937 12.4317C14.7566 13.0215 15.1196 13.6113 15.5279 14.2012C16.2085 14.2465 16.8891 14.2919 17.615 14.2919C18.2956 14.2919 19.0215 14.2465 19.7021 14.2012C20.065 13.6113 20.428 13.0215 20.791 12.4317C21.1539 11.8419 21.4715 11.2067 21.7438 10.5715C21.4715 9.93627 21.1086 9.34645 20.791 8.75662C20.428 8.1668 20.065 7.57697 19.6567 6.98715C19.0215 6.94178 18.2956 6.89641 17.615 6.89641C16.8891 6.89641 16.2085 6.94178 15.5279 6.98715C15.1196 7.57697 14.7566 8.1668 14.3937 8.75662C14.0761 9.34645 13.7131 9.98164 13.4409 10.6168ZM21.6077 12.9308C21.3808 13.2937 21.1539 13.7021 20.9271 14.065C21.653 14.0197 22.3336 13.8836 23.0595 13.7021C22.8327 13.0215 22.5604 12.3863 22.2882 11.7057C22.0614 12.1141 21.8799 12.5224 21.6077 12.9308ZM22.2882 9.43719C22.5604 8.80199 22.7873 8.1668 23.0142 7.48623C22.379 7.35012 21.653 7.214 20.9271 7.12326C21.1539 7.48623 21.3808 7.89457 21.6077 8.25754C21.8345 8.66588 22.0614 9.02885 22.2882 9.43719ZM17.615 4.35563C17.1613 4.85471 16.7076 5.39916 16.2539 5.98898C17.1613 5.94361 18.0687 5.94361 18.9308 5.98898C18.5224 5.39916 18.0687 4.85471 17.615 4.35563ZM12.352 1.54262C11.626 1.99633 11.3538 3.62969 11.7621 5.8075C11.8075 6.07973 11.8529 6.30658 11.9436 6.53344C12.9418 6.30658 13.9399 6.17047 14.9835 6.07973C15.5733 5.21768 16.2085 4.401 16.9344 3.62969C16.7983 3.53895 16.7076 3.4482 16.5715 3.31209C14.802 1.76947 13.1233 1.13428 12.352 1.54262ZM11.2177 13.5206C11.5353 12.5224 11.8982 11.5243 12.352 10.6168C11.9436 9.66404 11.5353 8.71125 11.263 7.71309C10.9908 7.80383 10.7186 7.8492 10.4464 7.93994C8.40467 8.66588 6.95279 9.75479 6.95279 10.5715C7.04354 11.1159 7.36113 11.615 7.81484 11.9326C8.58615 12.5678 9.72043 13.0215 10.6732 13.3391C10.8547 13.4298 11.0362 13.4752 11.2177 13.5206ZM16.5261 17.967C16.6622 17.8308 16.7983 17.6947 16.9344 17.5586C16.2539 16.7873 15.5733 15.9706 14.9835 15.1539C13.9399 15.0632 12.9418 14.9271 11.8982 14.7002C11.8529 14.9271 11.8075 15.1993 11.7621 15.4715C11.3538 17.604 11.626 19.192 12.352 19.6457C12.8964 19.8272 13.4409 19.8272 13.9399 19.5549C14.8927 19.192 15.7548 18.6475 16.5261 17.967ZM17.615 16.878C18.1141 16.3336 18.5678 15.7891 18.9761 15.1993C18.5224 15.2447 18.0687 15.2447 17.615 15.2447C17.1613 15.2447 16.7076 15.2447 16.2539 15.1993C16.7076 15.8345 17.1613 16.379 17.615 16.878ZM23.5586 18.2392C23.6947 17.241 23.6494 16.1975 23.4679 15.1993C23.4225 15.0178 23.3771 14.8363 23.3318 14.6549C22.2882 14.8817 21.2901 15.0632 20.2465 15.1539C19.6567 16.016 19.0215 16.7873 18.2956 17.5586C18.5224 17.7401 18.7039 17.9216 18.8854 18.1031C20.5641 19.5096 22.1067 20.054 22.8327 19.6457C23.241 19.2827 23.5132 18.7836 23.5586 18.2392ZM24.3753 13.3391C26.6438 12.6132 28.2318 11.4335 28.2318 10.5715C28.2318 9.75479 26.7346 8.66588 24.6475 7.93994C24.4207 7.8492 24.1938 7.80383 23.967 7.71309C23.6494 8.71125 23.2864 9.66404 22.8327 10.5715C23.2864 11.5243 23.6947 12.4771 24.0123 13.4752C24.1484 13.4298 24.2392 13.3845 24.3753 13.3391ZM17.615 12.6585C16.4354 12.6585 15.5279 11.7511 15.5279 10.5715C15.5279 9.43719 16.4354 8.52977 17.615 8.52977C18.7493 8.52977 19.6567 9.43719 19.6567 10.5715C19.6567 11.7511 18.7493 12.6585 17.615 12.6585Z" fill="white"/>
</svg>
