<svg width="220" height="35" viewBox="0 0 220 35" fill="none" xmlns="http://www.w3.org/2000/svg">
<path d="M102.893 28.0342H103.153V30.3474H102.893L102.688 29.5949C102.67 29.5206 102.648 29.4679 102.623 29.437C102.605 29.3998 102.564 29.3781 102.502 29.372C102.44 29.3596 102.335 29.3534 102.186 29.3534H101.23V31.5458C101.23 31.7564 101.239 31.8833 101.257 31.9267C101.276 31.9639 101.335 31.9886 101.434 32.001L102.131 32.0661V32.3262H99.3995V32.0661L99.9104 32.001C100.01 31.9886 100.068 31.9639 100.087 31.9267C100.106 31.8833 100.115 31.7564 100.115 31.5458V26.7893C100.115 26.5788 100.106 26.4549 100.087 26.4177C100.068 26.3744 100.01 26.3465 99.9104 26.3341L99.3995 26.2691V26.009H103.803V27.6069H103.543L103.246 26.5757C103.227 26.5013 103.205 26.4487 103.181 26.4177C103.162 26.3806 103.122 26.3589 103.06 26.3527C102.998 26.3403 102.893 26.3341 102.744 26.3341H101.23V29.0282H102.186C102.335 29.0282 102.44 29.0251 102.502 29.0189C102.564 29.0065 102.605 28.9849 102.623 28.9539C102.648 28.9167 102.67 28.861 102.688 28.7867L102.893 28.0342ZM105.603 26.8172C105.411 26.8172 105.256 26.7584 105.138 26.6407C105.02 26.5168 104.961 26.3589 104.961 26.1669C104.961 25.9749 105.02 25.8201 105.138 25.7024C105.256 25.5847 105.411 25.5259 105.603 25.5259C105.788 25.5259 105.943 25.5847 106.067 25.7024C106.191 25.8201 106.253 25.9749 106.253 26.1669C106.253 26.3589 106.191 26.5168 106.067 26.6407C105.943 26.7584 105.788 26.8172 105.603 26.8172ZM104.358 27.8763V27.6161H106.141V31.5458C106.141 31.7564 106.151 31.8833 106.169 31.9267C106.188 31.9639 106.247 31.9886 106.346 32.001L106.857 32.0661V32.3262H104.358V32.0661L104.869 32.001C104.968 31.9886 105.027 31.9639 105.045 31.9267C105.064 31.8833 105.073 31.7564 105.073 31.5458V28.3965C105.073 28.1859 105.064 28.0621 105.045 28.0249C105.027 27.9815 104.968 27.9537 104.869 27.9413L104.358 27.8763ZM111.749 32.8093C111.749 33.3171 111.557 33.7073 111.173 33.9798C110.795 34.2585 110.275 34.3978 109.612 34.3978C108.881 34.3978 108.336 34.2771 107.977 34.0355C107.618 33.8002 107.423 33.506 107.392 33.153L108.386 32.9951C108.361 33.3233 108.439 33.5834 108.618 33.7754C108.804 33.9736 109.135 34.0727 109.612 34.0727C110.058 34.0727 110.417 33.9891 110.69 33.8219C110.969 33.6546 111.108 33.4131 111.108 33.0972C111.108 32.8743 111.024 32.704 110.857 32.5863C110.696 32.4748 110.427 32.4191 110.049 32.4191H108.99C108.662 32.4191 108.401 32.3726 108.209 32.2797C108.024 32.1868 107.894 32.0722 107.819 31.936C107.745 31.7935 107.708 31.648 107.708 31.4994C107.708 31.3198 107.757 31.1432 107.856 30.9698C107.956 30.7902 108.126 30.6137 108.367 30.4403C108.101 30.3226 107.884 30.1492 107.717 29.9201C107.55 29.6909 107.466 29.406 107.466 29.0654C107.466 28.7186 107.547 28.4337 107.708 28.2107C107.869 27.9815 108.086 27.8112 108.358 27.6998C108.631 27.5821 108.934 27.5232 109.268 27.5232H109.426C109.786 27.5232 110.095 27.5821 110.355 27.6998L111.693 27.0402L111.805 27.9506H110.746C110.894 28.0806 111.009 28.2386 111.089 28.4244C111.176 28.604 111.219 28.8176 111.219 29.0654C111.219 29.3998 111.139 29.6816 110.978 29.9108C110.817 30.1399 110.6 30.3133 110.328 30.431C110.061 30.5487 109.761 30.6075 109.426 30.6075H109.268C109.083 30.6075 108.9 30.5889 108.72 30.5518C108.566 30.6571 108.457 30.7593 108.395 30.8584C108.339 30.9513 108.312 31.0411 108.312 31.1278C108.312 31.2269 108.355 31.3012 108.442 31.3507C108.535 31.4003 108.683 31.425 108.888 31.425H110.095C110.628 31.425 111.037 31.5458 111.322 31.7874C111.606 32.0227 111.749 32.3633 111.749 32.8093ZM109.426 30.2824C109.625 30.2824 109.795 30.1957 109.937 30.0223C110.08 29.8488 110.151 29.5299 110.151 29.0654C110.151 28.6009 110.08 28.2819 109.937 28.1085C109.795 27.9351 109.625 27.8484 109.426 27.8484H109.268C109.07 27.8484 108.897 27.9351 108.748 28.1085C108.606 28.2819 108.535 28.6009 108.535 29.0654C108.535 29.5299 108.606 29.8488 108.748 30.0223C108.897 30.1957 109.07 30.2824 109.268 30.2824H109.426ZM117.539 32.0661V32.3262H115.04V32.0661L115.551 32.001C115.65 31.9886 115.709 31.9639 115.727 31.9267C115.746 31.8833 115.755 31.7564 115.755 31.5458V29.2047C115.755 28.7774 115.696 28.4677 115.579 28.2757C115.461 28.0775 115.284 27.9785 115.049 27.9785C114.95 27.9785 114.832 28.0063 114.696 28.0621C114.56 28.1116 114.423 28.2045 114.287 28.3408C114.157 28.477 114.043 28.6783 113.943 28.9446V31.5458C113.943 31.7564 113.953 31.8833 113.971 31.9267C113.99 31.9639 114.049 31.9886 114.148 32.001L114.659 32.0661V32.3262H112.16V32.0661L112.671 32.001C112.77 31.9886 112.829 31.9639 112.847 31.9267C112.866 31.8833 112.875 31.7564 112.875 31.5458V28.3965C112.875 28.1859 112.866 28.0621 112.847 28.0249C112.829 27.9815 112.77 27.9537 112.671 27.9413L112.16 27.8763V27.6161H113.888V28.4337C114.061 28.1178 114.284 27.8886 114.557 27.7462C114.829 27.5976 115.105 27.5232 115.383 27.5232C115.718 27.5232 116 27.6099 116.229 27.7834C116.464 27.9506 116.631 28.1921 116.73 28.508C116.898 28.1612 117.124 27.9103 117.409 27.7555C117.694 27.6007 117.978 27.5232 118.263 27.5232C118.703 27.5232 119.053 27.6688 119.313 27.9599C119.573 28.251 119.703 28.6628 119.703 29.1954V31.5458C119.703 31.7564 119.713 31.8833 119.731 31.9267C119.75 31.9639 119.809 31.9886 119.908 32.001L120.419 32.0661V32.3262H117.92V32.0661L118.431 32.001C118.53 31.9886 118.588 31.9639 118.607 31.9267C118.626 31.8833 118.635 31.7564 118.635 31.5458V29.2047C118.635 28.7774 118.576 28.4677 118.458 28.2757C118.341 28.0775 118.164 27.9785 117.929 27.9785C117.83 27.9785 117.712 28.0063 117.576 28.0621C117.44 28.1116 117.303 28.2076 117.167 28.3501C117.031 28.4925 116.913 28.7 116.814 28.9725C116.82 29.0034 116.823 29.0406 116.823 29.084C116.823 29.1211 116.823 29.1583 116.823 29.1954V31.5458C116.823 31.7564 116.833 31.8833 116.851 31.9267C116.87 31.9639 116.929 31.9886 117.028 32.001L117.539 32.0661ZM125.471 32.0939C125.372 32.1868 125.251 32.2642 125.109 32.3262C124.972 32.3881 124.805 32.4191 124.607 32.4191C124.353 32.4191 124.139 32.3633 123.966 32.2519C123.799 32.1404 123.687 31.9824 123.632 31.7781C123.427 32.001 123.201 32.1651 122.953 32.2704C122.712 32.3695 122.464 32.4191 122.21 32.4191C121.783 32.4191 121.464 32.3014 121.253 32.0661C121.043 31.8245 120.937 31.5241 120.937 31.1649C120.937 30.7995 121.071 30.5053 121.337 30.2824C121.603 30.0532 122.074 29.9386 122.749 29.9386H123.594V29.1862C123.594 28.6721 123.526 28.3222 123.39 28.1364C123.26 27.9444 123.077 27.8484 122.842 27.8484C122.687 27.8484 122.545 27.8886 122.415 27.9692C122.285 28.0435 122.192 28.1859 122.136 28.3965C122.086 28.6009 122.096 28.8982 122.164 29.2883L121.142 29.1397C121.092 28.8548 121.123 28.5916 121.235 28.3501C121.352 28.1023 121.548 27.9041 121.82 27.7555C122.093 27.6007 122.439 27.5232 122.86 27.5232C123.337 27.5232 123.706 27.6007 123.966 27.7555C124.226 27.9103 124.406 28.1147 124.505 28.3686C124.61 28.6226 124.663 28.8951 124.663 29.1862V31.3321C124.663 31.648 124.691 31.8462 124.746 31.9267C124.802 32.0072 124.864 32.0475 124.932 32.0475C125.044 32.0475 125.168 31.9824 125.304 31.8524L125.471 32.0939ZM122.619 31.9267C122.78 31.9267 122.938 31.8864 123.093 31.8059C123.254 31.7192 123.421 31.5613 123.594 31.3321V30.2638H122.898C122.594 30.2638 122.374 30.335 122.238 30.4775C122.102 30.6199 122.034 30.8429 122.034 31.1463C122.034 31.3941 122.083 31.5861 122.182 31.7223C122.281 31.8586 122.427 31.9267 122.619 31.9267Z" fill="black"/>
<path d="M104.635 4.35555C104.635 1.95088 106.541 -7.77245e-05 108.945 -7.77245e-05H116.432C118.836 -7.77245e-05 120.742 1.95088 120.742 4.35555C120.742 5.89816 119.971 7.21393 118.791 7.98523C119.971 8.80191 120.742 10.1177 120.742 11.6603C120.742 14.0196 118.836 15.9705 116.432 15.9705H116.341C115.207 15.9705 114.163 15.5622 113.392 14.8363V18.8743C113.392 21.279 111.395 23.2299 108.991 23.2299C106.586 23.2299 104.635 21.3243 104.635 18.9197C104.635 17.3771 105.407 16.0613 106.586 15.29C105.407 14.4733 104.635 13.1575 104.635 11.6603C104.635 10.1177 105.407 8.80191 106.586 7.98523C105.407 7.21393 104.635 5.89816 104.635 4.35555ZM111.985 8.71117H108.945C107.357 8.71117 106.042 10.0269 106.042 11.6603C106.042 13.2483 107.312 14.564 108.945 14.564H111.985V8.71117ZM113.392 11.6603C113.392 13.2483 114.708 14.564 116.341 14.564H116.432C118.02 14.564 119.335 13.2483 119.335 11.6603C119.335 10.0269 118.02 8.71117 116.432 8.71117H116.341C114.708 8.71117 113.392 10.0269 113.392 11.6603ZM108.945 15.9705C107.312 16.0159 106.042 17.2863 106.042 18.9197C106.042 20.5077 107.357 21.8234 108.991 21.8234C110.624 21.8234 111.985 20.5077 111.985 18.8743V15.9705H108.945ZM108.945 1.4518C107.357 1.4518 106.042 2.76756 106.042 4.35555C106.042 5.98891 107.357 7.30467 108.945 7.30467H111.985V1.4518H108.945ZM113.392 7.30467H116.432C118.02 7.30467 119.335 5.98891 119.335 4.35555C119.335 2.76756 118.02 1.4518 116.432 1.4518H113.392V7.30467Z" fill="black"/>
<path d="M194.111 26.009H199.221V27.6069H198.961L198.664 26.5757C198.645 26.4951 198.623 26.4394 198.599 26.4084C198.58 26.3713 198.54 26.3496 198.478 26.3434C198.416 26.3372 198.311 26.3341 198.162 26.3341H197.224V31.5458C197.224 31.7564 197.233 31.8833 197.252 31.9267C197.27 31.9639 197.329 31.9886 197.428 32.001L197.939 32.0661V32.3262H195.394V32.0661L195.904 32.001C196.004 31.9886 196.062 31.9639 196.081 31.9267C196.1 31.8833 196.109 31.7564 196.109 31.5458V26.3341H195.171C195.028 26.3341 194.923 26.3372 194.855 26.3434C194.793 26.3496 194.752 26.3713 194.734 26.4084C194.715 26.4394 194.694 26.4951 194.669 26.5757L194.372 27.6069H194.111V26.009ZM199.548 27.8763V27.6161H201.276V28.3779C201.654 27.8081 202.103 27.5232 202.623 27.5232C202.815 27.5232 203.001 27.5852 203.181 27.709C203.36 27.8267 203.509 28.0497 203.626 28.3779L202.8 28.8238C202.713 28.5699 202.611 28.3996 202.493 28.3129C202.382 28.22 202.261 28.1735 202.131 28.1735C201.995 28.1735 201.861 28.2169 201.731 28.3036C201.601 28.3903 201.468 28.5513 201.332 28.7867V31.5458C201.332 31.7564 201.341 31.8833 201.36 31.9267C201.378 31.9639 201.437 31.9886 201.536 32.001L202.233 32.0661V32.3262H199.548V32.0661L200.059 32.001C200.158 31.9886 200.217 31.9639 200.236 31.9267C200.254 31.8833 200.263 31.7564 200.263 31.5458V28.3965C200.263 28.1859 200.254 28.0621 200.236 28.0249C200.217 27.9815 200.158 27.9537 200.059 27.9413L199.548 27.8763ZM207.893 31.2207C207.782 31.6542 207.574 31.9639 207.271 32.1497C206.967 32.3293 206.614 32.4191 206.212 32.4191C205.468 32.4191 204.911 32.2054 204.539 31.7781C204.168 31.3445 203.982 30.7716 203.982 30.0594V29.8736C203.982 29.1614 204.155 28.5916 204.502 28.1643C204.855 27.7369 205.363 27.5232 206.026 27.5232C206.397 27.5232 206.726 27.5976 207.01 27.7462C207.302 27.8886 207.528 28.0961 207.689 28.3686C207.856 28.6411 207.939 28.9725 207.939 29.3627C207.939 29.4556 207.933 29.5547 207.921 29.6599C207.915 29.7652 207.899 29.8705 207.874 29.9758H205.125V30.2452C205.125 30.9017 205.218 31.3755 205.403 31.6666C205.589 31.9515 205.89 32.0939 206.304 32.0939C206.571 32.0939 206.797 32.0165 206.983 31.8617C207.168 31.7006 207.274 31.4312 207.298 31.0534L207.893 31.2207ZM206.026 27.8484C205.722 27.8484 205.496 27.9877 205.348 28.2664C205.199 28.5451 205.125 29.0065 205.125 29.6507H206.806C206.831 29.5268 206.846 29.4122 206.853 29.3069C206.865 29.1954 206.871 29.0933 206.871 29.0004C206.871 28.604 206.794 28.3129 206.639 28.1271C206.484 27.9413 206.28 27.8484 206.026 27.8484ZM208.555 25.7117V25.4516H210.339V31.5458C210.339 31.7564 210.348 31.8833 210.367 31.9267C210.386 31.9639 210.444 31.9886 210.543 32.001L211.054 32.0661V32.3262H208.555V32.0661L209.066 32.001C209.165 31.9886 209.224 31.9639 209.243 31.9267C209.261 31.8833 209.271 31.7564 209.271 31.5458V26.2319C209.271 26.0214 209.261 25.8975 209.243 25.8603C209.224 25.817 209.165 25.7891 209.066 25.7767L208.555 25.7117ZM211.35 25.7117V25.4516H213.133V31.5458C213.133 31.7564 213.143 31.8833 213.161 31.9267C213.18 31.9639 213.239 31.9886 213.338 32.001L213.849 32.0661V32.3262H211.35V32.0661L211.861 32.001C211.96 31.9886 212.019 31.9639 212.037 31.9267C212.056 31.8833 212.065 31.7564 212.065 31.5458V26.2319C212.065 26.0214 212.056 25.8975 212.037 25.8603C212.019 25.817 211.96 25.7891 211.861 25.7767L211.35 25.7117ZM218.733 29.8736V30.0594C218.733 30.7716 218.547 31.3445 218.176 31.7781C217.81 32.2054 217.287 32.4191 216.606 32.4191C215.924 32.4191 215.398 32.2054 215.026 31.7781C214.661 31.3445 214.478 30.7716 214.478 30.0594V29.8736C214.478 29.1614 214.661 28.5916 215.026 28.1643C215.398 27.7369 215.924 27.5232 216.606 27.5232C217.287 27.5232 217.81 27.7369 218.176 28.1643C218.547 28.5916 218.733 29.1614 218.733 29.8736ZM217.591 29.6878C217.591 29.0251 217.507 28.5544 217.34 28.2757C217.172 27.9908 216.928 27.8484 216.606 27.8484C216.29 27.8484 216.045 27.9908 215.872 28.2757C215.705 28.5544 215.621 29.0251 215.621 29.6878V30.2452C215.621 30.9017 215.705 31.3755 215.872 31.6666C216.045 31.9515 216.29 32.0939 216.606 32.0939C216.928 32.0939 217.172 31.9515 217.34 31.6666C217.507 31.3755 217.591 30.9017 217.591 30.2452V29.6878Z" fill="black"/>
<path d="M213.312 3.07617C214.523 3.11523 215.5 4.0918 215.461 5.26367V18.3887C215.461 19.5996 214.523 20.5762 213.312 20.5762H200.188C198.977 20.5762 198 19.5996 198 18.3887C198 5.10742 197.961 5.26367 198 5.26367C198 4.0918 198.977 3.07617 200.188 3.07617H213.312ZM205.695 16.3574V6.43555C205.695 5.84961 205.227 5.38086 204.641 5.38086H201.398C200.812 5.38086 200.344 5.84961 200.344 6.43555V16.3574C200.344 16.9434 200.812 17.373 201.398 17.373H204.641C205.188 17.373 205.656 16.9043 205.695 16.3574ZM213.234 11.9824V6.43555C213.234 5.84961 212.766 5.38086 212.18 5.38086H209.016C208.43 5.38086 207.961 5.84961 207.961 6.43555V11.9824C207.961 12.5684 208.43 13.0371 209.016 13.0371H212.18C212.766 13.0371 213.234 12.5684 213.234 11.9824Z" fill="black"/>
<path d="M50.3537 29.725V29.4649H52.9921V29.725L52.4811 29.79C52.382 29.8024 52.3232 29.8303 52.3046 29.8736C52.286 29.9108 52.2767 30.0346 52.2767 30.2452V32.3262H52.0259C51.8587 32.1528 51.6729 32.0072 51.4685 31.8895C51.3013 32.0382 51.1031 32.1651 50.8739 32.2704C50.6448 32.3695 50.3661 32.4191 50.0378 32.4191C49.53 32.4191 49.0933 32.2921 48.7279 32.0382C48.3687 31.7781 48.0931 31.4219 47.9011 30.9698C47.7091 30.5115 47.6131 29.9913 47.6131 29.4091V28.8238C47.6131 28.2602 47.7091 27.7617 47.9011 27.3282C48.0931 26.8884 48.3749 26.5447 48.7465 26.297C49.1181 26.043 49.5733 25.9161 50.1122 25.9161C50.62 25.9161 51.0381 26.009 51.3663 26.1948C51.7007 26.3744 51.9454 26.6159 52.1002 26.9194C52.255 27.2167 52.3139 27.5418 52.2767 27.8948L51.1898 28.1643C51.2579 27.5449 51.1898 27.0711 50.9854 26.7429C50.781 26.4084 50.4776 26.2412 50.075 26.2412C49.2265 26.2412 48.8023 26.9937 48.8023 28.4987V29.8272C48.8023 31.3383 49.2513 32.0939 50.1493 32.0939C50.3475 32.0939 50.5457 32.0537 50.7439 31.9732C50.9483 31.8926 51.1186 31.775 51.2548 31.6201V30.2452C51.2548 30.0346 51.2455 29.9077 51.227 29.8643C51.2084 29.821 51.1495 29.7962 51.0504 29.79L50.3537 29.725ZM54.6186 26.8172C54.4266 26.8172 54.2718 26.7584 54.1541 26.6407C54.0364 26.5168 53.9776 26.3589 53.9776 26.1669C53.9776 25.9749 54.0364 25.8201 54.1541 25.7024C54.2718 25.5847 54.4266 25.5259 54.6186 25.5259C54.8044 25.5259 54.9592 25.5847 55.0831 25.7024C55.207 25.8201 55.2689 25.9749 55.2689 26.1669C55.2689 26.3589 55.207 26.5168 55.0831 26.6407C54.9592 26.7584 54.8044 26.8172 54.6186 26.8172ZM53.3737 27.8763V27.6161H55.1574V31.5458C55.1574 31.7564 55.1667 31.8833 55.1853 31.9267C55.2039 31.9639 55.2627 31.9886 55.3618 32.001L55.8727 32.0661V32.3262H53.3737V32.0661L53.8847 32.001C53.9838 31.9886 54.0426 31.9639 54.0612 31.9267C54.0798 31.8833 54.0891 31.7564 54.0891 31.5458V28.3965C54.0891 28.1859 54.0798 28.0621 54.0612 28.0249C54.0426 27.9815 53.9838 27.9537 53.8847 27.9413L53.3737 27.8763ZM59.5387 31.36C59.4582 31.7378 59.3034 32.0103 59.0742 32.1775C58.8513 32.3386 58.5788 32.4191 58.2567 32.4191C57.9285 32.4191 57.6591 32.3478 57.4485 32.2054C57.2379 32.0568 57.0831 31.8617 56.984 31.6201C56.8849 31.3786 56.8354 31.1216 56.8354 30.8491V28.3965C56.8354 28.1859 56.8261 28.0621 56.8075 28.0249C56.7889 27.9815 56.7301 27.9537 56.631 27.9413L56.12 27.8763V27.6161H56.8354V26.5385L57.9037 26.3248V27.6161H59.3901V27.9413H57.9037V31.0349C57.9037 31.4312 57.9532 31.7068 58.0523 31.8617C58.1514 32.0103 58.2784 32.0846 58.4332 32.0846C58.5943 32.0846 58.7181 32.0227 58.8048 31.8988C58.8977 31.775 58.9566 31.5489 58.9813 31.2207L59.5387 31.36ZM66.186 32.0661V32.3262H63.6406V32.0661L64.1515 32.001C64.2506 31.9886 64.3094 31.9639 64.328 31.9267C64.3466 31.8833 64.3559 31.7564 64.3559 31.5458V29.2976H61.9126V31.5458C61.9126 31.7564 61.9219 31.8833 61.9405 31.9267C61.9591 31.9639 62.0179 31.9886 62.117 32.001L62.628 32.0661V32.3262H60.0825V32.0661L60.5934 32.001C60.6925 31.9886 60.7514 31.9639 60.77 31.9267C60.7885 31.8833 60.7978 31.7564 60.7978 31.5458V26.7893C60.7978 26.5788 60.7885 26.4549 60.77 26.4177C60.7514 26.3744 60.6925 26.3465 60.5934 26.3341L60.0825 26.2691V26.009H62.628V26.2691L62.117 26.3341C62.0179 26.3465 61.9591 26.3744 61.9405 26.4177C61.9219 26.4549 61.9126 26.5788 61.9126 26.7893V28.9725H64.3559V26.7893C64.3559 26.5788 64.3466 26.4549 64.328 26.4177C64.3094 26.3744 64.2506 26.3465 64.1515 26.3341L63.6406 26.2691V26.009H66.186V26.2691L65.6751 26.3341C65.576 26.3465 65.5171 26.3744 65.4986 26.4177C65.48 26.4549 65.4707 26.5788 65.4707 26.7893V31.5458C65.4707 31.7564 65.48 31.8833 65.4986 31.9267C65.5171 31.9639 65.576 31.9886 65.6751 32.001L66.186 32.0661ZM72.0681 32.0661V32.3262H70.3402V31.5087C70.1668 31.8245 69.9438 32.0568 69.6713 32.2054C69.3988 32.3478 69.1232 32.4191 68.8445 32.4191C68.4048 32.4191 68.0548 32.2735 67.7947 31.9824C67.5346 31.6852 67.4045 31.2733 67.4045 30.7469V28.3965C67.4045 28.1859 67.3953 28.0621 67.3767 28.0249C67.3581 27.9815 67.2993 27.9537 67.2002 27.9413L66.6892 27.8763V27.6161H68.4729V30.7376C68.4729 31.1649 68.5317 31.4777 68.6494 31.6759C68.7733 31.8679 68.9498 31.9639 69.1789 31.9639C69.278 31.9639 69.3926 31.9391 69.5227 31.8895C69.6589 31.8338 69.7952 31.7378 69.9314 31.6016C70.0677 31.4591 70.1853 31.2578 70.2844 30.9977V28.3965C70.2844 28.1859 70.2752 28.059 70.2566 28.0156C70.238 27.9723 70.1792 27.9475 70.0801 27.9413L69.3833 27.8763V27.6161H71.3528V31.5458C71.3528 31.7564 71.3621 31.8833 71.3807 31.9267C71.3992 31.9639 71.4581 31.9886 71.5572 32.001L72.0681 32.0661ZM72.2952 25.7117V25.4516H74.0789V28.3036C74.2461 28.0435 74.4319 27.8484 74.6363 27.7183C74.8469 27.5883 75.0884 27.5232 75.3609 27.5232C75.8812 27.5232 76.293 27.7307 76.5965 28.1457C76.9062 28.5544 77.061 29.1304 77.061 29.8736V30.0594C77.061 30.7778 76.8845 31.3507 76.5315 31.7781C76.1784 32.2054 75.6892 32.4191 75.0636 32.4191C74.5868 32.4191 74.1966 32.2766 73.8931 31.9917C73.7816 32.0351 73.6732 32.0908 73.5679 32.159C73.4689 32.2209 73.3667 32.2921 73.2614 32.3726H73.0105V26.2319C73.0105 26.0214 73.0013 25.8975 72.9827 25.8603C72.9641 25.817 72.9053 25.7891 72.8062 25.7767L72.2952 25.7117ZM75.1194 27.932C74.9645 27.932 74.8004 27.997 74.627 28.1271C74.4598 28.251 74.2771 28.508 74.0789 28.8982V31.7037C74.3142 31.9391 74.6022 32.0568 74.9429 32.0568C75.2897 32.0568 75.5374 31.905 75.6861 31.6016C75.8409 31.2919 75.9183 30.8707 75.9183 30.3381V29.5949C75.9183 29.0189 75.8471 28.5978 75.7046 28.3315C75.5622 28.0652 75.3671 27.932 75.1194 27.932Z" fill="black"/>
<path d="M60.4862 18.0576C60.4862 18.1484 60.3955 18.1937 60.2594 18.1937C60.1233 18.2391 60.0325 18.1484 60.0325 18.0576C60.0325 17.9669 60.1233 17.8761 60.2594 17.8761C60.3955 17.8761 60.4862 17.9669 60.4862 18.0576ZM59.0797 17.8308C59.1251 17.74 59.2612 17.6946 59.3973 17.74C59.5334 17.7854 59.5788 17.8761 59.5788 17.9669C59.5334 18.0576 59.3973 18.103 59.3066 18.0576C59.1705 18.0576 59.0797 17.9215 59.0797 17.8308ZM61.1214 17.7854C61.2122 17.74 61.3483 17.8308 61.3483 17.9215C61.3937 18.0122 61.3029 18.0576 61.1668 18.103C61.0307 18.1484 60.8946 18.103 60.8946 18.0122C60.8946 17.8761 60.9853 17.7854 61.1214 17.7854ZM64.0705 0.362891C70.3771 0.362891 75.5041 5.17223 75.5041 11.4334C75.5041 16.4696 72.4188 20.7799 67.8817 22.2771C67.2919 22.4132 67.065 22.0503 67.065 21.7327C67.065 21.3697 67.1104 19.4641 67.1104 17.9669C67.1104 16.878 66.7474 16.1974 66.3391 15.8344C68.8799 15.5622 71.5568 15.1992 71.5568 10.8436C71.5568 9.57322 71.1031 8.9834 70.3771 8.16672C70.4679 7.84912 70.8762 6.66947 70.241 5.08148C69.2882 4.76389 67.1104 6.3065 67.1104 6.3065C66.203 6.03428 65.2502 5.94354 64.252 5.94354C63.2992 5.94354 62.3464 6.03428 61.439 6.3065C61.439 6.3065 59.2158 4.80926 58.3084 5.08148C57.6732 6.66947 58.0362 7.84912 58.1723 8.16672C57.4464 8.9834 57.0834 9.57322 57.0834 10.8436C57.0834 15.1992 59.6696 15.5622 62.2103 15.8344C61.8474 16.152 61.5751 16.6511 61.4844 17.3771C60.8038 17.6946 59.1705 18.1937 58.1723 16.4243C57.5371 15.3354 56.4028 15.2446 56.4028 15.2446C55.3139 15.2446 56.3575 15.9705 56.3575 15.9705C57.0834 16.2881 57.5825 17.6039 57.5825 17.6039C58.263 19.6456 61.439 18.965 61.439 18.965C61.439 19.9178 61.439 21.4604 61.439 21.778C61.439 22.0503 61.2575 22.4132 60.6677 22.3225C56.1306 20.7799 53 16.4696 53 11.4334C53 5.17223 57.8093 0.362891 64.0705 0.362891ZM57.401 16.0159C57.4464 15.9705 57.5371 16.0159 57.6279 16.0613C57.7186 16.152 57.7186 16.2881 57.6732 16.3335C57.5825 16.3789 57.4917 16.3335 57.401 16.2881C57.3556 16.1974 57.3103 16.0613 57.401 16.0159ZM56.9019 15.6529C56.9473 15.6076 56.9927 15.6076 57.0834 15.6529C57.1741 15.6983 57.2195 15.7437 57.2195 15.7891C57.1741 15.8798 57.0834 15.8798 56.9927 15.8344C56.9019 15.7891 56.8565 15.7437 56.9019 15.6529ZM58.3538 17.2863C58.4445 17.1956 58.5806 17.2409 58.6714 17.3317C58.7621 17.4224 58.7621 17.5585 58.7168 17.6039C58.6714 17.6946 58.5353 17.6493 58.4445 17.5585C58.3084 17.4678 58.3084 17.3317 58.3538 17.2863ZM57.8547 16.6057C57.9454 16.5604 58.0362 16.6057 58.1269 16.6965C58.1723 16.7872 58.1723 16.9233 58.1269 16.9687C58.0362 17.0141 57.9454 16.9687 57.8547 16.878C57.764 16.7872 57.764 16.6511 57.8547 16.6057Z" fill="black"/>
<path d="M4.31985 26.2691V26.009H6.12211V26.2691L5.61116 26.3341C5.51207 26.3465 5.45323 26.3744 5.43465 26.4177C5.41607 26.4549 5.40678 26.5788 5.40678 26.7893V32.3262H4.89583L1.4864 26.8172V31.5458C1.4864 31.7564 1.49569 31.8833 1.51427 31.9267C1.53285 31.9639 1.59169 31.9886 1.69078 32.001L2.20173 32.0661V32.3262H0.39947V32.0661L0.91042 32.001C1.00951 31.9886 1.06835 31.9639 1.08693 31.9267C1.10551 31.8833 1.1148 31.7564 1.1148 31.5458V26.7893C1.1148 26.5788 1.10551 26.4549 1.08693 26.4177C1.06835 26.3744 1.00951 26.3465 0.91042 26.3341L0.39947 26.2691V26.009H2.26676L5.03518 30.4589V26.7893C5.03518 26.5788 5.02589 26.4549 5.00731 26.4177C4.98873 26.3744 4.92989 26.3465 4.8308 26.3341L4.31985 26.2691ZM10.9796 29.8736V30.0594C10.9796 30.7716 10.7938 31.3445 10.4222 31.7781C10.0568 32.2054 9.53348 32.4191 8.85221 32.4191C8.17094 32.4191 7.64451 32.2054 7.27291 31.7781C6.9075 31.3445 6.7248 30.7716 6.7248 30.0594V29.8736C6.7248 29.1614 6.9075 28.5916 7.27291 28.1643C7.64451 27.7369 8.17094 27.5232 8.85221 27.5232C9.53348 27.5232 10.0568 27.7369 10.4222 28.1643C10.7938 28.5916 10.9796 29.1614 10.9796 29.8736ZM9.83695 29.6878C9.83695 29.0251 9.75334 28.5544 9.58612 28.2757C9.4189 27.9908 9.17426 27.8484 8.85221 27.8484C8.53635 27.8484 8.29171 27.9908 8.1183 28.2757C7.95108 28.5544 7.86747 29.0251 7.86747 29.6878V30.2452C7.86747 30.9017 7.95108 31.3755 8.1183 31.6666C8.29171 31.9515 8.53635 32.0939 8.85221 32.0939C9.17426 32.0939 9.4189 31.9515 9.58612 31.6666C9.75334 31.3755 9.83695 30.9017 9.83695 30.2452V29.6878ZM16.7443 32.0661V32.3262H15.0163V31.5551C14.8429 31.84 14.6478 32.0568 14.4311 32.2054C14.2205 32.3478 13.9697 32.4191 13.6786 32.4191C13.1583 32.4191 12.7434 32.2147 12.4337 31.8059C12.1302 31.391 11.9785 30.8119 11.9785 30.0687V29.8829C11.9785 29.1645 12.155 28.5916 12.508 28.1643C12.8673 27.7369 13.3565 27.5232 13.9759 27.5232C14.3475 27.5232 14.6757 27.6161 14.9606 27.8019V26.2319C14.9606 26.0214 14.9513 25.8975 14.9327 25.8603C14.9142 25.817 14.8553 25.7891 14.7562 25.7767L14.2453 25.7117V25.4516H16.029V31.5458C16.029 31.7564 16.0382 31.8833 16.0568 31.9267C16.0754 31.9639 16.1342 31.9886 16.2333 32.001L16.7443 32.0661ZM13.1212 30.3474C13.1212 30.9234 13.1924 31.3445 13.3349 31.6108C13.4773 31.8772 13.6724 32.0103 13.9201 32.0103C14.075 32.0103 14.236 31.9484 14.4032 31.8245C14.5766 31.6945 14.7624 31.4343 14.9606 31.0442V28.2386C14.7253 28.0032 14.4373 27.8856 14.0966 27.8856C13.756 27.8856 13.5083 28.0404 13.3534 28.3501C13.1986 28.6535 13.1212 29.0716 13.1212 29.6042V30.3474ZM21.296 31.2207C21.1845 31.6542 20.9771 31.9639 20.6736 32.1497C20.3701 32.3293 20.0171 32.4191 19.6145 32.4191C18.8713 32.4191 18.3139 32.2054 17.9423 31.7781C17.5707 31.3445 17.3849 30.7716 17.3849 30.0594V29.8736C17.3849 29.1614 17.5583 28.5916 17.9052 28.1643C18.2582 27.7369 18.766 27.5232 19.4287 27.5232C19.8003 27.5232 20.1286 27.5976 20.4135 27.7462C20.7046 27.8886 20.9306 28.0961 21.0916 28.3686C21.2589 28.6411 21.3425 28.9725 21.3425 29.3627C21.3425 29.4556 21.3363 29.5547 21.3239 29.6599C21.3177 29.7652 21.3022 29.8705 21.2774 29.9758H18.5276V30.2452C18.5276 30.9017 18.6205 31.3755 18.8063 31.6666C18.9921 31.9515 19.2925 32.0939 19.7074 32.0939C19.9737 32.0939 20.1998 32.0165 20.3856 31.8617C20.5714 31.7006 20.6767 31.4312 20.7015 31.0534L21.296 31.2207ZM19.4287 27.8484C19.1253 27.8484 18.8992 27.9877 18.7506 28.2664C18.6019 28.5451 18.5276 29.0065 18.5276 29.6507H20.2091C20.2339 29.5268 20.2493 29.4122 20.2555 29.3069C20.2679 29.1954 20.2741 29.0933 20.2741 29.0004C20.2741 28.604 20.1967 28.3129 20.0419 28.1271C19.887 27.9413 19.6827 27.8484 19.4287 27.8484ZM22.9896 32.4191C22.7976 32.4191 22.6396 32.3602 22.5158 32.2426C22.3981 32.1187 22.3393 31.9577 22.3393 31.7595C22.3393 31.5613 22.3981 31.4034 22.5158 31.2857C22.6396 31.168 22.7976 31.1092 22.9896 31.1092C23.1816 31.1092 23.3395 31.168 23.4633 31.2857C23.5872 31.4034 23.6491 31.5613 23.6491 31.7595C23.6491 31.9577 23.5872 32.1187 23.4633 32.2426C23.3395 32.3602 23.1816 32.4191 22.9896 32.4191ZM25.5711 26.8172C25.3791 26.8172 25.2243 26.7584 25.1066 26.6407C24.9889 26.5168 24.9301 26.3589 24.9301 26.1669C24.9301 25.9749 24.9889 25.8201 25.1066 25.7024C25.2243 25.5847 25.3791 25.5259 25.5711 25.5259C25.7569 25.5259 25.9117 25.5847 26.0356 25.7024C26.1595 25.8201 26.2214 25.9749 26.2214 26.1669C26.2214 26.3589 26.1595 26.5168 26.0356 26.6407C25.9117 26.7584 25.7569 26.8172 25.5711 26.8172ZM24.3262 27.8763V27.6161H26.1099V32.642C26.1099 32.9517 26.0573 33.2397 25.952 33.506C25.8467 33.7723 25.6764 33.986 25.441 34.147C25.2057 34.3142 24.8929 34.3978 24.5027 34.3978C24.1621 34.3978 23.871 34.3111 23.6295 34.1377C23.3879 33.9643 23.2393 33.6701 23.1836 33.2552L23.7595 33.0787C23.7905 33.475 23.8648 33.7383 23.9825 33.8683C24.1002 34.0046 24.2364 34.0727 24.3913 34.0727C24.5956 34.0727 24.7536 33.9829 24.865 33.8033C24.9827 33.6237 25.0416 33.2985 25.0416 32.8278V28.3965C25.0416 28.1859 25.0323 28.0621 25.0137 28.0249C24.9951 27.9815 24.9363 27.9537 24.8372 27.9413L24.3262 27.8763ZM29.2311 30.5704L28.59 30.4217C28.1751 30.3226 27.8654 30.1461 27.661 29.8922C27.4629 29.6321 27.3638 29.3255 27.3638 28.9725C27.3638 28.7124 27.4195 28.4739 27.531 28.2572C27.6487 28.0342 27.8314 27.8577 28.0791 27.7276C28.3268 27.5914 28.6489 27.5232 29.0453 27.5232C29.4726 27.5232 29.8194 27.5914 30.0857 27.7276C30.3521 27.8639 30.5409 28.0435 30.6524 28.2664C30.7639 28.4894 30.798 28.7278 30.7546 28.9818L29.7327 29.1676C29.8194 28.7464 29.7947 28.4213 29.6584 28.1921C29.5283 27.963 29.3085 27.8484 28.9988 27.8484C28.782 27.8484 28.6024 27.9134 28.46 28.0435C28.3175 28.1673 28.2463 28.347 28.2463 28.5823C28.2463 28.7991 28.3083 28.9911 28.4321 29.1583C28.556 29.3193 28.7387 29.4277 28.9802 29.4834L29.6212 29.6321C30.0795 29.7374 30.4109 29.9046 30.6153 30.1337C30.8196 30.3567 30.9218 30.6354 30.9218 30.9698C30.9218 31.3848 30.767 31.7316 30.4573 32.0103C30.1539 32.2828 29.6987 32.4191 29.0917 32.4191C28.8811 32.4191 28.6489 32.3881 28.395 32.3262C28.1472 32.258 27.9181 32.1373 27.7075 31.9639C27.5031 31.7904 27.3545 31.5427 27.2616 31.2207L27.8654 30.9791C27.9088 31.3879 28.0481 31.6759 28.2835 31.8431C28.525 32.0103 28.7944 32.0939 29.0917 32.0939C29.3704 32.0939 29.5965 32.032 29.7699 31.9081C29.9495 31.7781 30.0393 31.5923 30.0393 31.3507C30.0393 31.1835 29.9805 31.0318 29.8628 30.8955C29.7513 30.7531 29.5407 30.6447 29.2311 30.5704Z" fill="black"/>
<path d="M16.1631 23.0484C15.8455 23.0484 15.5279 23.0031 15.2557 22.8216L12.4427 21.1882C12.0344 20.9614 12.2612 20.8706 12.3973 20.8253C12.9418 20.5984 13.0779 20.5984 13.6677 20.2354C13.7131 20.1901 13.8038 20.2354 13.8492 20.2354L16.027 21.5512C16.0724 21.5966 16.2085 21.5966 16.2539 21.5512L24.6475 16.6965C24.7383 16.6511 24.7836 16.5604 24.7836 16.4696V6.80559C24.7836 6.71484 24.7383 6.6241 24.6475 6.57873L16.2539 1.72402C16.2085 1.67865 16.0724 1.67865 16.027 1.72402L7.63336 6.57873C7.54262 6.6241 7.49725 6.71484 7.49725 6.80559V16.4696C7.49725 16.5604 7.54262 16.6511 7.63336 16.6965L9.94729 18.0122C11.1723 18.6474 11.9436 17.9215 11.9436 17.1502V7.62227C11.9436 7.48615 12.0344 7.39541 12.1705 7.39541H13.2594C13.3955 7.39541 13.4862 7.48615 13.4862 7.62227V17.1502C13.4862 18.8289 12.5788 19.7817 11.0362 19.7817C10.5371 19.7817 10.1288 19.7817 9.08523 19.2373L6.90742 18.0122C6.36297 17.6946 6 17.1048 6 16.4696V6.80559C6 6.17039 6.36297 5.58057 6.90742 5.26297L15.2557 0.408262C15.8002 0.136036 16.4807 0.136036 17.0252 0.408262L25.4188 5.26297C25.9633 5.58057 26.2809 6.17039 26.2809 6.80559V16.4696C26.2809 17.1048 25.9633 17.6946 25.4188 18.0122L17.0252 22.8216C16.7529 23.0031 16.4354 23.0484 16.1631 23.0484ZM22.9234 13.5205C22.9234 15.3807 21.3808 16.4243 18.7493 16.4243C15.0742 16.4243 14.3029 14.7455 14.3029 13.339C14.3029 13.2029 14.3937 13.0668 14.5298 13.0668H15.6187C15.7548 13.0668 15.8455 13.1575 15.8455 13.2937C16.027 14.3826 16.5261 14.927 18.7493 14.927C20.4734 14.927 21.2447 14.564 21.2447 13.6113C21.2447 13.0668 21.0178 12.6585 18.2956 12.3862C15.9816 12.1594 14.5751 11.6603 14.5751 9.84545C14.5751 8.12135 15.9816 7.12318 18.3863 7.12318C21.0632 7.12318 22.4243 8.07598 22.5604 10.0723C22.5604 10.1177 22.5604 10.2084 22.5151 10.2538C22.4697 10.2992 22.4243 10.3445 22.3336 10.3445H21.2447C21.1539 10.3445 21.0178 10.2538 21.0178 10.1177C20.7456 8.9834 20.1104 8.62043 18.3863 8.62043C16.4807 8.62043 16.2539 9.25563 16.2539 9.75471C16.2539 10.3899 16.5261 10.5714 19.1122 10.889C21.6984 11.252 22.9234 11.7057 22.9234 13.5205Z" fill="black"/>
<path d="M154.354 29.725V29.4649H156.992V29.725L156.481 29.79C156.382 29.8024 156.323 29.8303 156.305 29.8736C156.286 29.9108 156.277 30.0346 156.277 30.2452V32.3262H156.026C155.859 32.1528 155.673 32.0072 155.468 31.8895C155.301 32.0382 155.103 32.1651 154.874 32.2704C154.645 32.3695 154.366 32.4191 154.038 32.4191C153.53 32.4191 153.093 32.2921 152.728 32.0382C152.369 31.7781 152.093 31.4219 151.901 30.9698C151.709 30.5115 151.613 29.9913 151.613 29.4091V28.8238C151.613 28.2602 151.709 27.7617 151.901 27.3282C152.093 26.8884 152.375 26.5447 152.747 26.297C153.118 26.043 153.573 25.9161 154.112 25.9161C154.62 25.9161 155.038 26.009 155.366 26.1948C155.701 26.3744 155.945 26.6159 156.1 26.9194C156.255 27.2167 156.314 27.5418 156.277 27.8948L155.19 28.1643C155.258 27.5449 155.19 27.0711 154.985 26.7429C154.781 26.4084 154.478 26.2412 154.075 26.2412C153.227 26.2412 152.802 26.9937 152.802 28.4987V29.8272C152.802 31.3383 153.251 32.0939 154.149 32.0939C154.347 32.0939 154.546 32.0537 154.744 31.9732C154.948 31.8926 155.119 31.775 155.255 31.6201V30.2452C155.255 30.0346 155.246 29.9077 155.227 29.8643C155.208 29.821 155.15 29.7962 155.05 29.79L154.354 29.725ZM158.619 26.8172C158.427 26.8172 158.272 26.7584 158.154 26.6407C158.036 26.5168 157.978 26.3589 157.978 26.1669C157.978 25.9749 158.036 25.8201 158.154 25.7024C158.272 25.5847 158.427 25.5259 158.619 25.5259C158.804 25.5259 158.959 25.5847 159.083 25.7024C159.207 25.8201 159.269 25.9749 159.269 26.1669C159.269 26.3589 159.207 26.5168 159.083 26.6407C158.959 26.7584 158.804 26.8172 158.619 26.8172ZM157.374 27.8763V27.6161H159.157V31.5458C159.157 31.7564 159.167 31.8833 159.185 31.9267C159.204 31.9639 159.263 31.9886 159.362 32.001L159.873 32.0661V32.3262H157.374V32.0661L157.885 32.001C157.984 31.9886 158.043 31.9639 158.061 31.9267C158.08 31.8833 158.089 31.7564 158.089 31.5458V28.3965C158.089 28.1859 158.08 28.0621 158.061 28.0249C158.043 27.9815 157.984 27.9537 157.885 27.9413L157.374 27.8763ZM163.539 31.36C163.458 31.7378 163.303 32.0103 163.074 32.1775C162.851 32.3386 162.579 32.4191 162.257 32.4191C161.928 32.4191 161.659 32.3478 161.448 32.2054C161.238 32.0568 161.083 31.8617 160.984 31.6201C160.885 31.3786 160.835 31.1216 160.835 30.8491V28.3965C160.835 28.1859 160.826 28.0621 160.807 28.0249C160.789 27.9815 160.73 27.9537 160.631 27.9413L160.12 27.8763V27.6161H160.835V26.5385L161.904 26.3248V27.6161H163.39V27.9413H161.904V31.0349C161.904 31.4312 161.953 31.7068 162.052 31.8617C162.151 32.0103 162.278 32.0846 162.433 32.0846C162.594 32.0846 162.718 32.0227 162.805 31.8988C162.898 31.775 162.957 31.5489 162.981 31.2207L163.539 31.36Z" fill="black"/>
<g clip-path="url(#clip0_215_639)">
<path d="M169.448 10.435L159.458 1.70374C159.321 1.58412 159.159 1.48922 158.98 1.42448C158.801 1.35974 158.61 1.32642 158.416 1.32642C158.223 1.32642 158.031 1.35974 157.853 1.42448C157.674 1.48922 157.511 1.58412 157.375 1.70374L155.301 3.51624L157.932 5.81624C158.243 5.72363 158.576 5.70914 158.896 5.77443C159.215 5.83972 159.507 5.98215 159.738 6.18548C159.969 6.38881 160.13 6.64484 160.203 6.92435C160.275 7.20386 160.257 7.49559 160.149 7.76624L162.684 9.98374C163.059 9.86829 163.468 9.86794 163.844 9.98275C164.219 10.0976 164.538 10.3207 164.749 10.6154C164.96 10.9101 165.05 11.2588 165.004 11.604C164.958 11.9493 164.779 12.2706 164.496 12.515C164.21 12.7668 163.832 12.9239 163.428 12.9595C163.024 12.995 162.618 12.9068 162.28 12.71C161.942 12.5131 161.693 12.2198 161.575 11.8801C161.457 11.5404 161.478 11.1754 161.633 10.8475L159.269 8.77999V14.2212C159.629 14.3767 159.916 14.6351 160.084 14.9534C160.252 15.2717 160.29 15.6306 160.191 15.9704C160.093 16.3101 159.864 16.6102 159.544 16.8205C159.223 17.0308 158.83 17.1387 158.429 17.1262C158.028 17.1137 157.645 16.9815 157.342 16.7518C157.039 16.522 156.836 16.2084 156.766 15.8634C156.695 15.5184 156.762 15.1628 156.956 14.8557C157.149 14.5487 157.457 14.3089 157.828 14.1762V8.68499C157.614 8.60831 157.419 8.49534 157.255 8.35261C157.091 8.20987 156.961 8.04019 156.873 7.85334C156.784 7.6665 156.739 7.46618 156.739 7.26394C156.74 7.0617 156.786 6.86154 156.876 6.67499L154.283 4.40749L147.433 10.395C147.296 10.5146 147.188 10.6565 147.114 10.8128C147.04 10.969 147.002 11.1365 147.002 11.3056C147.002 11.4747 147.04 11.6422 147.114 11.7985C147.188 11.9547 147.296 12.0967 147.433 12.2162L157.423 20.9487C157.56 21.0684 157.722 21.1633 157.901 21.228C158.08 21.2927 158.271 21.3261 158.465 21.3261C158.658 21.3261 158.85 21.2927 159.029 21.228C159.208 21.1633 159.37 21.0684 159.507 20.9487L169.45 12.2575C169.586 12.1379 169.695 11.996 169.769 11.8397C169.843 11.6835 169.881 11.516 169.881 11.3469C169.881 11.1777 169.843 11.0103 169.769 10.854C169.695 10.6978 169.586 10.5558 169.45 10.4362" fill="black"/>
</g>
<defs>
<clipPath id="clip0_215_639">
<rect width="22.88" height="20" fill="white" transform="translate(147 1.32617)"/>
</clipPath>
</defs>
</svg>
