<svg width="33" height="35" viewBox="0 0 33 35" fill="none" xmlns="http://www.w3.org/2000/svg">
<path d="M7.69212 31.7399V32H5.14666V31.7399L5.65761 31.6748C5.7567 31.6625 5.81554 31.6377 5.83412 31.6005C5.8527 31.5572 5.86199 31.4302 5.86199 31.2196V26.4446L4.16192 31.2568H3.16789L1.4864 26.4724V31.2196C1.4864 31.4302 1.49569 31.5572 1.51427 31.6005C1.53285 31.6377 1.59169 31.6625 1.69078 31.6748L2.20173 31.7399V32H0.39947V31.7399L0.91042 31.6748C1.00951 31.6625 1.06835 31.6377 1.08693 31.6005C1.10551 31.5572 1.1148 31.4302 1.1148 31.2196V26.4632C1.1148 26.2526 1.10551 26.1287 1.08693 26.0916C1.06835 26.0482 1.00951 26.0203 0.91042 26.0079L0.39947 25.9429V25.6828H2.35966L4.05973 30.5136L5.78767 25.6828H7.69212V25.9429L7.18117 26.0079C7.08208 26.0203 7.02324 26.0482 7.00466 26.0916C6.98608 26.1287 6.97679 26.2526 6.97679 26.4632V31.2196C6.97679 31.4302 6.98608 31.5572 7.00466 31.6005C7.02324 31.6377 7.08208 31.6625 7.18117 31.6748L7.69212 31.7399ZM10.9073 32.4645C10.7649 32.8547 10.607 33.1674 10.4335 33.4028C10.2663 33.6381 10.0588 33.8085 9.81111 33.9137C9.56338 34.019 9.25371 34.0717 8.88211 34.0717V33.0498C9.2599 33.0498 9.56338 33.0219 9.79253 32.9662C10.0279 32.9166 10.2075 32.833 10.3314 32.7153C10.4614 32.6039 10.5574 32.4583 10.6193 32.2787L10.7122 32H10.2292L8.90998 28.0703C8.86663 27.9279 8.82947 27.8288 8.7985 27.773C8.77373 27.7111 8.74276 27.6709 8.7056 27.6523C8.67463 27.6337 8.62509 27.6213 8.55696 27.6151L8.04601 27.5501V27.29H10.5543V27.5501L10.0434 27.6151C9.96904 27.6213 9.92259 27.6461 9.90401 27.6894C9.89162 27.7266 9.91949 27.8536 9.98762 28.0703L11.0002 31.136L12.05 28.0332C12.1181 27.835 12.146 27.7204 12.1336 27.6894C12.1274 27.6523 12.0779 27.6275 11.985 27.6151L11.474 27.5501V27.29H13.2484V27.5501L12.7375 27.6151C12.6446 27.6275 12.5826 27.6523 12.5517 27.6894C12.5207 27.7266 12.4711 27.8412 12.403 28.0332L10.9073 32.4645ZM15.7549 31.7677C16.1265 31.7677 16.4331 31.681 16.6746 31.5076C16.9223 31.328 17.0462 31.0493 17.0462 30.6715C17.0462 30.3928 16.9626 30.1606 16.7954 29.9748C16.6343 29.789 16.3433 29.6341 15.9221 29.5103L15.0581 29.2502C14.6246 29.1201 14.2902 28.8971 14.0548 28.5813C13.8257 28.2592 13.7111 27.8598 13.7111 27.3829C13.7111 27.067 13.7823 26.7728 13.9248 26.5003C14.0734 26.2278 14.2964 26.0079 14.5936 25.8407C14.8971 25.6735 15.278 25.5899 15.7363 25.5899C16.238 25.5899 16.6436 25.6828 16.9533 25.8686C17.263 26.0482 17.4797 26.2836 17.6036 26.5746C17.7275 26.8657 17.7584 27.1785 17.6965 27.5129L16.6282 27.708C16.7272 27.132 16.6839 26.6892 16.4981 26.3795C16.3185 26.0699 16.0243 25.915 15.6155 25.915C15.2997 25.915 15.0458 26.0079 14.8538 26.1938C14.668 26.3795 14.5751 26.6459 14.5751 26.9927C14.5751 27.2776 14.6556 27.5284 14.8166 27.7452C14.9838 27.9619 15.2563 28.1292 15.6341 28.2468L16.4981 28.507C16.9688 28.6432 17.3218 28.8507 17.5572 29.1294C17.7925 29.4019 17.9102 29.7828 17.9102 30.2721C17.9102 30.6189 17.8297 30.9316 17.6686 31.2103C17.5138 31.4829 17.2754 31.6996 16.9533 31.8606C16.6374 32.0155 16.2411 32.0929 15.7642 32.0929C15.4174 32.0929 15.0891 32.0434 14.7794 31.9443C14.4698 31.839 14.2097 31.6687 13.9991 31.4333C13.7947 31.198 13.6646 30.879 13.6089 30.4764L14.2313 30.2535C14.2623 30.6499 14.349 30.9595 14.4915 31.1825C14.6401 31.3992 14.8228 31.551 15.0396 31.6377C15.2625 31.7244 15.501 31.7677 15.7549 31.7677ZM23.7584 32.7711L23.9164 33.9323C23.5819 33.9323 23.2754 33.8735 22.9967 33.7558C22.718 33.6443 22.464 33.4554 22.2349 33.1891C22.0119 32.9228 21.8168 32.5574 21.6496 32.0929H21.566C20.7299 32.0929 20.0982 31.839 19.6708 31.3311C19.2435 30.8171 19.0298 30.0832 19.0298 29.1294V28.5441C19.0298 27.5903 19.2435 26.8595 19.6708 26.3517C20.0982 25.8438 20.7299 25.5899 21.566 25.5899C22.3959 25.5899 23.0245 25.8438 23.4519 26.3517C23.8854 26.8595 24.1022 27.5903 24.1022 28.5441V29.1294C24.1022 29.9903 23.9257 30.6746 23.5726 31.1825C23.2196 31.6841 22.6994 31.9783 22.0119 32.065C22.1358 32.3128 22.3309 32.4924 22.5972 32.6039C22.8635 32.7153 23.2506 32.7711 23.7584 32.7711ZM22.9131 28.0796C22.9131 27.5346 22.8635 27.1073 22.7644 26.7976C22.6715 26.4817 22.526 26.2557 22.3278 26.1194C22.1296 25.9832 21.8757 25.915 21.566 25.915C21.2563 25.915 21.0024 25.9832 20.8042 26.1194C20.606 26.2557 20.4574 26.4817 20.3583 26.7976C20.2654 27.1073 20.219 27.5346 20.219 28.0796V29.5939C20.219 30.1327 20.2654 30.56 20.3583 30.8759C20.4574 31.1918 20.606 31.4209 20.8042 31.5634C21.0024 31.6996 21.2563 31.7677 21.566 31.7677C21.8757 31.7677 22.1296 31.6996 22.3278 31.5634C22.526 31.4209 22.6715 31.1918 22.7644 30.8759C22.8635 30.56 22.9131 30.1327 22.9131 29.5939V28.0796ZM29.265 30.4021H29.5251V32H25.1123V31.7399L25.6233 31.6748C25.7224 31.6625 25.7812 31.6377 25.7998 31.6005C25.8184 31.5572 25.8277 31.4302 25.8277 31.2196V26.4632C25.8277 26.2526 25.8184 26.1287 25.7998 26.0916C25.7812 26.0482 25.7224 26.0203 25.6233 26.0079L25.1123 25.9429V25.6828H27.6578V25.9429L27.1468 26.0079C27.0477 26.0203 26.9889 26.0482 26.9703 26.0916C26.9517 26.1287 26.9425 26.2526 26.9425 26.4632V31.6748H28.466C28.6147 31.6748 28.7199 31.6718 28.7819 31.6656C28.8438 31.6532 28.8841 31.6315 28.9026 31.6005C28.9274 31.5634 28.9491 31.5076 28.9677 31.4333L29.265 30.4021Z" fill="white"/>
<path d="M10.9939 3.35875C12.304 2.83875 14.1662 2.5 16.2601 2.5C18.3541 2.5 20.2163 2.8375 21.5264 3.35875C22.9023 3.90625 23.4115 4.53375 23.4115 5C23.4115 5.4675 22.9023 6.09375 21.5264 6.64125C20.2163 7.16125 18.3541 7.5 16.2601 7.5C14.1662 7.5 12.304 7.1625 10.9939 6.64125C9.61792 6.09375 9.10874 5.46625 9.10874 5C9.10874 4.5325 9.61792 3.90625 10.9939 3.35875ZM23.4115 7.1225V8.75C23.4115 9.2175 22.9023 9.84375 21.5264 10.3912C20.2163 10.9113 18.3541 11.25 16.2601 11.25C14.1662 11.25 12.304 10.9125 10.9939 10.3912C9.61792 9.84375 9.10874 9.21625 9.10874 8.75V7.1225C9.49635 7.375 9.93831 7.595 10.4017 7.77875C11.9378 8.38875 14.0103 8.75 16.2601 8.75C18.51 8.75 20.5824 8.38875 22.1186 7.77875C22.5746 7.60009 23.008 7.38013 23.4115 7.1225ZM24.8418 5C24.8418 3.74125 23.5903 2.80625 22.1186 2.22125C20.5824 1.61125 18.51 1.25 16.2601 1.25C14.0103 1.25 11.9378 1.61125 10.4017 2.22125C8.92996 2.80625 7.67847 3.74125 7.67847 5V16.25C7.67847 17.5088 8.92996 18.4438 10.4017 19.0287C11.9378 19.6375 14.0103 20 16.2601 20C18.51 20 20.5824 19.6388 22.1186 19.0287C23.5903 18.4438 24.8418 17.5088 24.8418 16.25V5ZM23.4115 10.8725V12.5C23.4115 12.9675 22.9023 13.5938 21.5264 14.1412C20.2163 14.6613 18.3541 15 16.2601 15C14.1662 15 12.304 14.6625 10.9939 14.1412C9.61792 13.5938 9.10874 12.9663 9.10874 12.5V10.8725C9.49635 11.125 9.93831 11.345 10.4017 11.5287C11.9378 12.1375 14.0103 12.5 16.2601 12.5C18.51 12.5 20.5824 12.1387 22.1186 11.5287C22.5746 11.3501 23.008 11.1301 23.4115 10.8725ZM23.4115 14.6225V16.25C23.4115 16.7175 22.9023 17.3438 21.5264 17.8913C20.2163 18.4112 18.3541 18.75 16.2601 18.75C14.1662 18.75 12.304 18.4125 10.9939 17.8913C9.61792 17.3438 9.10874 16.7163 9.10874 16.25V14.6225C9.49635 14.875 9.93831 15.095 10.4017 15.2787C11.9378 15.8875 14.0103 16.25 16.2601 16.25C18.51 16.25 20.5824 15.8887 22.1186 15.2787C22.582 15.095 23.0239 14.875 23.4115 14.6225Z" fill="white"/>
</svg>
