<svg width="27" height="20" viewBox="0 0 27 20" fill="none" xmlns="http://www.w3.org/2000/svg">
<path fill-rule="evenodd" clip-rule="evenodd" d="M9 19C9 18.7348 9.11853 18.4804 9.3295 18.2929C9.54048 18.1054 9.82663 18 10.125 18H25.875C26.1734 18 26.4595 18.1054 26.6705 18.2929C26.8815 18.4804 27 18.7348 27 19C27 19.2652 26.8815 19.5196 26.6705 19.7071C26.4595 19.8946 26.1734 20 25.875 20H10.125C9.82663 20 9.54048 19.8946 9.3295 19.7071C9.11853 19.5196 9 19.2652 9 19ZM0 13C0 12.7348 0.118527 12.4804 0.329505 12.2929C0.540483 12.1054 0.826631 12 1.125 12H25.875C26.1734 12 26.4595 12.1054 26.6705 12.2929C26.8815 12.4804 27 12.7348 27 13C27 13.2652 26.8815 13.5196 26.6705 13.7071C26.4595 13.8946 26.1734 14 25.875 14H1.125C0.826631 14 0.540483 13.8946 0.329505 13.7071C0.118527 13.5196 0 13.2652 0 13ZM9 7C9 6.73478 9.11853 6.48043 9.3295 6.29289C9.54048 6.10536 9.82663 6 10.125 6H25.875C26.1734 6 26.4595 6.10536 26.6705 6.29289C26.8815 6.48043 27 6.73478 27 7C27 7.26522 26.8815 7.51957 26.6705 7.70711C26.4595 7.89464 26.1734 8 25.875 8H10.125C9.82663 8 9.54048 7.89464 9.3295 7.70711C9.11853 7.51957 9 7.26522 9 7ZM0 1C0 0.734784 0.118527 0.48043 0.329505 0.292893C0.540483 0.105357 0.826631 0 1.125 0H25.875C26.1734 0 26.4595 0.105357 26.6705 0.292893C26.8815 0.48043 27 0.734784 27 1C27 1.26522 26.8815 1.51957 26.6705 1.70711C26.4595 1.89464 26.1734 2 25.875 2H1.125C0.826631 2 0.540483 1.89464 0.329505 1.70711C0.118527 1.51957 0 1.26522 0 1Z" fill="white"/>
</svg>
