<svg width="220" height="35" viewBox="0 0 220 35" fill="none" xmlns="http://www.w3.org/2000/svg">
<path d="M102.893 28.0343H103.153V30.3475H102.893L102.688 29.595C102.67 29.5207 102.648 29.468 102.623 29.437C102.605 29.3999 102.564 29.3782 102.502 29.372C102.44 29.3596 102.335 29.3534 102.186 29.3534H101.23V31.5459C101.23 31.7564 101.239 31.8834 101.257 31.9268C101.276 31.9639 101.335 31.9887 101.434 32.0011L102.131 32.0661V32.3262H99.3995V32.0661L99.9104 32.0011C100.01 31.9887 100.068 31.9639 100.087 31.9268C100.106 31.8834 100.115 31.7564 100.115 31.5459V26.7894C100.115 26.5788 100.106 26.455 100.087 26.4178C100.068 26.3744 100.01 26.3466 99.9104 26.3342L99.3995 26.2692V26.009H103.803V27.6069H103.543L103.246 26.5757C103.227 26.5014 103.205 26.4488 103.181 26.4178C103.162 26.3806 103.122 26.359 103.06 26.3528C102.998 26.3404 102.893 26.3342 102.744 26.3342H101.23V29.0283H102.186C102.335 29.0283 102.44 29.0252 102.502 29.019C102.564 29.0066 102.605 28.9849 102.623 28.954C102.648 28.9168 102.67 28.8611 102.688 28.7867L102.893 28.0343ZM105.603 26.8173C105.411 26.8173 105.256 26.7584 105.138 26.6408C105.02 26.5169 104.961 26.359 104.961 26.167C104.961 25.975 105.02 25.8201 105.138 25.7025C105.256 25.5848 105.411 25.526 105.603 25.526C105.788 25.526 105.943 25.5848 106.067 25.7025C106.191 25.8201 106.253 25.975 106.253 26.167C106.253 26.359 106.191 26.5169 106.067 26.6408C105.943 26.7584 105.788 26.8173 105.603 26.8173ZM104.358 27.8763V27.6162H106.141V31.5459C106.141 31.7564 106.151 31.8834 106.169 31.9268C106.188 31.9639 106.247 31.9887 106.346 32.0011L106.857 32.0661V32.3262H104.358V32.0661L104.869 32.0011C104.968 31.9887 105.027 31.9639 105.045 31.9268C105.064 31.8834 105.073 31.7564 105.073 31.5459V28.3966C105.073 28.186 105.064 28.0621 105.045 28.025C105.027 27.9816 104.968 27.9537 104.869 27.9414L104.358 27.8763ZM111.749 32.8093C111.749 33.3172 111.557 33.7073 111.173 33.9799C110.795 34.2586 110.275 34.3979 109.612 34.3979C108.881 34.3979 108.336 34.2771 107.977 34.0356C107.618 33.8002 107.423 33.5061 107.392 33.153L108.386 32.9951C108.361 33.3234 108.439 33.5835 108.618 33.7755C108.804 33.9737 109.135 34.0728 109.612 34.0728C110.058 34.0728 110.417 33.9891 110.69 33.8219C110.969 33.6547 111.108 33.4132 111.108 33.0973C111.108 32.8743 111.024 32.704 110.857 32.5864C110.696 32.4749 110.427 32.4191 110.049 32.4191H108.99C108.662 32.4191 108.401 32.3727 108.209 32.2798C108.024 32.1869 107.894 32.0723 107.819 31.9361C107.745 31.7936 107.708 31.6481 107.708 31.4994C107.708 31.3198 107.757 31.1433 107.856 30.9699C107.956 30.7903 108.126 30.6138 108.367 30.4404C108.101 30.3227 107.884 30.1493 107.717 29.9201C107.55 29.691 107.466 29.4061 107.466 29.0654C107.466 28.7186 107.547 28.4337 107.708 28.2108C107.869 27.9816 108.086 27.8113 108.358 27.6998C108.631 27.5821 108.934 27.5233 109.268 27.5233H109.426C109.786 27.5233 110.095 27.5821 110.355 27.6998L111.693 27.0402L111.805 27.9506H110.746C110.894 28.0807 111.009 28.2386 111.089 28.4244C111.176 28.604 111.219 28.8177 111.219 29.0654C111.219 29.3999 111.139 29.6817 110.978 29.9108C110.817 30.14 110.6 30.3134 110.328 30.4311C110.061 30.5487 109.761 30.6076 109.426 30.6076H109.268C109.083 30.6076 108.9 30.589 108.72 30.5518C108.566 30.6571 108.457 30.7593 108.395 30.8584C108.339 30.9513 108.312 31.0411 108.312 31.1278C108.312 31.2269 108.355 31.3012 108.442 31.3508C108.535 31.4003 108.683 31.4251 108.888 31.4251H110.095C110.628 31.4251 111.037 31.5459 111.322 31.7874C111.606 32.0228 111.749 32.3634 111.749 32.8093ZM109.426 30.2824C109.625 30.2824 109.795 30.1957 109.937 30.0223C110.08 29.8489 110.151 29.5299 110.151 29.0654C110.151 28.6009 110.08 28.282 109.937 28.1086C109.795 27.9352 109.625 27.8485 109.426 27.8485H109.268C109.07 27.8485 108.897 27.9352 108.748 28.1086C108.606 28.282 108.535 28.6009 108.535 29.0654C108.535 29.5299 108.606 29.8489 108.748 30.0223C108.897 30.1957 109.07 30.2824 109.268 30.2824H109.426ZM117.539 32.0661V32.3262H115.04V32.0661L115.551 32.0011C115.65 31.9887 115.709 31.9639 115.727 31.9268C115.746 31.8834 115.755 31.7564 115.755 31.5459V29.2048C115.755 28.7775 115.696 28.4678 115.579 28.2758C115.461 28.0776 115.284 27.9785 115.049 27.9785C114.95 27.9785 114.832 28.0064 114.696 28.0621C114.56 28.1117 114.423 28.2046 114.287 28.3408C114.157 28.4771 114.043 28.6784 113.943 28.9447V31.5459C113.943 31.7564 113.953 31.8834 113.971 31.9268C113.99 31.9639 114.049 31.9887 114.148 32.0011L114.659 32.0661V32.3262H112.16V32.0661L112.671 32.0011C112.77 31.9887 112.829 31.9639 112.847 31.9268C112.866 31.8834 112.875 31.7564 112.875 31.5459V28.3966C112.875 28.186 112.866 28.0621 112.847 28.025C112.829 27.9816 112.77 27.9537 112.671 27.9414L112.16 27.8763V27.6162H113.888V28.4337C114.061 28.1179 114.284 27.8887 114.557 27.7463C114.829 27.5976 115.105 27.5233 115.383 27.5233C115.718 27.5233 116 27.61 116.229 27.7834C116.464 27.9506 116.631 28.1922 116.73 28.508C116.898 28.1612 117.124 27.9104 117.409 27.7556C117.694 27.6007 117.978 27.5233 118.263 27.5233C118.703 27.5233 119.053 27.6688 119.313 27.9599C119.573 28.251 119.703 28.6629 119.703 29.1955V31.5459C119.703 31.7564 119.713 31.8834 119.731 31.9268C119.75 31.9639 119.809 31.9887 119.908 32.0011L120.419 32.0661V32.3262H117.92V32.0661L118.431 32.0011C118.53 31.9887 118.588 31.9639 118.607 31.9268C118.626 31.8834 118.635 31.7564 118.635 31.5459V29.2048C118.635 28.7775 118.576 28.4678 118.458 28.2758C118.341 28.0776 118.164 27.9785 117.929 27.9785C117.83 27.9785 117.712 28.0064 117.576 28.0621C117.44 28.1117 117.303 28.2077 117.167 28.3501C117.031 28.4926 116.913 28.7 116.814 28.9725C116.82 29.0035 116.823 29.0407 116.823 29.084C116.823 29.1212 116.823 29.1583 116.823 29.1955V31.5459C116.823 31.7564 116.833 31.8834 116.851 31.9268C116.87 31.9639 116.929 31.9887 117.028 32.0011L117.539 32.0661ZM125.471 32.094C125.372 32.1869 125.251 32.2643 125.109 32.3262C124.972 32.3882 124.805 32.4191 124.607 32.4191C124.353 32.4191 124.139 32.3634 123.966 32.2519C123.799 32.1404 123.687 31.9825 123.632 31.7781C123.427 32.0011 123.201 32.1652 122.953 32.2705C122.712 32.3696 122.464 32.4191 122.21 32.4191C121.783 32.4191 121.464 32.3015 121.253 32.0661C121.043 31.8246 120.937 31.5242 120.937 31.165C120.937 30.7996 121.071 30.5054 121.337 30.2824C121.603 30.0533 122.074 29.9387 122.749 29.9387H123.594V29.1862C123.594 28.6722 123.526 28.3222 123.39 28.1364C123.26 27.9444 123.077 27.8485 122.842 27.8485C122.687 27.8485 122.545 27.8887 122.415 27.9692C122.285 28.0435 122.192 28.186 122.136 28.3966C122.086 28.6009 122.096 28.8982 122.164 29.2884L121.142 29.1398C121.092 28.8549 121.123 28.5917 121.235 28.3501C121.352 28.1024 121.548 27.9042 121.82 27.7556C122.093 27.6007 122.439 27.5233 122.86 27.5233C123.337 27.5233 123.706 27.6007 123.966 27.7556C124.226 27.9104 124.406 28.1148 124.505 28.3687C124.61 28.6226 124.663 28.8951 124.663 29.1862V31.3322C124.663 31.6481 124.691 31.8462 124.746 31.9268C124.802 32.0073 124.864 32.0475 124.932 32.0475C125.044 32.0475 125.168 31.9825 125.304 31.8524L125.471 32.094ZM122.619 31.9268C122.78 31.9268 122.938 31.8865 123.093 31.806C123.254 31.7193 123.421 31.5614 123.594 31.3322V30.2639H122.898C122.594 30.2639 122.374 30.3351 122.238 30.4775C122.102 30.62 122.034 30.8429 122.034 31.1464C122.034 31.3941 122.083 31.5861 122.182 31.7224C122.281 31.8586 122.427 31.9268 122.619 31.9268Z" fill="white"/>
<path d="M104.635 4.35561C104.635 1.95094 106.541 -1.66893e-05 108.945 -1.66893e-05H116.432C118.836 -1.66893e-05 120.742 1.95094 120.742 4.35561C120.742 5.89823 119.971 7.21399 118.791 7.9853C119.971 8.80198 120.742 10.1177 120.742 11.6604C120.742 14.0197 118.836 15.9706 116.432 15.9706H116.341C115.207 15.9706 114.163 15.5623 113.392 14.8363V18.8744C113.392 21.279 111.395 23.23 108.991 23.23C106.586 23.23 104.635 21.3244 104.635 18.9197C104.635 17.3771 105.407 16.0614 106.586 15.29C105.407 14.4734 104.635 13.1576 104.635 11.6604C104.635 10.1177 105.407 8.80198 106.586 7.9853C105.407 7.21399 104.635 5.89823 104.635 4.35561ZM111.985 8.71123H108.945C107.357 8.71123 106.042 10.027 106.042 11.6604C106.042 13.2483 107.312 14.5641 108.945 14.5641H111.985V8.71123ZM113.392 11.6604C113.392 13.2483 114.708 14.5641 116.341 14.5641H116.432C118.02 14.5641 119.335 13.2483 119.335 11.6604C119.335 10.027 118.02 8.71123 116.432 8.71123H116.341C114.708 8.71123 113.392 10.027 113.392 11.6604ZM108.945 15.9706C107.312 16.016 106.042 17.2864 106.042 18.9197C106.042 20.5077 107.357 21.8235 108.991 21.8235C110.624 21.8235 111.985 20.5077 111.985 18.8744V15.9706H108.945ZM108.945 1.45186C107.357 1.45186 106.042 2.76762 106.042 4.35561C106.042 5.98897 107.357 7.30473 108.945 7.30473H111.985V1.45186H108.945ZM113.392 7.30473H116.432C118.02 7.30473 119.335 5.98897 119.335 4.35561C119.335 2.76762 118.02 1.45186 116.432 1.45186H113.392V7.30473Z" fill="white"/>
<path d="M194.111 26.009H199.221V27.6069H198.961L198.664 26.5757C198.645 26.4952 198.623 26.4395 198.599 26.4085C198.58 26.3713 198.54 26.3497 198.478 26.3435C198.416 26.3373 198.311 26.3342 198.162 26.3342H197.224V31.5459C197.224 31.7564 197.233 31.8834 197.252 31.9268C197.27 31.9639 197.329 31.9887 197.428 32.0011L197.939 32.0661V32.3262H195.394V32.0661L195.904 32.0011C196.004 31.9887 196.062 31.9639 196.081 31.9268C196.1 31.8834 196.109 31.7564 196.109 31.5459V26.3342H195.171C195.028 26.3342 194.923 26.3373 194.855 26.3435C194.793 26.3497 194.752 26.3713 194.734 26.4085C194.715 26.4395 194.694 26.4952 194.669 26.5757L194.372 27.6069H194.111V26.009ZM199.548 27.8763V27.6162H201.276V28.378C201.654 27.8082 202.103 27.5233 202.623 27.5233C202.815 27.5233 203.001 27.5852 203.181 27.7091C203.36 27.8268 203.509 28.0497 203.626 28.378L202.8 28.8239C202.713 28.57 202.611 28.3997 202.493 28.313C202.382 28.2201 202.261 28.1736 202.131 28.1736C201.995 28.1736 201.861 28.217 201.731 28.3037C201.601 28.3904 201.468 28.5514 201.332 28.7867V31.5459C201.332 31.7564 201.341 31.8834 201.36 31.9268C201.378 31.9639 201.437 31.9887 201.536 32.0011L202.233 32.0661V32.3262H199.548V32.0661L200.059 32.0011C200.158 31.9887 200.217 31.9639 200.236 31.9268C200.254 31.8834 200.263 31.7564 200.263 31.5459V28.3966C200.263 28.186 200.254 28.0621 200.236 28.025C200.217 27.9816 200.158 27.9537 200.059 27.9414L199.548 27.8763ZM207.893 31.2207C207.782 31.6543 207.574 31.9639 207.271 32.1497C206.967 32.3293 206.614 32.4191 206.212 32.4191C205.468 32.4191 204.911 32.2055 204.539 31.7781C204.168 31.3446 203.982 30.7717 203.982 30.0595V29.8737C203.982 29.1614 204.155 28.5917 204.502 28.1643C204.855 27.737 205.363 27.5233 206.026 27.5233C206.397 27.5233 206.726 27.5976 207.01 27.7463C207.302 27.8887 207.528 28.0962 207.689 28.3687C207.856 28.6412 207.939 28.9725 207.939 29.3627C207.939 29.4556 207.933 29.5547 207.921 29.66C207.915 29.7653 207.899 29.8706 207.874 29.9759H205.125V30.2453C205.125 30.9018 205.218 31.3756 205.403 31.6666C205.589 31.9515 205.89 32.094 206.304 32.094C206.571 32.094 206.797 32.0166 206.983 31.8617C207.168 31.7007 207.274 31.4313 207.298 31.0535L207.893 31.2207ZM206.026 27.8485C205.722 27.8485 205.496 27.9878 205.348 28.2665C205.199 28.5452 205.125 29.0066 205.125 29.6507H206.806C206.831 29.5268 206.846 29.4123 206.853 29.307C206.865 29.1955 206.871 29.0933 206.871 29.0004C206.871 28.604 206.794 28.313 206.639 28.1272C206.484 27.9414 206.28 27.8485 206.026 27.8485ZM208.555 25.7118V25.4516H210.339V31.5459C210.339 31.7564 210.348 31.8834 210.367 31.9268C210.386 31.9639 210.444 31.9887 210.543 32.0011L211.054 32.0661V32.3262H208.555V32.0661L209.066 32.0011C209.165 31.9887 209.224 31.9639 209.243 31.9268C209.261 31.8834 209.271 31.7564 209.271 31.5459V26.232C209.271 26.0214 209.261 25.8976 209.243 25.8604C209.224 25.817 209.165 25.7892 209.066 25.7768L208.555 25.7118ZM211.35 25.7118V25.4516H213.133V31.5459C213.133 31.7564 213.143 31.8834 213.161 31.9268C213.18 31.9639 213.239 31.9887 213.338 32.0011L213.849 32.0661V32.3262H211.35V32.0661L211.861 32.0011C211.96 31.9887 212.019 31.9639 212.037 31.9268C212.056 31.8834 212.065 31.7564 212.065 31.5459V26.232C212.065 26.0214 212.056 25.8976 212.037 25.8604C212.019 25.817 211.96 25.7892 211.861 25.7768L211.35 25.7118ZM218.733 29.8737V30.0595C218.733 30.7717 218.547 31.3446 218.176 31.7781C217.81 32.2055 217.287 32.4191 216.606 32.4191C215.924 32.4191 215.398 32.2055 215.026 31.7781C214.661 31.3446 214.478 30.7717 214.478 30.0595V29.8737C214.478 29.1614 214.661 28.5917 215.026 28.1643C215.398 27.737 215.924 27.5233 216.606 27.5233C217.287 27.5233 217.81 27.737 218.176 28.1643C218.547 28.5917 218.733 29.1614 218.733 29.8737ZM217.591 29.6879C217.591 29.0252 217.507 28.5545 217.34 28.2758C217.172 27.9909 216.928 27.8485 216.606 27.8485C216.29 27.8485 216.045 27.9909 215.872 28.2758C215.705 28.5545 215.621 29.0252 215.621 29.6879V30.2453C215.621 30.9018 215.705 31.3756 215.872 31.6666C216.045 31.9515 216.29 32.094 216.606 32.094C216.928 32.094 217.172 31.9515 217.34 31.6666C217.507 31.3756 217.591 30.9018 217.591 30.2453V29.6879Z" fill="white"/>
<path d="M213.312 3.07623C214.523 3.1153 215.5 4.09186 215.461 5.26373V18.3887C215.461 19.5997 214.523 20.5762 213.312 20.5762H200.188C198.977 20.5762 198 19.5997 198 18.3887C198 5.10748 197.961 5.26373 198 5.26373C198 4.09186 198.977 3.07623 200.188 3.07623H213.312ZM205.695 16.3575V6.43561C205.695 5.84967 205.227 5.38092 204.641 5.38092H201.398C200.812 5.38092 200.344 5.84967 200.344 6.43561V16.3575C200.344 16.9434 200.812 17.3731 201.398 17.3731H204.641C205.188 17.3731 205.656 16.9044 205.695 16.3575ZM213.234 11.9825V6.43561C213.234 5.84967 212.766 5.38092 212.18 5.38092H209.016C208.43 5.38092 207.961 5.84967 207.961 6.43561V11.9825C207.961 12.5684 208.43 13.0372 209.016 13.0372H212.18C212.766 13.0372 213.234 12.5684 213.234 11.9825Z" fill="white"/>
<path d="M50.3537 29.725V29.4649H52.9921V29.725L52.4811 29.7901C52.382 29.8024 52.3232 29.8303 52.3046 29.8737C52.286 29.9108 52.2767 30.0347 52.2767 30.2453V32.3262H52.0259C51.8587 32.1528 51.6729 32.0073 51.4685 31.8896C51.3013 32.0382 51.1031 32.1652 50.8739 32.2705C50.6448 32.3696 50.3661 32.4191 50.0378 32.4191C49.53 32.4191 49.0933 32.2922 48.7279 32.0382C48.3687 31.7781 48.0931 31.422 47.9011 30.9699C47.7091 30.5116 47.6131 29.9913 47.6131 29.4092V28.8239C47.6131 28.2603 47.7091 27.7617 47.9011 27.3282C48.0931 26.8885 48.3749 26.5448 48.7465 26.297C49.1181 26.0431 49.5733 25.9161 50.1122 25.9161C50.62 25.9161 51.0381 26.009 51.3663 26.1948C51.7007 26.3744 51.9454 26.616 52.1002 26.9195C52.255 27.2167 52.3139 27.5419 52.2767 27.8949L51.1898 28.1643C51.2579 27.545 51.1898 27.0712 50.9854 26.7429C50.781 26.4085 50.4776 26.2413 50.075 26.2413C49.2265 26.2413 48.8023 26.9938 48.8023 28.4988V29.8272C48.8023 31.3384 49.2513 32.094 50.1493 32.094C50.3475 32.094 50.5457 32.0537 50.7439 31.9732C50.9483 31.8927 51.1186 31.775 51.2548 31.6202V30.2453C51.2548 30.0347 51.2455 29.9077 51.227 29.8644C51.2084 29.821 51.1495 29.7963 51.0504 29.7901L50.3537 29.725ZM54.6186 26.8173C54.4266 26.8173 54.2718 26.7584 54.1541 26.6408C54.0364 26.5169 53.9776 26.359 53.9776 26.167C53.9776 25.975 54.0364 25.8201 54.1541 25.7025C54.2718 25.5848 54.4266 25.526 54.6186 25.526C54.8044 25.526 54.9592 25.5848 55.0831 25.7025C55.207 25.8201 55.2689 25.975 55.2689 26.167C55.2689 26.359 55.207 26.5169 55.0831 26.6408C54.9592 26.7584 54.8044 26.8173 54.6186 26.8173ZM53.3737 27.8763V27.6162H55.1574V31.5459C55.1574 31.7564 55.1667 31.8834 55.1853 31.9268C55.2039 31.9639 55.2627 31.9887 55.3618 32.0011L55.8727 32.0661V32.3262H53.3737V32.0661L53.8847 32.0011C53.9838 31.9887 54.0426 31.9639 54.0612 31.9268C54.0798 31.8834 54.0891 31.7564 54.0891 31.5459V28.3966C54.0891 28.186 54.0798 28.0621 54.0612 28.025C54.0426 27.9816 53.9838 27.9537 53.8847 27.9414L53.3737 27.8763ZM59.5387 31.3601C59.4582 31.7379 59.3034 32.0104 59.0742 32.1776C58.8513 32.3386 58.5788 32.4191 58.2567 32.4191C57.9285 32.4191 57.6591 32.3479 57.4485 32.2055C57.2379 32.0568 57.0831 31.8617 56.984 31.6202C56.8849 31.3787 56.8354 31.1216 56.8354 30.8491V28.3966C56.8354 28.186 56.8261 28.0621 56.8075 28.025C56.7889 27.9816 56.7301 27.9537 56.631 27.9414L56.12 27.8763V27.6162H56.8354V26.5386L57.9037 26.3249V27.6162H59.3901V27.9414H57.9037V31.0349C57.9037 31.4313 57.9532 31.7069 58.0523 31.8617C58.1514 32.0104 58.2784 32.0847 58.4332 32.0847C58.5943 32.0847 58.7181 32.0228 58.8048 31.8989C58.8977 31.775 58.9566 31.549 58.9813 31.2207L59.5387 31.3601ZM66.186 32.0661V32.3262H63.6406V32.0661L64.1515 32.0011C64.2506 31.9887 64.3094 31.9639 64.328 31.9268C64.3466 31.8834 64.3559 31.7564 64.3559 31.5459V29.2977H61.9126V31.5459C61.9126 31.7564 61.9219 31.8834 61.9405 31.9268C61.9591 31.9639 62.0179 31.9887 62.117 32.0011L62.628 32.0661V32.3262H60.0825V32.0661L60.5934 32.0011C60.6925 31.9887 60.7514 31.9639 60.77 31.9268C60.7885 31.8834 60.7978 31.7564 60.7978 31.5459V26.7894C60.7978 26.5788 60.7885 26.455 60.77 26.4178C60.7514 26.3744 60.6925 26.3466 60.5934 26.3342L60.0825 26.2692V26.009H62.628V26.2692L62.117 26.3342C62.0179 26.3466 61.9591 26.3744 61.9405 26.4178C61.9219 26.455 61.9126 26.5788 61.9126 26.7894V28.9725H64.3559V26.7894C64.3559 26.5788 64.3466 26.455 64.328 26.4178C64.3094 26.3744 64.2506 26.3466 64.1515 26.3342L63.6406 26.2692V26.009H66.186V26.2692L65.6751 26.3342C65.576 26.3466 65.5171 26.3744 65.4986 26.4178C65.48 26.455 65.4707 26.5788 65.4707 26.7894V31.5459C65.4707 31.7564 65.48 31.8834 65.4986 31.9268C65.5171 31.9639 65.576 31.9887 65.6751 32.0011L66.186 32.0661ZM72.0681 32.0661V32.3262H70.3402V31.5087C70.1668 31.8246 69.9438 32.0568 69.6713 32.2055C69.3988 32.3479 69.1232 32.4191 68.8445 32.4191C68.4048 32.4191 68.0548 32.2736 67.7947 31.9825C67.5346 31.6852 67.4045 31.2734 67.4045 30.7469V28.3966C67.4045 28.186 67.3953 28.0621 67.3767 28.025C67.3581 27.9816 67.2993 27.9537 67.2002 27.9414L66.6892 27.8763V27.6162H68.4729V30.7376C68.4729 31.165 68.5317 31.4777 68.6494 31.6759C68.7733 31.8679 68.9498 31.9639 69.1789 31.9639C69.278 31.9639 69.3926 31.9391 69.5227 31.8896C69.6589 31.8339 69.7952 31.7379 69.9314 31.6016C70.0677 31.4592 70.1853 31.2579 70.2844 30.9978V28.3966C70.2844 28.186 70.2752 28.059 70.2566 28.0157C70.238 27.9723 70.1792 27.9475 70.0801 27.9414L69.3833 27.8763V27.6162H71.3528V31.5459C71.3528 31.7564 71.3621 31.8834 71.3807 31.9268C71.3992 31.9639 71.4581 31.9887 71.5572 32.0011L72.0681 32.0661ZM72.2952 25.7118V25.4516H74.0789V28.3037C74.2461 28.0435 74.4319 27.8485 74.6363 27.7184C74.8469 27.5883 75.0884 27.5233 75.3609 27.5233C75.8812 27.5233 76.293 27.7308 76.5965 28.1457C76.9062 28.5545 77.061 29.1305 77.061 29.8737V30.0595C77.061 30.7779 76.8845 31.3508 76.5315 31.7781C76.1784 32.2055 75.6892 32.4191 75.0636 32.4191C74.5868 32.4191 74.1966 32.2767 73.8931 31.9918C73.7816 32.0351 73.6732 32.0909 73.5679 32.159C73.4689 32.2209 73.3667 32.2922 73.2614 32.3727H73.0105V26.232C73.0105 26.0214 73.0013 25.8976 72.9827 25.8604C72.9641 25.817 72.9053 25.7892 72.8062 25.7768L72.2952 25.7118ZM75.1194 27.9321C74.9645 27.9321 74.8004 27.9971 74.627 28.1272C74.4598 28.251 74.2771 28.508 74.0789 28.8982V31.7038C74.3142 31.9391 74.6022 32.0568 74.9429 32.0568C75.2897 32.0568 75.5374 31.9051 75.6861 31.6016C75.8409 31.2919 75.9183 30.8708 75.9183 30.3382V29.595C75.9183 29.019 75.8471 28.5978 75.7046 28.3315C75.5622 28.0652 75.3671 27.9321 75.1194 27.9321Z" fill="white"/>
<path d="M60.4862 18.0577C60.4862 18.1484 60.3955 18.1938 60.2594 18.1938C60.1233 18.2392 60.0325 18.1484 60.0325 18.0577C60.0325 17.9669 60.1233 17.8762 60.2594 17.8762C60.3955 17.8762 60.4862 17.9669 60.4862 18.0577ZM59.0797 17.8308C59.1251 17.7401 59.2612 17.6947 59.3973 17.7401C59.5334 17.7855 59.5788 17.8762 59.5788 17.9669C59.5334 18.0577 59.3973 18.103 59.3066 18.0577C59.1705 18.0577 59.0797 17.9216 59.0797 17.8308ZM61.1214 17.7855C61.2122 17.7401 61.3483 17.8308 61.3483 17.9216C61.3937 18.0123 61.3029 18.0577 61.1668 18.103C61.0307 18.1484 60.8946 18.103 60.8946 18.0123C60.8946 17.8762 60.9853 17.7855 61.1214 17.7855ZM64.0705 0.362952C70.3771 0.362952 75.5041 5.17229 75.5041 11.4335C75.5041 16.4697 72.4188 20.7799 67.8817 22.2772C67.2919 22.4133 67.065 22.0503 67.065 21.7327C67.065 21.3698 67.1104 19.4642 67.1104 17.9669C67.1104 16.878 66.7474 16.1975 66.3391 15.8345C68.8799 15.5623 71.5568 15.1993 71.5568 10.8437C71.5568 9.57328 71.1031 8.98346 70.3771 8.16678C70.4679 7.84918 70.8762 6.66953 70.241 5.08155C69.2882 4.76395 67.1104 6.30657 67.1104 6.30657C66.203 6.03434 65.2502 5.9436 64.252 5.9436C63.2992 5.9436 62.3464 6.03434 61.439 6.30657C61.439 6.30657 59.2158 4.80932 58.3084 5.08155C57.6732 6.66953 58.0362 7.84918 58.1723 8.16678C57.4464 8.98346 57.0834 9.57328 57.0834 10.8437C57.0834 15.1993 59.6696 15.5623 62.2103 15.8345C61.8474 16.1521 61.5751 16.6512 61.4844 17.3771C60.8038 17.6947 59.1705 18.1938 58.1723 16.4243C57.5371 15.3354 56.4028 15.2447 56.4028 15.2447C55.3139 15.2447 56.3575 15.9706 56.3575 15.9706C57.0834 16.2882 57.5825 17.604 57.5825 17.604C58.263 19.6457 61.439 18.9651 61.439 18.9651C61.439 19.9179 61.439 21.4605 61.439 21.7781C61.439 22.0503 61.2575 22.4133 60.6677 22.3226C56.1306 20.7799 53 16.4697 53 11.4335C53 5.17229 57.8093 0.362952 64.0705 0.362952ZM57.401 16.016C57.4464 15.9706 57.5371 16.016 57.6279 16.0614C57.7186 16.1521 57.7186 16.2882 57.6732 16.3336C57.5825 16.3789 57.4917 16.3336 57.401 16.2882C57.3556 16.1975 57.3103 16.0614 57.401 16.016ZM56.9019 15.653C56.9473 15.6076 56.9927 15.6076 57.0834 15.653C57.1741 15.6984 57.2195 15.7438 57.2195 15.7891C57.1741 15.8799 57.0834 15.8799 56.9927 15.8345C56.9019 15.7891 56.8565 15.7438 56.9019 15.653ZM58.3538 17.2864C58.4445 17.1956 58.5806 17.241 58.6714 17.3317C58.7621 17.4225 58.7621 17.5586 58.7168 17.604C58.6714 17.6947 58.5353 17.6493 58.4445 17.5586C58.3084 17.4679 58.3084 17.3317 58.3538 17.2864ZM57.8547 16.6058C57.9454 16.5604 58.0362 16.6058 58.1269 16.6965C58.1723 16.7873 58.1723 16.9234 58.1269 16.9688C58.0362 17.0141 57.9454 16.9688 57.8547 16.878C57.764 16.7873 57.764 16.6512 57.8547 16.6058Z" fill="white"/>
<path d="M4.31985 26.2692V26.009H6.12211V26.2692L5.61116 26.3342C5.51207 26.3466 5.45323 26.3744 5.43465 26.4178C5.41607 26.455 5.40678 26.5788 5.40678 26.7894V32.3262H4.89583L1.4864 26.8173V31.5459C1.4864 31.7564 1.49569 31.8834 1.51427 31.9268C1.53285 31.9639 1.59169 31.9887 1.69078 32.0011L2.20173 32.0661V32.3262H0.39947V32.0661L0.91042 32.0011C1.00951 31.9887 1.06835 31.9639 1.08693 31.9268C1.10551 31.8834 1.1148 31.7564 1.1148 31.5459V26.7894C1.1148 26.5788 1.10551 26.455 1.08693 26.4178C1.06835 26.3744 1.00951 26.3466 0.91042 26.3342L0.39947 26.2692V26.009H2.26676L5.03518 30.4589V26.7894C5.03518 26.5788 5.02589 26.455 5.00731 26.4178C4.98873 26.3744 4.92989 26.3466 4.8308 26.3342L4.31985 26.2692ZM10.9796 29.8737V30.0595C10.9796 30.7717 10.7938 31.3446 10.4222 31.7781C10.0568 32.2055 9.53348 32.4191 8.85221 32.4191C8.17094 32.4191 7.64451 32.2055 7.27291 31.7781C6.9075 31.3446 6.7248 30.7717 6.7248 30.0595V29.8737C6.7248 29.1614 6.9075 28.5917 7.27291 28.1643C7.64451 27.737 8.17094 27.5233 8.85221 27.5233C9.53348 27.5233 10.0568 27.737 10.4222 28.1643C10.7938 28.5917 10.9796 29.1614 10.9796 29.8737ZM9.83695 29.6879C9.83695 29.0252 9.75334 28.5545 9.58612 28.2758C9.4189 27.9909 9.17426 27.8485 8.85221 27.8485C8.53635 27.8485 8.29171 27.9909 8.1183 28.2758C7.95108 28.5545 7.86747 29.0252 7.86747 29.6879V30.2453C7.86747 30.9018 7.95108 31.3756 8.1183 31.6666C8.29171 31.9515 8.53635 32.094 8.85221 32.094C9.17426 32.094 9.4189 31.9515 9.58612 31.6666C9.75334 31.3756 9.83695 30.9018 9.83695 30.2453V29.6879ZM16.7443 32.0661V32.3262H15.0163V31.5552C14.8429 31.8401 14.6478 32.0568 14.4311 32.2055C14.2205 32.3479 13.9697 32.4191 13.6786 32.4191C13.1583 32.4191 12.7434 32.2148 12.4337 31.806C12.1302 31.391 11.9785 30.812 11.9785 30.0688V29.883C11.9785 29.1645 12.155 28.5917 12.508 28.1643C12.8673 27.737 13.3565 27.5233 13.9759 27.5233C14.3475 27.5233 14.6757 27.6162 14.9606 27.802V26.232C14.9606 26.0214 14.9513 25.8976 14.9327 25.8604C14.9142 25.817 14.8553 25.7892 14.7562 25.7768L14.2453 25.7118V25.4516H16.029V31.5459C16.029 31.7564 16.0382 31.8834 16.0568 31.9268C16.0754 31.9639 16.1342 31.9887 16.2333 32.0011L16.7443 32.0661ZM13.1212 30.3475C13.1212 30.9234 13.1924 31.3446 13.3349 31.6109C13.4773 31.8772 13.6724 32.0104 13.9201 32.0104C14.075 32.0104 14.236 31.9484 14.4032 31.8246C14.5766 31.6945 14.7624 31.4344 14.9606 31.0442V28.2386C14.7253 28.0033 14.4373 27.8856 14.0966 27.8856C13.756 27.8856 13.5083 28.0404 13.3534 28.3501C13.1986 28.6536 13.1212 29.0716 13.1212 29.6043V30.3475ZM21.296 31.2207C21.1845 31.6543 20.9771 31.9639 20.6736 32.1497C20.3701 32.3293 20.0171 32.4191 19.6145 32.4191C18.8713 32.4191 18.3139 32.2055 17.9423 31.7781C17.5707 31.3446 17.3849 30.7717 17.3849 30.0595V29.8737C17.3849 29.1614 17.5583 28.5917 17.9052 28.1643C18.2582 27.737 18.766 27.5233 19.4287 27.5233C19.8003 27.5233 20.1286 27.5976 20.4135 27.7463C20.7046 27.8887 20.9306 28.0962 21.0916 28.3687C21.2589 28.6412 21.3425 28.9725 21.3425 29.3627C21.3425 29.4556 21.3363 29.5547 21.3239 29.66C21.3177 29.7653 21.3022 29.8706 21.2774 29.9759H18.5276V30.2453C18.5276 30.9018 18.6205 31.3756 18.8063 31.6666C18.9921 31.9515 19.2925 32.094 19.7074 32.094C19.9737 32.094 20.1998 32.0166 20.3856 31.8617C20.5714 31.7007 20.6767 31.4313 20.7015 31.0535L21.296 31.2207ZM19.4287 27.8485C19.1253 27.8485 18.8992 27.9878 18.7506 28.2665C18.6019 28.5452 18.5276 29.0066 18.5276 29.6507H20.2091C20.2339 29.5268 20.2493 29.4123 20.2555 29.307C20.2679 29.1955 20.2741 29.0933 20.2741 29.0004C20.2741 28.604 20.1967 28.313 20.0419 28.1272C19.887 27.9414 19.6827 27.8485 19.4287 27.8485ZM22.9896 32.4191C22.7976 32.4191 22.6396 32.3603 22.5158 32.2426C22.3981 32.1188 22.3393 31.9577 22.3393 31.7595C22.3393 31.5614 22.3981 31.4034 22.5158 31.2858C22.6396 31.1681 22.7976 31.1092 22.9896 31.1092C23.1816 31.1092 23.3395 31.1681 23.4633 31.2858C23.5872 31.4034 23.6491 31.5614 23.6491 31.7595C23.6491 31.9577 23.5872 32.1188 23.4633 32.2426C23.3395 32.3603 23.1816 32.4191 22.9896 32.4191ZM25.5711 26.8173C25.3791 26.8173 25.2243 26.7584 25.1066 26.6408C24.9889 26.5169 24.9301 26.359 24.9301 26.167C24.9301 25.975 24.9889 25.8201 25.1066 25.7025C25.2243 25.5848 25.3791 25.526 25.5711 25.526C25.7569 25.526 25.9117 25.5848 26.0356 25.7025C26.1595 25.8201 26.2214 25.975 26.2214 26.167C26.2214 26.359 26.1595 26.5169 26.0356 26.6408C25.9117 26.7584 25.7569 26.8173 25.5711 26.8173ZM24.3262 27.8763V27.6162H26.1099V32.6421C26.1099 32.9518 26.0573 33.2397 25.952 33.5061C25.8467 33.7724 25.6764 33.986 25.441 34.1471C25.2057 34.3143 24.8929 34.3979 24.5027 34.3979C24.1621 34.3979 23.871 34.3112 23.6295 34.1378C23.3879 33.9644 23.2393 33.6702 23.1836 33.2552L23.7595 33.0787C23.7905 33.4751 23.8648 33.7383 23.9825 33.8684C24.1002 34.0046 24.2364 34.0728 24.3913 34.0728C24.5956 34.0728 24.7536 33.9829 24.865 33.8033C24.9827 33.6237 25.0416 33.2986 25.0416 32.8279V28.3966C25.0416 28.186 25.0323 28.0621 25.0137 28.025C24.9951 27.9816 24.9363 27.9537 24.8372 27.9414L24.3262 27.8763ZM29.2311 30.5704L28.59 30.4218C28.1751 30.3227 27.8654 30.1462 27.661 29.8923C27.4629 29.6321 27.3638 29.3256 27.3638 28.9725C27.3638 28.7124 27.4195 28.474 27.531 28.2572C27.6487 28.0343 27.8314 27.8577 28.0791 27.7277C28.3268 27.5914 28.6489 27.5233 29.0453 27.5233C29.4726 27.5233 29.8194 27.5914 30.0857 27.7277C30.3521 27.8639 30.5409 28.0435 30.6524 28.2665C30.7639 28.4895 30.798 28.7279 30.7546 28.9818L29.7327 29.1676C29.8194 28.7465 29.7947 28.4213 29.6584 28.1922C29.5283 27.963 29.3085 27.8485 28.9988 27.8485C28.782 27.8485 28.6024 27.9135 28.46 28.0435C28.3175 28.1674 28.2463 28.347 28.2463 28.5824C28.2463 28.7991 28.3083 28.9911 28.4321 29.1583C28.556 29.3194 28.7387 29.4278 28.9802 29.4835L29.6212 29.6321C30.0795 29.7374 30.4109 29.9046 30.6153 30.1338C30.8196 30.3568 30.9218 30.6355 30.9218 30.9699C30.9218 31.3848 30.767 31.7317 30.4573 32.0104C30.1539 32.2829 29.6987 32.4191 29.0917 32.4191C28.8811 32.4191 28.6489 32.3882 28.395 32.3262C28.1472 32.2581 27.9181 32.1373 27.7075 31.9639C27.5031 31.7905 27.3545 31.5428 27.2616 31.2207L27.8654 30.9792C27.9088 31.3879 28.0481 31.6759 28.2835 31.8432C28.525 32.0104 28.7944 32.094 29.0917 32.094C29.3704 32.094 29.5965 32.032 29.7699 31.9082C29.9495 31.7781 30.0393 31.5923 30.0393 31.3508C30.0393 31.1836 29.9805 31.0318 29.8628 30.8956C29.7513 30.7531 29.5407 30.6447 29.2311 30.5704Z" fill="white"/>
<path d="M16.1631 23.0485C15.8455 23.0485 15.5279 23.0031 15.2557 22.8216L12.4427 21.1883C12.0344 20.9614 12.2612 20.8707 12.3973 20.8253C12.9418 20.5985 13.0779 20.5985 13.6677 20.2355C13.7131 20.1901 13.8038 20.2355 13.8492 20.2355L16.027 21.5513C16.0724 21.5966 16.2085 21.5966 16.2539 21.5513L24.6475 16.6965C24.7383 16.6512 24.7836 16.5604 24.7836 16.4697V6.80565C24.7836 6.71491 24.7383 6.62416 24.6475 6.57879L16.2539 1.72408C16.2085 1.67871 16.0724 1.67871 16.027 1.72408L7.63336 6.57879C7.54262 6.62416 7.49725 6.71491 7.49725 6.80565V16.4697C7.49725 16.5604 7.54262 16.6512 7.63336 16.6965L9.94729 18.0123C11.1723 18.6475 11.9436 17.9216 11.9436 17.1503V7.62233C11.9436 7.48621 12.0344 7.39547 12.1705 7.39547H13.2594C13.3955 7.39547 13.4862 7.48621 13.4862 7.62233V17.1503C13.4862 18.829 12.5788 19.7818 11.0362 19.7818C10.5371 19.7818 10.1288 19.7818 9.08523 19.2373L6.90742 18.0123C6.36297 17.6947 6 17.1049 6 16.4697V6.80565C6 6.17045 6.36297 5.58063 6.90742 5.26303L15.2557 0.408323C15.8002 0.136097 16.4807 0.136097 17.0252 0.408323L25.4188 5.26303C25.9633 5.58063 26.2809 6.17045 26.2809 6.80565V16.4697C26.2809 17.1049 25.9633 17.6947 25.4188 18.0123L17.0252 22.8216C16.7529 23.0031 16.4354 23.0485 16.1631 23.0485ZM22.9234 13.5206C22.9234 15.3808 21.3808 16.4243 18.7493 16.4243C15.0742 16.4243 14.3029 14.7456 14.3029 13.3391C14.3029 13.203 14.3937 13.0669 14.5298 13.0669H15.6187C15.7548 13.0669 15.8455 13.1576 15.8455 13.2937C16.027 14.3826 16.5261 14.9271 18.7493 14.9271C20.4734 14.9271 21.2447 14.5641 21.2447 13.6113C21.2447 13.0669 21.0178 12.6585 18.2956 12.3863C15.9816 12.1594 14.5751 11.6604 14.5751 9.84551C14.5751 8.12141 15.9816 7.12324 18.3863 7.12324C21.0632 7.12324 22.4243 8.07604 22.5604 10.0724C22.5604 10.1177 22.5604 10.2085 22.5151 10.2539C22.4697 10.2992 22.4243 10.3446 22.3336 10.3446H21.2447C21.1539 10.3446 21.0178 10.2539 21.0178 10.1177C20.7456 8.98346 20.1104 8.62049 18.3863 8.62049C16.4807 8.62049 16.2539 9.25569 16.2539 9.75477C16.2539 10.39 16.5261 10.5714 19.1122 10.889C21.6984 11.252 22.9234 11.7057 22.9234 13.5206Z" fill="white"/>
<path d="M154.354 29.725V29.4649H156.992V29.725L156.481 29.7901C156.382 29.8024 156.323 29.8303 156.305 29.8737C156.286 29.9108 156.277 30.0347 156.277 30.2453V32.3262H156.026C155.859 32.1528 155.673 32.0073 155.468 31.8896C155.301 32.0382 155.103 32.1652 154.874 32.2705C154.645 32.3696 154.366 32.4191 154.038 32.4191C153.53 32.4191 153.093 32.2922 152.728 32.0382C152.369 31.7781 152.093 31.422 151.901 30.9699C151.709 30.5116 151.613 29.9913 151.613 29.4092V28.8239C151.613 28.2603 151.709 27.7617 151.901 27.3282C152.093 26.8885 152.375 26.5448 152.747 26.297C153.118 26.0431 153.573 25.9161 154.112 25.9161C154.62 25.9161 155.038 26.009 155.366 26.1948C155.701 26.3744 155.945 26.616 156.1 26.9195C156.255 27.2167 156.314 27.5419 156.277 27.8949L155.19 28.1643C155.258 27.545 155.19 27.0712 154.985 26.7429C154.781 26.4085 154.478 26.2413 154.075 26.2413C153.227 26.2413 152.802 26.9938 152.802 28.4988V29.8272C152.802 31.3384 153.251 32.094 154.149 32.094C154.347 32.094 154.546 32.0537 154.744 31.9732C154.948 31.8927 155.119 31.775 155.255 31.6202V30.2453C155.255 30.0347 155.246 29.9077 155.227 29.8644C155.208 29.821 155.15 29.7963 155.05 29.7901L154.354 29.725ZM158.619 26.8173C158.427 26.8173 158.272 26.7584 158.154 26.6408C158.036 26.5169 157.978 26.359 157.978 26.167C157.978 25.975 158.036 25.8201 158.154 25.7025C158.272 25.5848 158.427 25.526 158.619 25.526C158.804 25.526 158.959 25.5848 159.083 25.7025C159.207 25.8201 159.269 25.975 159.269 26.167C159.269 26.359 159.207 26.5169 159.083 26.6408C158.959 26.7584 158.804 26.8173 158.619 26.8173ZM157.374 27.8763V27.6162H159.157V31.5459C159.157 31.7564 159.167 31.8834 159.185 31.9268C159.204 31.9639 159.263 31.9887 159.362 32.0011L159.873 32.0661V32.3262H157.374V32.0661L157.885 32.0011C157.984 31.9887 158.043 31.9639 158.061 31.9268C158.08 31.8834 158.089 31.7564 158.089 31.5459V28.3966C158.089 28.186 158.08 28.0621 158.061 28.025C158.043 27.9816 157.984 27.9537 157.885 27.9414L157.374 27.8763ZM163.539 31.3601C163.458 31.7379 163.303 32.0104 163.074 32.1776C162.851 32.3386 162.579 32.4191 162.257 32.4191C161.928 32.4191 161.659 32.3479 161.448 32.2055C161.238 32.0568 161.083 31.8617 160.984 31.6202C160.885 31.3787 160.835 31.1216 160.835 30.8491V28.3966C160.835 28.186 160.826 28.0621 160.807 28.025C160.789 27.9816 160.73 27.9537 160.631 27.9414L160.12 27.8763V27.6162H160.835V26.5386L161.904 26.3249V27.6162H163.39V27.9414H161.904V31.0349C161.904 31.4313 161.953 31.7069 162.052 31.8617C162.151 32.0104 162.278 32.0847 162.433 32.0847C162.594 32.0847 162.718 32.0228 162.805 31.8989C162.898 31.775 162.957 31.549 162.981 31.2207L163.539 31.3601Z" fill="white"/>
<g clip-path="url(#clip0_123_469)">
<path d="M169.448 10.4349L159.458 1.70368C159.321 1.58406 159.159 1.48916 158.98 1.42442C158.802 1.35968 158.61 1.32635 158.416 1.32635C158.223 1.32635 158.031 1.35968 157.853 1.42442C157.674 1.48916 157.512 1.58406 157.375 1.70368L155.301 3.51618L157.932 5.81618C158.243 5.72357 158.577 5.70908 158.896 5.77437C159.215 5.83966 159.507 5.98209 159.738 6.18542C159.969 6.38875 160.13 6.64478 160.203 6.92429C160.276 7.2038 160.257 7.49553 160.149 7.76618L162.684 9.98368C163.059 9.86823 163.468 9.86788 163.844 9.98269C164.219 10.0975 164.539 10.3206 164.749 10.6153C164.96 10.91 165.05 11.2587 165.004 11.604C164.958 11.9493 164.779 12.2705 164.496 12.5149C164.21 12.7667 163.832 12.9238 163.428 12.9594C163.024 12.995 162.618 12.9068 162.281 12.7099C161.943 12.5131 161.693 12.2197 161.575 11.88C161.457 11.5403 161.478 11.1754 161.633 10.8474L159.269 8.77993V14.2212C159.629 14.3766 159.916 14.6351 160.084 14.9533C160.252 15.2716 160.29 15.6306 160.191 15.9703C160.093 16.3101 159.865 16.6101 159.544 16.8204C159.223 17.0308 158.83 17.1387 158.429 17.1261C158.028 17.1136 157.645 16.9815 157.342 16.7517C157.039 16.5219 156.836 16.2084 156.766 15.8634C156.695 15.5184 156.763 15.1627 156.956 14.8557C157.149 14.5487 157.457 14.3088 157.828 14.1762V8.68493C157.614 8.60825 157.419 8.49528 157.255 8.35255C157.092 8.20981 156.962 8.04013 156.873 7.85328C156.785 7.66643 156.739 7.46612 156.74 7.26388C156.74 7.06164 156.786 6.86147 156.876 6.67493L154.283 4.40743L147.433 10.3949C147.297 10.5145 147.188 10.6565 147.114 10.8127C147.04 10.969 147.002 11.1364 147.002 11.3056C147.002 11.4747 147.04 11.6422 147.114 11.7984C147.188 11.9547 147.297 12.0966 147.433 12.2162L157.423 20.9487C157.56 21.0683 157.723 21.1632 157.901 21.2279C158.08 21.2927 158.272 21.326 158.465 21.326C158.659 21.326 158.85 21.2927 159.029 21.2279C159.208 21.1632 159.37 21.0683 159.507 20.9487L169.45 12.2574C169.586 12.1379 169.695 11.9959 169.769 11.8397C169.843 11.6834 169.881 11.5159 169.881 11.3468C169.881 11.1777 169.843 11.0102 169.769 10.854C169.695 10.6977 169.586 10.5557 169.45 10.4362" fill="white"/>
</g>
<defs>
<clipPath id="clip0_123_469">
<rect width="22.88" height="20" fill="white" transform="translate(147 1.32623)"/>
</clipPath>
</defs>
</svg>
