<svg width="75" height="31" viewBox="0 0 75 31" fill="none" xmlns="http://www.w3.org/2000/svg">
<path d="M6.503 30.6141V30.8743H3.95754V30.6141L4.46849 30.5491C4.56758 30.5367 4.62642 30.512 4.645 30.4748C4.66358 30.4314 4.67287 30.3045 4.67287 30.0939V27.8457H2.2296V30.0939C2.2296 30.3045 2.23889 30.4314 2.25747 30.4748C2.27605 30.512 2.33489 30.5367 2.43398 30.5491L2.94493 30.6141V30.8743H0.39947V30.6141L0.91042 30.5491C1.00951 30.5367 1.06835 30.512 1.08693 30.4748C1.10551 30.4314 1.1148 30.3045 1.1148 30.0939V25.3374C1.1148 25.1269 1.10551 25.003 1.08693 24.9658C1.06835 24.9225 1.00951 24.8946 0.91042 24.8822L0.39947 24.8172V24.5571H2.94493V24.8172L2.43398 24.8822C2.33489 24.8946 2.27605 24.9225 2.25747 24.9658C2.23889 25.003 2.2296 25.1269 2.2296 25.3374V27.5206H4.67287V25.3374C4.67287 25.1269 4.66358 25.003 4.645 24.9658C4.62642 24.9225 4.56758 24.8946 4.46849 24.8822L3.95754 24.8172V24.5571H6.503V24.8172L5.99205 24.8822C5.89296 24.8946 5.83412 24.9225 5.81554 24.9658C5.79696 25.003 5.78767 25.1269 5.78767 25.3374V30.0939C5.78767 30.3045 5.79696 30.4314 5.81554 30.4748C5.83412 30.512 5.89296 30.5367 5.99205 30.5491L6.503 30.6141ZM10.4249 29.9081C10.3444 30.2859 10.1896 30.5584 9.9604 30.7256C9.73744 30.8867 9.46494 30.9672 9.14288 30.9672C8.81464 30.9672 8.54523 30.8959 8.33465 30.7535C8.12408 30.6049 7.96925 30.4098 7.87015 30.1682C7.77106 29.9267 7.72151 29.6697 7.72151 29.3972V26.9446C7.72151 26.734 7.71222 26.6102 7.69364 26.573C7.67506 26.5296 7.61623 26.5018 7.51713 26.4894L7.00618 26.4244V26.1642H7.72151V25.0866L8.78986 24.8729V26.1642H10.2763V26.4894H8.78986V29.583C8.78986 29.9793 8.83941 30.2549 8.9385 30.4098C9.0376 30.5584 9.16456 30.6327 9.31939 30.6327C9.48042 30.6327 9.60429 30.5708 9.69099 30.4469C9.78389 30.3231 9.84273 30.097 9.8675 29.7688L10.4249 29.9081ZM16.1618 30.6141V30.8743H13.6628V30.6141L14.1737 30.5491C14.2728 30.5367 14.3316 30.512 14.3502 30.4748C14.3688 30.4314 14.3781 30.3045 14.3781 30.0939V27.7528C14.3781 27.3255 14.3193 27.0158 14.2016 26.8238C14.0839 26.6256 13.9074 26.5265 13.672 26.5265C13.573 26.5265 13.4553 26.5544 13.319 26.6102C13.1828 26.6597 13.0465 26.7526 12.9103 26.8889C12.7802 27.0251 12.6656 27.2264 12.5665 27.4927V30.0939C12.5665 30.3045 12.5758 30.4314 12.5944 30.4748C12.613 30.512 12.6718 30.5367 12.7709 30.5491L13.2819 30.6141V30.8743H10.7829V30.6141L11.2938 30.5491C11.3929 30.5367 11.4517 30.512 11.4703 30.4748C11.4889 30.4314 11.4982 30.3045 11.4982 30.0939V26.9446C11.4982 26.734 11.4889 26.6102 11.4703 26.573C11.4517 26.5296 11.3929 26.5018 11.2938 26.4894L10.7829 26.4244V26.1642H12.5108V26.9818C12.6842 26.6659 12.9072 26.4367 13.1797 26.2943C13.4522 26.1457 13.7278 26.0713 14.0065 26.0713C14.3409 26.0713 14.6227 26.158 14.8519 26.3315C15.0872 26.4987 15.2544 26.7402 15.3535 27.0561C15.5208 26.7093 15.7468 26.4584 16.0317 26.3036C16.3166 26.1488 16.6015 26.0713 16.8864 26.0713C17.3261 26.0713 17.676 26.2169 17.9362 26.508C18.1963 26.7991 18.3263 27.2109 18.3263 27.7435V30.0939C18.3263 30.3045 18.3356 30.4314 18.3542 30.4748C18.3728 30.512 18.4316 30.5367 18.5307 30.5491L19.0417 30.6141V30.8743H16.5427V30.6141L17.0536 30.5491C17.1527 30.5367 17.2115 30.512 17.2301 30.4748C17.2487 30.4314 17.258 30.3045 17.258 30.0939V27.7528C17.258 27.3255 17.1992 27.0158 17.0815 26.8238C16.9638 26.6256 16.7873 26.5265 16.5519 26.5265C16.4529 26.5265 16.3352 26.5544 16.1989 26.6102C16.0627 26.6597 15.9264 26.7557 15.7902 26.8981C15.6539 27.0406 15.5362 27.2481 15.4371 27.5206C15.4433 27.5515 15.4464 27.5887 15.4464 27.6321C15.4464 27.6692 15.4464 27.7064 15.4464 27.7435V30.0939C15.4464 30.3045 15.4557 30.4314 15.4743 30.4748C15.4929 30.512 15.5517 30.5367 15.6508 30.5491L16.1618 30.6141ZM19.2911 24.2598V23.9997H21.0748V30.0939C21.0748 30.3045 21.0841 30.4314 21.1027 30.4748C21.1213 30.512 21.1801 30.5367 21.2792 30.5491L21.7901 30.6141V30.8743H19.2911V30.6141L19.8021 30.5491C19.9012 30.5367 19.96 30.512 19.9786 30.4748C19.9972 30.4314 20.0065 30.3045 20.0065 30.0939V24.78C20.0065 24.5695 19.9972 24.4456 19.9786 24.4084C19.96 24.3651 19.9012 24.3372 19.8021 24.3248L19.2911 24.2598ZM25.7271 23.7488H25.9872V25.5232H23.0237L22.9215 27.3162C23.0887 27.1985 23.2807 27.1087 23.4975 27.0468C23.7204 26.9787 23.9558 26.9446 24.2035 26.9446C24.6246 26.9446 24.9901 27.0251 25.2997 27.1861C25.6156 27.3472 25.8602 27.5732 26.0336 27.8643C26.207 28.1554 26.2937 28.5022 26.2937 28.9048C26.2937 29.2702 26.2225 29.6108 26.0801 29.9267C25.9376 30.2364 25.7054 30.4872 25.3833 30.6792C25.0675 30.8712 24.6494 30.9672 24.1292 30.9672C23.6585 30.9672 23.2621 30.8557 22.9401 30.6327C22.618 30.4036 22.4105 30.0258 22.3176 29.4993L22.9772 29.3228C23.0392 29.7935 23.1599 30.1311 23.3395 30.3354C23.5253 30.5398 23.7607 30.642 24.0456 30.642C24.4048 30.642 24.668 30.5089 24.8352 30.2425C25.0024 29.97 25.086 29.5241 25.086 28.9048C25.086 28.5827 25.0551 28.3009 24.9931 28.0594C24.9374 27.8117 24.8321 27.6197 24.6773 27.4834C24.5225 27.341 24.3057 27.2697 24.027 27.2697C23.8412 27.2697 23.643 27.3069 23.4324 27.3812C23.2219 27.4555 23.0082 27.5918 22.7914 27.79L22.5685 27.6506L22.745 24.5571H25.1139C25.3307 24.5571 25.4607 24.5447 25.5041 24.5199C25.5536 24.4951 25.5908 24.427 25.6156 24.3155L25.7271 23.7488Z" fill="black"/>
<path d="M4 -0.00010705H21.4225L19.8345 17.9668L12.6659 20.3261L5.54262 17.9668L4 -0.00010705ZM17.9743 5.80739L18.1558 3.67495H7.22135L7.81117 10.2538H15.3881L15.1159 13.0668L12.6659 13.7473L10.2612 13.0668L10.0797 11.3427H7.90191L8.17414 14.7909L12.6659 16.0159H12.7112L17.1576 14.7909L17.7928 8.07595H9.8075L9.62602 5.80739H17.9743Z" fill="black"/>
<path d="M54.2701 30.9672C53.7003 30.9672 53.2172 30.8464 52.8208 30.6049C52.4245 30.3571 52.1241 30.0103 51.9197 29.5644C51.7153 29.1185 51.6131 28.5982 51.6131 28.0037V27.4184C51.6131 26.8238 51.7029 26.3067 51.8826 25.867C52.0684 25.421 52.344 25.0773 52.7094 24.8358C53.0748 24.588 53.5331 24.4642 54.0843 24.4642C54.555 24.4642 54.9483 24.5571 55.2641 24.7429C55.58 24.9225 55.8122 25.164 55.9609 25.4675C56.1157 25.7648 56.1807 26.0899 56.156 26.4429L55.069 26.7123C55.131 26.093 55.0659 25.6192 54.8739 25.291C54.6881 24.9565 54.4094 24.7893 54.0378 24.7893C53.6415 24.7893 53.3349 24.9565 53.1181 25.291C52.9075 25.6254 52.8023 26.1797 52.8023 26.9539V28.4682C52.8023 29.2361 52.923 29.7904 53.1646 30.1311C53.4061 30.4717 53.7746 30.642 54.2701 30.642C54.4745 30.642 54.6634 30.6049 54.8368 30.5305C55.0164 30.4562 55.165 30.3293 55.2827 30.1496C55.4066 29.9638 55.484 29.7037 55.5149 29.3693L56.1838 29.5458C56.0971 29.8926 55.9578 30.1713 55.7658 30.3819C55.5738 30.5925 55.3477 30.7442 55.0876 30.8371C54.8337 30.9238 54.5612 30.9672 54.2701 30.9672ZM58.8749 29.1185L58.2339 28.9698C57.819 28.8707 57.5093 28.6942 57.3049 28.4403C57.1067 28.1802 57.0077 27.8736 57.0077 27.5206C57.0077 27.2605 57.0634 27.022 57.1749 26.8052C57.2925 26.5823 57.4753 26.4058 57.723 26.2757C57.9707 26.1395 58.2928 26.0713 58.6891 26.0713C59.1165 26.0713 59.4633 26.1395 59.7296 26.2757C59.9959 26.412 60.1848 26.5916 60.2963 26.8145C60.4078 27.0375 60.4419 27.2759 60.3985 27.5299L59.3766 27.7157C59.4633 27.2945 59.4385 26.9694 59.3023 26.7402C59.1722 26.5111 58.9524 26.3965 58.6427 26.3965C58.4259 26.3965 58.2463 26.4615 58.1039 26.5916C57.9614 26.7154 57.8902 26.8951 57.8902 27.1304C57.8902 27.3472 57.9521 27.5392 58.076 27.7064C58.1999 27.8674 58.3826 27.9758 58.6241 28.0315L59.2651 28.1802C59.7234 28.2855 60.0548 28.4527 60.2592 28.6818C60.4635 28.9048 60.5657 29.1835 60.5657 29.5179C60.5657 29.9329 60.4109 30.2797 60.1012 30.5584C59.7978 30.8309 59.3425 30.9672 58.7356 30.9672C58.525 30.9672 58.2928 30.9362 58.0388 30.8743C57.7911 30.8061 57.562 30.6854 57.3514 30.512C57.147 30.3385 56.9984 30.0908 56.9055 29.7688L57.5093 29.5272C57.5527 29.936 57.692 30.224 57.9274 30.3912C58.1689 30.5584 58.4383 30.642 58.7356 30.642C59.0143 30.642 59.2404 30.5801 59.4138 30.4562C59.5934 30.3262 59.6832 30.1404 59.6832 29.8988C59.6832 29.7316 59.6243 29.5799 59.5067 29.4436C59.3952 29.3012 59.1846 29.1928 58.8749 29.1185ZM63.3385 29.1185L62.6975 28.9698C62.2825 28.8707 61.9729 28.6942 61.7685 28.4403C61.5703 28.1802 61.4712 27.8736 61.4712 27.5206C61.4712 27.2605 61.5269 27.022 61.6384 26.8052C61.7561 26.5823 61.9388 26.4058 62.1865 26.2757C62.4343 26.1395 62.7563 26.0713 63.1527 26.0713C63.58 26.0713 63.9269 26.1395 64.1932 26.2757C64.4595 26.412 64.6484 26.5916 64.7599 26.8145C64.8713 27.0375 64.9054 27.2759 64.8621 27.5299L63.8402 27.7157C63.9269 27.2945 63.9021 26.9694 63.7658 26.7402C63.6358 26.5111 63.4159 26.3965 63.1062 26.3965C62.8895 26.3965 62.7099 26.4615 62.5674 26.5916C62.425 26.7154 62.3538 26.8951 62.3538 27.1304C62.3538 27.3472 62.4157 27.5392 62.5396 27.7064C62.6634 27.8674 62.8461 27.9758 63.0877 28.0315L63.7287 28.1802C64.187 28.2855 64.5183 28.4527 64.7227 28.6818C64.9271 28.9048 65.0293 29.1835 65.0293 29.5179C65.0293 29.9329 64.8744 30.2797 64.5648 30.5584C64.2613 30.8309 63.8061 30.9672 63.1991 30.9672C62.9886 30.9672 62.7563 30.9362 62.5024 30.8743C62.2547 30.8061 62.0255 30.6854 61.8149 30.512C61.6106 30.3385 61.4619 30.0908 61.369 29.7688L61.9729 29.5272C62.0162 29.936 62.1556 30.224 62.3909 30.3912C62.6325 30.5584 62.9019 30.642 63.1991 30.642C63.4778 30.642 63.7039 30.5801 63.8773 30.4562C64.0569 30.3262 64.1467 30.1404 64.1467 29.8988C64.1467 29.7316 64.0879 29.5799 63.9702 29.4436C63.8587 29.3012 63.6482 29.1928 63.3385 29.1185ZM67.4119 27.7993H67.161V27.4741H67.4119C67.8516 27.4741 68.1613 27.3441 68.3409 27.0839C68.5267 26.8238 68.6196 26.4894 68.6196 26.0806C68.6196 25.2198 68.3378 24.7893 67.7742 24.7893C67.4274 24.7893 67.1827 24.9411 67.0403 25.2445C66.904 25.548 66.8669 25.9784 66.9288 26.5358L65.814 26.3872C65.7583 26.0528 65.7892 25.74 65.9069 25.4489C66.0308 25.1578 66.2475 24.9225 66.5572 24.7429C66.8731 24.5571 67.2818 24.4642 67.7835 24.4642C68.2727 24.4642 68.666 24.5416 68.9633 24.6964C69.2606 24.8451 69.4774 25.0432 69.6136 25.291C69.7561 25.5325 69.8273 25.7957 69.8273 26.0806C69.8273 26.5142 69.6786 26.8641 69.3814 27.1304C69.0841 27.3905 68.6598 27.5577 68.1086 27.6321C68.6846 27.7064 69.1243 27.8798 69.4278 28.1523C69.7375 28.4248 69.8923 28.8057 69.8923 29.295C69.8923 29.7842 69.7065 30.1868 69.3349 30.5027C68.9633 30.8123 68.409 30.9672 67.672 30.9672C67.1827 30.9672 66.7647 30.8557 66.4178 30.6327C66.0772 30.4036 65.8604 30.0258 65.7675 29.4993L66.4271 29.3228C66.4891 29.7935 66.6191 30.1311 66.8173 30.3354C67.0217 30.5398 67.2787 30.642 67.5884 30.642C67.9724 30.642 68.2511 30.5305 68.4245 30.3076C68.5979 30.0784 68.6846 29.7409 68.6846 29.295C68.6846 28.8552 68.5886 28.496 68.3966 28.2173C68.2046 27.9386 67.8764 27.7993 67.4119 27.7993Z" fill="black"/>
<path d="M72.7781 -0.00010705L69.8744 16.6965L59.7112 20.3261L51 16.6965L51.8621 12.4316H55.5825L55.2195 14.2464L60.5279 16.2881L66.6077 14.2464L67.4243 9.84542H52.3158L53.0417 6.12499H68.1956L68.6494 3.72032H53.5408L54.2667 -0.00010705H72.7781Z" fill="black"/>
</svg>
