<svg width="150" height="41" viewBox="0 0 150 41" fill="none" xmlns="http://www.w3.org/2000/svg">
<path d="M0.399484 32.4912V32.231H3.19587C3.87716 32.231 4.38503 32.389 4.71948 32.7048C5.06013 33.0145 5.23045 33.4295 5.23045 33.9498V34.1634C5.23045 34.6837 5.06013 35.1018 4.71948 35.4176C4.38503 35.7335 3.87716 35.8914 3.19587 35.8914H2.22968V37.7681C2.22968 37.9787 2.23897 38.1056 2.25755 38.149C2.27613 38.1861 2.33497 38.2109 2.43406 38.2233L3.13084 38.2883V38.5485H0.399484V38.2883L0.910452 38.2233C1.00955 38.2109 1.06839 38.1861 1.08697 38.149C1.10555 38.1056 1.11484 37.9787 1.11484 37.7681V33.0114C1.11484 32.8008 1.10555 32.677 1.08697 32.6398C1.06839 32.5965 1.00955 32.5686 0.910452 32.5562L0.399484 32.4912ZM3.19587 32.5562H2.22968V35.5663H3.19587C3.46839 35.5663 3.67587 35.4579 3.81832 35.2411C3.96697 35.0243 4.04129 34.727 4.04129 34.3492V33.7639C4.04129 33.3861 3.96697 33.0919 3.81832 32.8814C3.67587 32.6646 3.46839 32.5562 3.19587 32.5562ZM8.36739 39.013C8.22494 39.4032 8.067 39.7159 7.89358 39.9513C7.72635 40.1867 7.51887 40.357 7.27113 40.4623C7.02339 40.5676 6.71371 40.6202 6.3421 40.6202V39.5983C6.7199 39.5983 7.02339 39.5704 7.25255 39.5147C7.4879 39.4651 7.66752 39.3815 7.79139 39.2638C7.92145 39.1523 8.01745 39.0068 8.07939 38.8272L8.17229 38.5485H7.68919L6.36997 34.6187C6.32661 34.4762 6.28945 34.3771 6.25848 34.3214C6.23371 34.2594 6.20274 34.2192 6.16558 34.2006C6.13461 34.182 6.08506 34.1696 6.01694 34.1634L5.50597 34.0984V33.8383H8.01435V34.0984L7.50339 34.1634C7.42906 34.1696 7.38261 34.1944 7.36403 34.2378C7.35164 34.2749 7.37952 34.4019 7.44765 34.6187L8.46029 37.6845L9.5101 34.5815C9.57823 34.3833 9.6061 34.2687 9.59371 34.2378C9.58752 34.2006 9.53797 34.1758 9.44506 34.1634L8.9341 34.0984V33.8383H10.7085V34.0984L10.1976 34.1634C10.1047 34.1758 10.0427 34.2006 10.0118 34.2378C9.98081 34.2749 9.93126 34.3895 9.86313 34.5815L8.36739 39.013ZM14.1813 37.5823C14.1008 37.9601 13.946 38.2326 13.7168 38.3998C13.4938 38.5608 13.2213 38.6414 12.8992 38.6414C12.571 38.6414 12.3016 38.5701 12.091 38.4277C11.8804 38.279 11.7256 38.0839 11.6265 37.8424C11.5274 37.6008 11.4778 37.3438 11.4778 37.0713V34.6187C11.4778 34.4081 11.4685 34.2842 11.45 34.247C11.4314 34.2037 11.3725 34.1758 11.2734 34.1634L10.7625 34.0984V33.8383H11.4778V32.7606L12.5462 32.5469V33.8383H14.0327V34.1634H12.5462V37.2571C12.5462 37.6535 12.5958 37.9291 12.6949 38.0839C12.794 38.2326 12.9209 38.3069 13.0758 38.3069C13.2368 38.3069 13.3607 38.245 13.4474 38.1211C13.5403 37.9972 13.5991 37.7712 13.6239 37.4429L14.1813 37.5823ZM19.9462 38.2883V38.5485H17.4472V38.2883L17.9581 38.2233C18.0572 38.2109 18.1161 38.1861 18.1346 38.149C18.1532 38.1056 18.1625 37.9787 18.1625 37.7681V35.4269C18.1625 34.9996 18.0975 34.6899 17.9674 34.4979C17.8435 34.2997 17.6577 34.2006 17.41 34.2006C17.3047 34.2006 17.1808 34.2285 17.0384 34.2842C16.9021 34.3338 16.7628 34.4267 16.6203 34.5629C16.4841 34.6992 16.3633 34.9005 16.258 35.1668V37.7681C16.258 37.9787 16.2673 38.1056 16.2859 38.149C16.3044 38.1861 16.3633 38.2109 16.4624 38.2233L16.9733 38.2883V38.5485H14.4742V38.2883L14.9852 38.2233C15.0843 38.2109 15.1432 38.1861 15.1617 38.149C15.1803 38.1056 15.1896 37.9787 15.1896 37.7681V32.454C15.1896 32.2434 15.1803 32.1196 15.1617 32.0824C15.1432 32.039 15.0843 32.0112 14.9852 31.9988L14.4742 31.9338V31.6736H16.258V34.5629C16.4376 34.278 16.6606 34.0705 16.9269 33.9405C17.1994 33.8104 17.4719 33.7454 17.7444 33.7454C18.2028 33.7454 18.5651 33.8909 18.8314 34.182C19.0977 34.4731 19.2309 34.885 19.2309 35.4176V37.7681C19.2309 37.9787 19.2402 38.1056 19.2588 38.149C19.2773 38.1861 19.3362 38.2109 19.4353 38.2233L19.9462 38.2883ZM24.7885 36.0958V36.2816C24.7885 36.9939 24.6027 37.5668 24.231 38.0003C23.8656 38.4277 23.3423 38.6414 22.661 38.6414C21.9797 38.6414 21.4532 38.4277 21.0816 38.0003C20.7162 37.5668 20.5335 36.9939 20.5335 36.2816V36.0958C20.5335 35.3836 20.7162 34.8138 21.0816 34.3864C21.4532 33.959 21.9797 33.7454 22.661 33.7454C23.3423 33.7454 23.8656 33.959 24.231 34.3864C24.6027 34.8138 24.7885 35.3836 24.7885 36.0958ZM23.6458 35.91C23.6458 35.2473 23.5621 34.7766 23.3949 34.4979C23.2277 34.213 22.983 34.0705 22.661 34.0705C22.3451 34.0705 22.1005 34.213 21.927 34.4979C21.7598 34.7766 21.6762 35.2473 21.6762 35.91V36.4674C21.6762 37.1239 21.7598 37.5978 21.927 37.8888C22.1005 38.1738 22.3451 38.3162 22.661 38.3162C22.983 38.3162 23.2277 38.1738 23.3949 37.8888C23.5621 37.5978 23.6458 37.1239 23.6458 36.4674V35.91ZM30.9528 38.2883V38.5485H28.4537V38.2883L28.9647 38.2233C29.0638 38.2109 29.1226 38.1861 29.1412 38.149C29.1598 38.1056 29.1691 37.9787 29.1691 37.7681V35.4269C29.1691 34.9996 29.104 34.6899 28.974 34.4979C28.8501 34.2997 28.6643 34.2006 28.4166 34.2006C28.3113 34.2006 28.1874 34.2285 28.0449 34.2842C27.9087 34.3338 27.7693 34.4267 27.6269 34.5629C27.4906 34.6992 27.3698 34.9005 27.2646 35.1668V37.7681C27.2646 37.9787 27.2738 38.1056 27.2924 38.149C27.311 38.1861 27.3698 38.2109 27.4689 38.2233L27.9799 38.2883V38.5485H25.4808V38.2883L25.9918 38.2233C26.0909 38.2109 26.1497 38.1861 26.1683 38.149C26.1869 38.1056 26.1962 37.9787 26.1962 37.7681V34.6187C26.1962 34.4081 26.1869 34.2842 26.1683 34.247C26.1497 34.2037 26.0909 34.1758 25.9918 34.1634L25.4808 34.0984V33.8383H27.2088V34.6558C27.3884 34.3399 27.6176 34.1108 27.8963 33.9683C28.1812 33.8197 28.4661 33.7454 28.751 33.7454C29.2093 33.7454 29.5717 33.8909 29.838 34.182C30.1043 34.4731 30.2375 34.885 30.2375 35.4176V37.7681C30.2375 37.9787 30.2468 38.1056 30.2653 38.149C30.2839 38.1861 30.3428 38.2109 30.4418 38.2233L30.9528 38.2883Z" fill="black"/>
<path d="M25.7207 13.118C26.2197 15.0686 26.2651 16.5202 25.7207 18.0626C25.2671 19.5142 24.7227 20.5121 23.3165 20.5121H16.0584V21.1019H20.8669V22.9617C20.8669 24.368 19.6874 25.0938 18.4626 25.4113C16.6481 25.9557 15.1512 25.865 13.6088 25.4113C12.3387 25.0484 11.2046 24.2773 11.2046 22.9617V18.3347C11.2046 17.0192 12.2933 15.8851 13.6088 15.8851H18.4626C20.0957 15.8851 21.502 14.4789 21.502 12.8005V10.6684H23.3165C24.7227 10.6684 25.4032 11.7117 25.7207 13.118ZM18.7802 22.3267C18.2812 22.3267 17.8729 22.7349 17.8729 23.2793C17.8729 23.7783 18.2812 24.1865 18.7802 24.1865C19.2792 24.1865 19.6874 23.7783 19.6874 23.2793C19.6874 22.7803 19.2792 22.3267 18.7802 22.3267ZM13.382 15.2954C11.7489 15.2954 10.388 16.7017 10.388 18.2894V20.5121H8.70962C7.30337 20.5121 6.48684 19.4688 6.12394 18.0626C5.67031 16.1119 5.67031 14.9779 6.12394 13.118C6.5322 11.4849 7.757 10.6684 9.16325 10.6684H15.8316V10.0333H10.9778V8.17344C10.9778 6.81255 11.3407 6.04138 13.382 5.67848C14.8336 5.4063 16.6028 5.4063 18.2358 5.67848C19.5514 5.90529 20.6854 6.85791 20.6854 8.17344V12.8005C20.6854 14.1613 19.5967 15.2954 18.2358 15.2954H13.382ZM13.1098 8.80852C13.6088 8.80852 14.0171 8.40025 14.0171 7.90126C14.0171 7.35691 13.6088 6.94864 13.1098 6.94864C12.6108 6.94864 12.2026 7.35691 12.2026 7.90126C12.2026 8.40025 12.6108 8.80852 13.1098 8.80852Z" fill="black"/>
<path d="M61.9851 31.3299V31.0698H64.5307V31.3299L64.0197 31.3949C63.9206 31.4073 63.8618 31.4352 63.8432 31.4786C63.8246 31.5157 63.8153 31.6396 63.8153 31.8502V35.5849C63.8153 35.9379 63.7565 36.26 63.6388 36.5511C63.5211 36.836 63.3291 37.062 63.0628 37.2293C62.7965 37.3965 62.4404 37.4801 61.9944 37.4801C61.7653 37.4801 61.5392 37.4429 61.3162 37.3686C61.0995 37.2881 60.9106 37.1457 60.7495 36.9413C60.5947 36.7369 60.4925 36.4458 60.4429 36.068L61.084 35.8822C61.1026 36.2228 61.1521 36.486 61.2326 36.6719C61.3131 36.8515 61.4153 36.9784 61.5392 37.0528C61.6631 37.1209 61.7962 37.1549 61.9387 37.1549C62.0811 37.1549 62.2081 37.1178 62.3196 37.0435C62.4373 36.9691 62.5302 36.8329 62.5983 36.6347C62.6664 36.4365 62.7005 36.1485 62.7005 35.7707V31.8502C62.7005 31.6396 62.6912 31.5157 62.6726 31.4786C62.654 31.4352 62.5952 31.4073 62.4961 31.3949L61.9851 31.3299ZM69.5758 37.1549C69.4767 37.2479 69.356 37.3253 69.2135 37.3872C69.0773 37.4491 68.91 37.4801 68.7118 37.4801C68.4579 37.4801 68.2442 37.4244 68.0708 37.3129C67.9036 37.2014 67.7921 37.0435 67.7364 36.8391C67.532 37.062 67.3059 37.2262 67.0582 37.3315C66.8166 37.4306 66.5689 37.4801 66.3149 37.4801C65.8876 37.4801 65.5686 37.3624 65.358 37.1271C65.1475 36.8855 65.0422 36.5851 65.0422 36.2259C65.0422 35.8605 65.1753 35.5663 65.4417 35.3433C65.708 35.1142 66.1787 34.9996 66.8538 34.9996H67.6992V34.2471C67.6992 33.733 67.6311 33.3831 67.4948 33.1973C67.3647 33.0053 67.182 32.9093 66.9467 32.9093C66.7918 32.9093 66.6494 32.9495 66.5193 33.03C66.3893 33.1044 66.2964 33.2468 66.2406 33.4574C66.1911 33.6618 66.2004 33.9591 66.2685 34.3493L65.2466 34.2006C65.197 33.9157 65.228 33.6525 65.3395 33.4109C65.4571 33.1632 65.6522 32.965 65.9247 32.8164C66.1973 32.6615 66.5441 32.5841 66.9653 32.5841C67.4422 32.5841 67.8107 32.6615 68.0708 32.8164C68.3309 32.9712 68.5106 33.1756 68.6097 33.4295C68.7149 33.6835 68.7676 33.956 68.7676 34.2471V36.3931C68.7676 36.709 68.7955 36.9072 68.8512 36.9877C68.9069 37.0682 68.9689 37.1085 69.037 37.1085C69.1485 37.1085 69.2724 37.0435 69.4086 36.9134L69.5758 37.1549ZM66.7237 36.9877C66.8847 36.9877 67.0427 36.9475 67.1975 36.8669C67.3586 36.7802 67.5258 36.6223 67.6992 36.3931V35.3248H67.0024C66.6989 35.3248 66.4791 35.396 66.3428 35.5384C66.2066 35.6809 66.1384 35.9039 66.1384 36.2073C66.1384 36.4551 66.188 36.6471 66.2871 36.7833C66.3862 36.9196 66.5317 36.9877 66.7237 36.9877ZM73.5979 33.4574L72.2787 37.3872H71.4333L70.114 33.4574C70.0707 33.3149 70.0335 33.2159 70.0025 33.1601C69.9778 33.0982 69.9468 33.0579 69.9096 33.0393C69.8787 33.0208 69.8291 33.0084 69.761 33.0022L69.25 32.9371V32.677H71.7584V32.9371L71.2474 33.0022C71.1545 33.0146 71.105 33.0393 71.0988 33.0765C71.0926 33.1137 71.1236 33.2406 71.1917 33.4574L72.2136 36.5418L73.2449 33.4574C73.313 33.2406 73.344 33.1137 73.3378 33.0765C73.3378 33.0393 73.2882 33.0146 73.1891 33.0022L72.6782 32.9371V32.677H74.4526V32.9371L73.9416 33.0022C73.8797 33.0084 73.8302 33.0208 73.793 33.0393C73.762 33.0579 73.7342 33.0982 73.7094 33.1601C73.6846 33.2159 73.6474 33.3149 73.5979 33.4574ZM79.1746 37.1549C79.0755 37.2479 78.9548 37.3253 78.8123 37.3872C78.6761 37.4491 78.5088 37.4801 78.3106 37.4801C78.0567 37.4801 77.843 37.4244 77.6696 37.3129C77.5024 37.2014 77.3909 37.0435 77.3352 36.8391C77.1308 37.062 76.9047 37.2262 76.657 37.3315C76.4154 37.4306 76.1677 37.4801 75.9137 37.4801C75.4864 37.4801 75.1674 37.3624 74.9568 37.1271C74.7462 36.8855 74.641 36.5851 74.641 36.2259C74.641 35.8605 74.7741 35.5663 75.0404 35.3433C75.3068 35.1142 75.7775 34.9996 76.4526 34.9996H77.298V34.2471C77.298 33.733 77.2299 33.3831 77.0936 33.1973C76.9635 33.0053 76.7808 32.9093 76.5455 32.9093C76.3906 32.9093 76.2482 32.9495 76.1181 33.03C75.9881 33.1044 75.8952 33.2468 75.8394 33.4574C75.7899 33.6618 75.7992 33.9591 75.8673 34.3493L74.8453 34.2006C74.7958 33.9157 74.8268 33.6525 74.9382 33.4109C75.0559 33.1632 75.251 32.965 75.5235 32.8164C75.7961 32.6615 76.1429 32.5841 76.5641 32.5841C77.041 32.5841 77.4095 32.6615 77.6696 32.8164C77.9297 32.9712 78.1093 33.1756 78.2084 33.4295C78.3137 33.6835 78.3664 33.956 78.3664 34.2471V36.3931C78.3664 36.709 78.3942 36.9072 78.45 36.9877C78.5057 37.0682 78.5677 37.1085 78.6358 37.1085C78.7473 37.1085 78.8712 37.0435 79.0074 36.9134L79.1746 37.1549ZM76.3225 36.9877C76.4835 36.9877 76.6415 36.9475 76.7963 36.8669C76.9573 36.7802 77.1246 36.6223 77.298 36.3931V35.3248H76.6012C76.2977 35.3248 76.0779 35.396 75.9416 35.5384C75.8053 35.6809 75.7372 35.9039 75.7372 36.2073C75.7372 36.4551 75.7868 36.6471 75.8859 36.7833C75.985 36.9196 76.1305 36.9877 76.3225 36.9877Z" fill="black"/>
<path d="M74.1141 14.1986C69.85 15.3327 61.5486 14.8337 63.9528 13.6543C65.9488 12.7017 67.5818 12.7924 67.5818 12.7924C67.5818 12.7924 63.3631 13.7904 66.0849 14.1533C67.2643 14.3347 69.5325 14.2894 71.6645 14.1079C73.4337 13.9718 75.2028 13.6543 75.2028 13.6543C75.2028 13.6543 74.5677 13.9265 74.1141 14.1986ZM70.2583 12.747C68.0355 10.7511 66.4478 9.02727 67.5365 7.39421C69.1242 5.03533 73.5244 3.8559 72.5264 5.22137e-05C72.5264 5.22137e-05 74.976 2.44965 70.2583 6.12404C66.4931 9.118 69.3964 10.8418 70.2583 12.747ZM75.4296 4.76316C70.3943 7.71175 71.3016 8.57364 72.5264 10.2521C73.8419 12.1119 70.9841 13.5636 70.9841 13.5636C70.9841 13.5636 72.4357 12.4295 71.3016 11.114C67.4911 6.75912 75.475 4.76316 75.4296 4.76316ZM75.1575 17.0565C79.5123 14.7884 77.5163 12.6109 76.1101 12.8831C75.9286 12.9285 75.7472 12.9738 75.6111 13.0192C75.7018 12.8831 75.8379 12.7924 75.974 12.747C78.7411 11.749 80.9185 15.6049 75.0667 17.1472C75.1121 17.1019 75.1575 17.1019 75.1575 17.0565ZM77.3349 19.869C79.7391 20.9577 72.0728 23.1351 62.8187 21.6382C59.4165 21.0938 64.4518 19.1432 65.4044 19.7783C65.4044 19.7783 65.0869 19.7783 64.5879 19.869C64.0889 20.0051 62.5466 20.5041 63.3631 20.867C65.6766 21.865 73.978 21.6382 76.6091 20.8216C77.97 20.4134 77.3349 19.869 77.3349 19.869ZM67.1736 17.9638C67.1736 17.9638 66.2663 18.5081 67.8087 18.6896C69.6232 18.871 70.5758 18.871 72.6171 18.4628C73.0254 18.7349 73.4337 18.9164 73.8873 19.0978C69.351 21.0484 63.5899 18.9617 67.1736 17.9638ZM75.3389 22.4093C78.5143 21.7742 78.7865 21.0484 78.7865 21.0484C78.6504 23.0444 72.2089 23.4527 68.0355 23.1805C65.2683 22.999 64.724 22.5454 64.724 22.5454C67.355 22.999 71.7552 23.0444 75.3389 22.4093ZM73.3429 16.0132C73.6151 16.2853 73.9327 16.5121 74.2956 16.6029C68.8066 18.2359 62.6827 16.739 66.6292 15.4234C66.6292 15.4234 65.6312 16.1946 67.1282 16.3307C69.1242 16.5575 70.6665 16.5575 73.3429 16.0132Z" fill="black"/>
<path d="M106.114 32.4912V32.231H108.66V32.4912L108.149 32.5562C108.05 32.5686 107.991 32.5965 107.972 32.6398C107.954 32.677 107.944 32.8008 107.944 33.0114V36.7461C107.944 37.0992 107.885 37.4212 107.768 37.7123C107.65 37.9972 107.458 38.2233 107.192 38.3905C106.925 38.5578 106.569 38.6414 106.123 38.6414C105.894 38.6414 105.668 38.6042 105.445 38.5299C105.228 38.4494 105.039 38.3069 104.878 38.1025C104.724 37.8981 104.621 37.607 104.572 37.2292L105.213 37.0434C105.231 37.3841 105.281 37.6473 105.362 37.8331C105.442 38.0127 105.544 38.1397 105.668 38.214C105.792 38.2821 105.925 38.3162 106.068 38.3162C106.21 38.3162 106.337 38.279 106.449 38.2047C106.566 38.1304 106.659 37.9941 106.727 37.7959C106.795 37.5978 106.829 37.3098 106.829 36.9319V33.0114C106.829 32.8008 106.82 32.677 106.802 32.6398C106.783 32.5965 106.724 32.5686 106.625 32.5562L106.114 32.4912ZM113.705 38.3162C113.606 38.4091 113.485 38.4865 113.342 38.5485C113.206 38.6104 113.039 38.6414 112.841 38.6414C112.587 38.6414 112.373 38.5856 112.2 38.4741C112.032 38.3627 111.921 38.2047 111.865 38.0003C111.661 38.2233 111.435 38.3874 111.187 38.4927C110.946 38.5918 110.698 38.6414 110.444 38.6414C110.016 38.6414 109.698 38.5237 109.487 38.2883C109.276 38.0468 109.171 37.7464 109.171 37.3872C109.171 37.0218 109.304 36.7276 109.571 36.5046C109.837 36.2754 110.308 36.1608 110.983 36.1608H111.828V35.4083C111.828 34.8943 111.76 34.5443 111.624 34.3585C111.494 34.1665 111.311 34.0705 111.076 34.0705C110.921 34.0705 110.778 34.1108 110.648 34.1913C110.518 34.2656 110.425 34.4081 110.37 34.6187C110.32 34.823 110.329 35.1203 110.397 35.5105L109.375 35.3619C109.326 35.077 109.357 34.8138 109.468 34.5722C109.586 34.3245 109.781 34.1263 110.054 33.9776C110.326 33.8228 110.673 33.7454 111.094 33.7454C111.571 33.7454 111.94 33.8228 112.2 33.9776C112.46 34.1325 112.639 34.3368 112.739 34.5908C112.844 34.8447 112.896 35.1172 112.896 35.4083V37.5544C112.896 37.8703 112.924 38.0685 112.98 38.149C113.036 38.2295 113.098 38.2698 113.166 38.2698C113.277 38.2698 113.401 38.2047 113.538 38.0747L113.705 38.3162ZM110.853 38.149C111.014 38.149 111.172 38.1087 111.326 38.0282C111.487 37.9415 111.655 37.7836 111.828 37.5544V36.486H111.131C110.828 36.486 110.608 36.5572 110.472 36.6997C110.335 36.8421 110.267 37.0651 110.267 37.3686C110.267 37.6163 110.317 37.8083 110.416 37.9446C110.515 38.0808 110.661 38.149 110.853 38.149ZM117.727 34.6187L116.408 38.5485H115.562L114.243 34.6187C114.2 34.4762 114.162 34.3771 114.131 34.3214C114.107 34.2594 114.076 34.2192 114.039 34.2006C114.008 34.182 113.958 34.1696 113.89 34.1634L113.379 34.0984V33.8383H115.887V34.0984L115.376 34.1634C115.283 34.1758 115.234 34.2006 115.228 34.2378C115.222 34.2749 115.252 34.4019 115.321 34.6187L116.343 37.703L117.374 34.6187C117.442 34.4019 117.473 34.2749 117.467 34.2378C117.467 34.2006 117.417 34.1758 117.318 34.1634L116.807 34.0984V33.8383H118.582V34.0984L118.071 34.1634C118.009 34.1696 117.959 34.182 117.922 34.2006C117.891 34.2192 117.863 34.2594 117.838 34.3214C117.814 34.3771 117.776 34.4762 117.727 34.6187ZM123.304 38.3162C123.204 38.4091 123.084 38.4865 122.941 38.5485C122.805 38.6104 122.638 38.6414 122.44 38.6414C122.186 38.6414 121.972 38.5856 121.799 38.4741C121.631 38.3627 121.52 38.2047 121.464 38.0003C121.26 38.2233 121.034 38.3874 120.786 38.4927C120.544 38.5918 120.297 38.6414 120.043 38.6414C119.615 38.6414 119.296 38.5237 119.086 38.2883C118.875 38.0468 118.77 37.7464 118.77 37.3872C118.77 37.0218 118.903 36.7276 119.169 36.5046C119.436 36.2754 119.906 36.1608 120.581 36.1608H121.427V35.4083C121.427 34.8943 121.359 34.5443 121.223 34.3585C121.092 34.1665 120.91 34.0705 120.674 34.0705C120.52 34.0705 120.377 34.1108 120.247 34.1913C120.117 34.2656 120.024 34.4081 119.968 34.6187C119.919 34.823 119.928 35.1203 119.996 35.5105L118.974 35.3619C118.925 35.077 118.956 34.8138 119.067 34.5722C119.185 34.3245 119.38 34.1263 119.652 33.9776C119.925 33.8228 120.272 33.7454 120.693 33.7454C121.17 33.7454 121.538 33.8228 121.799 33.9776C122.059 34.1325 122.238 34.3368 122.337 34.5908C122.443 34.8447 122.495 35.1172 122.495 35.4083V37.5544C122.495 37.8703 122.523 38.0685 122.579 38.149C122.635 38.2295 122.697 38.2698 122.765 38.2698C122.876 38.2698 123 38.2047 123.136 38.0747L123.304 38.3162ZM120.451 38.149C120.612 38.149 120.77 38.1087 120.925 38.0282C121.086 37.9415 121.253 37.7836 121.427 37.5544V36.486H120.73C120.427 36.486 120.207 36.5572 120.071 36.6997C119.934 36.8421 119.866 37.0651 119.866 37.3686C119.866 37.6163 119.916 37.8083 120.015 37.9446C120.114 38.0808 120.259 38.149 120.451 38.149ZM125.906 38.3162C126.277 38.3162 126.584 38.2295 126.825 38.0561C127.073 37.8765 127.197 37.5978 127.197 37.2199C127.197 36.9412 127.113 36.709 126.946 36.5232C126.785 36.3374 126.494 36.1825 126.073 36.0587L125.209 35.7985C124.775 35.6685 124.441 35.4455 124.205 35.1296C123.976 34.8076 123.862 34.4081 123.862 33.9312C123.862 33.6153 123.933 33.3211 124.075 33.0486C124.224 32.7761 124.447 32.5562 124.744 32.389C125.048 32.2218 125.429 32.1381 125.887 32.1381C126.389 32.1381 126.794 32.231 127.104 32.4168C127.414 32.5965 127.631 32.8318 127.754 33.1229C127.878 33.414 127.909 33.7268 127.847 34.0612L126.779 34.2563C126.878 33.6803 126.835 33.2375 126.649 32.9278C126.469 32.6181 126.175 32.4633 125.766 32.4633C125.45 32.4633 125.196 32.5562 125.004 32.742C124.819 32.9278 124.726 33.1941 124.726 33.541C124.726 33.8259 124.806 34.0767 124.967 34.2935C125.135 34.5103 125.407 34.6775 125.785 34.7952L126.649 35.0553C127.12 35.1916 127.473 35.399 127.708 35.6778C127.943 35.9503 128.061 36.3312 128.061 36.8205C128.061 37.1673 127.98 37.4801 127.819 37.7588C127.665 38.0313 127.426 38.2481 127.104 38.4091C126.788 38.5639 126.392 38.6414 125.915 38.6414C125.568 38.6414 125.24 38.5918 124.93 38.4927C124.62 38.3874 124.36 38.2171 124.15 37.9818C123.945 37.7464 123.815 37.4274 123.76 37.0248L124.382 36.8019C124.413 37.1983 124.5 37.5079 124.642 37.7309C124.791 37.9477 124.973 38.0994 125.19 38.1861C125.413 38.2728 125.652 38.3162 125.906 38.3162ZM131.085 34.0705C130.788 34.0705 130.565 34.213 130.416 34.4979C130.274 34.7766 130.203 35.2473 130.203 35.91V36.4674C130.203 37.1239 130.286 37.5978 130.453 37.8888C130.621 38.1738 130.893 38.3162 131.271 38.3162C131.55 38.3162 131.776 38.2388 131.949 38.0839C132.129 37.9229 132.231 37.6535 132.256 37.2757L132.85 37.4429C132.739 37.8765 132.534 38.1861 132.237 38.3719C131.946 38.5516 131.602 38.6414 131.206 38.6414C130.494 38.6414 129.958 38.4277 129.599 38.0003C129.24 37.5668 129.06 36.9939 129.06 36.2816V36.0958C129.06 35.3836 129.233 34.8138 129.58 34.3864C129.927 33.959 130.429 33.7454 131.085 33.7454C131.519 33.7454 131.872 33.8321 132.144 34.0055C132.423 34.1727 132.618 34.3957 132.73 34.6744C132.847 34.9469 132.878 35.2411 132.822 35.557L131.801 35.7056C131.869 35.1854 131.841 34.7828 131.717 34.4979C131.593 34.213 131.382 34.0705 131.085 34.0705ZM133.454 34.0984V33.8383H135.182V34.6001C135.559 34.0303 136.008 33.7454 136.529 33.7454C136.721 33.7454 136.906 33.8073 137.086 33.9312C137.266 34.0488 137.414 34.2718 137.532 34.6001L136.705 35.046C136.618 34.7921 136.516 34.6218 136.399 34.535C136.287 34.4421 136.166 34.3957 136.036 34.3957C135.9 34.3957 135.767 34.439 135.637 34.5258C135.507 34.6125 135.374 34.7735 135.237 35.0088V37.7681C135.237 37.9787 135.247 38.1056 135.265 38.149C135.284 38.1861 135.343 38.2109 135.442 38.2233L136.138 38.2883V38.5485H133.454V38.2883L133.965 38.2233C134.064 38.2109 134.122 38.1861 134.141 38.149C134.16 38.1056 134.169 37.9787 134.169 37.7681V34.6187C134.169 34.4081 134.16 34.2842 134.141 34.247C134.122 34.2037 134.064 34.1758 133.965 34.1634L133.454 34.0984ZM138.99 33.0393C138.798 33.0393 138.643 32.9805 138.525 32.8628C138.408 32.7389 138.349 32.581 138.349 32.389C138.349 32.197 138.408 32.0421 138.525 31.9245C138.643 31.8068 138.798 31.7479 138.99 31.7479C139.176 31.7479 139.33 31.8068 139.454 31.9245C139.578 32.0421 139.64 32.197 139.64 32.389C139.64 32.581 139.578 32.7389 139.454 32.8628C139.33 32.9805 139.176 33.0393 138.99 33.0393ZM137.745 34.0984V33.8383H139.529V37.7681C139.529 37.9787 139.538 38.1056 139.557 38.149C139.575 38.1861 139.634 38.2109 139.733 38.2233L140.244 38.2883V38.5485H137.745V38.2883L138.256 38.2233C138.355 38.2109 138.414 38.1861 138.432 38.149C138.451 38.1056 138.46 37.9787 138.46 37.7681V34.6187C138.46 34.4081 138.451 34.2842 138.432 34.247C138.414 34.2037 138.355 34.1758 138.256 34.1634L137.745 34.0984ZM140.538 34.0984V33.8383H142.266V34.6094C142.445 34.3183 142.64 34.1015 142.851 33.959C143.062 33.8166 143.312 33.7454 143.604 33.7454C144.124 33.7454 144.536 33.9528 144.839 34.3678C145.149 34.7766 145.304 35.3526 145.304 36.0958V36.2816C145.304 37.0001 145.127 37.573 144.774 38.0003C144.421 38.4277 143.932 38.6414 143.306 38.6414C142.935 38.6414 142.606 38.5485 142.321 38.3627V39.7469C142.321 39.9575 142.331 40.0814 142.349 40.1185C142.368 40.1619 142.427 40.1898 142.526 40.2021L143.223 40.2672V40.5273H140.538V40.2672L141.049 40.2021C141.148 40.1898 141.207 40.1619 141.225 40.1185C141.244 40.0814 141.253 39.9575 141.253 39.7469V34.6187C141.253 34.4081 141.244 34.2842 141.225 34.247C141.207 34.2037 141.148 34.1758 141.049 34.1634L140.538 34.0984ZM143.362 34.1541C143.207 34.1541 143.043 34.2192 142.87 34.3492C142.702 34.4731 142.52 34.7301 142.321 35.1203V37.926C142.557 38.1614 142.845 38.279 143.185 38.279C143.532 38.279 143.78 38.1273 143.929 37.8238C144.084 37.5141 144.161 37.093 144.161 36.5603V35.8171C144.161 35.2411 144.09 34.8199 143.947 34.5536C143.805 34.2873 143.61 34.1541 143.362 34.1541ZM149.345 37.5823C149.264 37.9601 149.109 38.2326 148.88 38.3998C148.657 38.5608 148.385 38.6414 148.063 38.6414C147.734 38.6414 147.465 38.5701 147.254 38.4277C147.044 38.279 146.889 38.0839 146.79 37.8424C146.691 37.6008 146.641 37.3438 146.641 37.0713V34.6187C146.641 34.4081 146.632 34.2842 146.613 34.247C146.595 34.2037 146.536 34.1758 146.437 34.1634L145.926 34.0984V33.8383H146.641V32.7606L147.71 32.5469V33.8383H149.196V34.1634H147.71V37.2571C147.71 37.6535 147.759 37.9291 147.858 38.0839C147.957 38.2326 148.084 38.3069 148.239 38.3069C148.4 38.3069 148.524 38.245 148.611 38.1211C148.704 37.9972 148.762 37.7712 148.787 37.4429L149.345 37.5823Z" fill="black"/>
<path d="M117.29 4.93555H137.613V25.2581H117.29V4.93555ZM128.313 20.8126V14.2803H126.408V20.7672C126.408 21.7198 126 21.992 125.41 21.992C124.73 21.992 124.458 21.5384 124.185 20.994L122.598 21.9466C123.051 22.8993 123.959 23.6704 125.456 23.6704C127.179 23.6704 128.313 22.7632 128.313 20.8126ZM132.85 23.6704C134.664 23.6704 136.025 22.7632 136.025 21.0394C136.025 19.4517 135.118 18.7259 133.485 18.0454L132.986 17.8186C132.169 17.4557 131.806 17.2289 131.806 16.6392C131.806 16.1856 132.169 15.8226 132.714 15.8226C133.303 15.8226 133.621 16.0948 133.984 16.6392L135.435 15.6866C134.846 14.5978 133.938 14.1896 132.759 14.1896C131.035 14.1896 129.947 15.2783 129.947 16.6845C129.947 18.2722 130.854 18.9981 132.215 19.5878L132.714 19.7692C133.576 20.1775 134.12 20.4043 134.12 21.0394C134.12 21.5837 133.576 21.992 132.804 21.992C131.852 21.992 131.353 21.493 130.945 20.8579L129.357 21.7198C129.947 22.8539 131.081 23.6704 132.85 23.6704Z" fill="black"/>
</svg>
