<svg width="86" height="16" viewBox="0 0 86 16" fill="none" xmlns="http://www.w3.org/2000/svg">
<path d="M9.07667 1.43425L10.7764 1.51932L16.2829 12.1546L14.5832 12.0695L12.8835 11.9844L12.0968 10.4651L10.5235 7.42646L8.1636 2.8685L7.37695 1.34918L9.07667 1.43425Z" fill="#FF0000"/>
<path d="M2.54932 14.7183L3.37697 13.2817L8.15441 4.98911L7.36703 3.41065L6.62096 1.7605L5.79331 3.1971L4.96566 4.63371L3.31036 7.50693L0.974567 11.5613L1.76194 13.1398L2.54932 14.7183Z" fill="#FF0000"/>
<path d="M3.72672 14.1317L4.56819 12.7103H16.3487L15.5073 14.1317L14.6658 15.553H12.9829H9.617H4.56819H2.88525L3.72672 14.1317Z" fill="#FF0000"/>
<path d="M19.559 4.524V4.16H23.472C24.4253 4.16 25.136 4.381 25.604 4.823C26.0807 5.25633 26.319 5.837 26.319 6.565V6.864C26.319 7.592 26.0807 8.177 25.604 8.619C25.136 9.061 24.4253 9.282 23.472 9.282H22.12V11.908C22.12 12.2027 22.133 12.3803 22.159 12.441C22.185 12.493 22.2673 12.5277 22.406 12.545L23.381 12.636V13H19.559V12.636L20.274 12.545C20.4127 12.5277 20.495 12.493 20.521 12.441C20.547 12.3803 20.56 12.2027 20.56 11.908V5.252C20.56 4.95733 20.547 4.784 20.521 4.732C20.495 4.67133 20.4127 4.63233 20.274 4.615L19.559 4.524ZM23.472 4.615H22.12V8.827H23.472C23.8533 8.827 24.1437 8.67533 24.343 8.372C24.551 8.06867 24.655 7.65267 24.655 7.124V6.305C24.655 5.77633 24.551 5.36467 24.343 5.07C24.1437 4.76667 23.8533 4.615 23.472 4.615ZM27.0685 6.773V6.409H29.4865V7.475C30.0152 6.67767 30.6435 6.279 31.3715 6.279C31.6402 6.279 31.9002 6.36567 32.1515 6.539C32.4029 6.70367 32.6109 7.01567 32.7755 7.475L31.6185 8.099C31.4972 7.74367 31.3542 7.50533 31.1895 7.384C31.0335 7.254 30.8645 7.189 30.6825 7.189C30.4919 7.189 30.3055 7.24967 30.1235 7.371C29.9415 7.49233 29.7552 7.71767 29.5645 8.047V11.908C29.5645 12.2027 29.5775 12.3803 29.6035 12.441C29.6295 12.493 29.7119 12.5277 29.8505 12.545L30.8255 12.636V13H27.0685V12.636L27.7835 12.545C27.9222 12.5277 28.0045 12.493 28.0305 12.441C28.0565 12.3803 28.0695 12.2027 28.0695 11.908V7.501C28.0695 7.20633 28.0565 7.033 28.0305 6.981C28.0045 6.92033 27.9222 6.88133 27.7835 6.864L27.0685 6.773ZM39.214 9.568V9.828C39.214 10.8247 38.954 11.6263 38.434 12.233C37.9227 12.831 37.1903 13.13 36.237 13.13C35.2837 13.13 34.547 12.831 34.027 12.233C33.5157 11.6263 33.26 10.8247 33.26 9.828V9.568C33.26 8.57133 33.5157 7.774 34.027 7.176C34.547 6.578 35.2837 6.279 36.237 6.279C37.1903 6.279 37.9227 6.578 38.434 7.176C38.954 7.774 39.214 8.57133 39.214 9.568ZM37.615 9.308C37.615 8.38067 37.498 7.722 37.264 7.332C37.03 6.93333 36.6877 6.734 36.237 6.734C35.795 6.734 35.4527 6.93333 35.21 7.332C34.976 7.722 34.859 8.38067 34.859 9.308V10.088C34.859 11.0067 34.976 11.6697 35.21 12.077C35.4527 12.4757 35.795 12.675 36.237 12.675C36.6877 12.675 37.03 12.4757 37.264 12.077C37.498 11.6697 37.615 11.0067 37.615 10.088V9.308ZM36.224 5.473L35.912 5.2C36.0853 4.92267 36.2413 4.64967 36.38 4.381C36.5187 4.10367 36.6313 3.77 36.718 3.38H38.356C38.0613 3.77867 37.7537 4.13833 37.433 4.459C37.1123 4.77967 36.7093 5.11767 36.224 5.473ZM42.5488 12.636V13H39.9488V12.636L40.6638 12.545C40.7505 12.5277 40.8155 12.5103 40.8588 12.493C40.9108 12.467 40.9715 12.4107 41.0408 12.324C41.1101 12.2373 41.2098 12.0987 41.3398 11.908L42.7308 9.88L41.3398 7.501C41.2271 7.30167 41.1405 7.163 41.0798 7.085C41.0191 6.99833 40.9628 6.942 40.9108 6.916C40.8588 6.89 40.7895 6.87267 40.7028 6.864L39.9878 6.773V6.409H43.5888V6.773L42.8738 6.864C42.7351 6.88133 42.6701 6.916 42.6788 6.968C42.6875 7.02 42.7785 7.19767 42.9518 7.501L43.8228 8.983L44.8238 7.501C45.0231 7.20633 45.1228 7.033 45.1228 6.981C45.1315 6.92033 45.0665 6.88133 44.9278 6.864L44.2128 6.773V6.409H46.8128V6.773L46.0978 6.864C46.0111 6.87267 45.9418 6.89 45.8898 6.916C45.8465 6.942 45.7901 6.99833 45.7208 7.085C45.6601 7.163 45.5605 7.30167 45.4218 7.501L44.0958 9.451L45.5258 11.908C45.6471 12.1073 45.7338 12.2503 45.7858 12.337C45.8465 12.415 45.9028 12.467 45.9548 12.493C46.0068 12.5103 46.0761 12.5277 46.1628 12.545L46.8778 12.636V13H43.2768V12.636L43.9918 12.545C44.1305 12.5277 44.1955 12.493 44.1868 12.441C44.1781 12.3803 44.0871 12.2027 43.9138 11.908L43.0038 10.335L41.9378 11.908C41.7385 12.2027 41.6345 12.3803 41.6258 12.441C41.6258 12.493 41.6951 12.5277 41.8338 12.545L42.5488 12.636ZM48.9834 5.291C48.7147 5.291 48.498 5.20867 48.3334 5.044C48.1687 4.87067 48.0864 4.64967 48.0864 4.381C48.0864 4.11233 48.1687 3.89567 48.3334 3.731C48.498 3.56633 48.7147 3.484 48.9834 3.484C49.2434 3.484 49.46 3.56633 49.6334 3.731C49.8067 3.89567 49.8934 4.11233 49.8934 4.381C49.8934 4.64967 49.8067 4.87067 49.6334 5.044C49.46 5.20867 49.2434 5.291 48.9834 5.291ZM47.2414 6.773V6.409H49.7374V11.908C49.7374 12.2027 49.7504 12.3803 49.7764 12.441C49.8024 12.493 49.8847 12.5277 50.0234 12.545L50.7384 12.636V13H47.2414V12.636L47.9564 12.545C48.095 12.5277 48.1774 12.493 48.2034 12.441C48.2294 12.3803 48.2424 12.2027 48.2424 11.908V7.501C48.2424 7.20633 48.2294 7.033 48.2034 6.981C48.1774 6.92033 48.095 6.88133 47.9564 6.864L47.2414 6.773ZM58.7674 12.636V13H55.2704V12.636L55.9854 12.545C56.1241 12.5277 56.2064 12.493 56.2324 12.441C56.2584 12.3803 56.2714 12.2027 56.2714 11.908V8.632C56.2714 8.034 56.1891 7.60067 56.0244 7.332C55.8597 7.05467 55.6127 6.916 55.2834 6.916C55.1447 6.916 54.9801 6.955 54.7894 7.033C54.5987 7.10233 54.4081 7.23233 54.2174 7.423C54.0354 7.61367 53.8751 7.89533 53.7364 8.268V11.908C53.7364 12.2027 53.7494 12.3803 53.7754 12.441C53.8014 12.493 53.8837 12.5277 54.0224 12.545L54.7374 12.636V13H51.2404V12.636L51.9554 12.545C52.0941 12.5277 52.1764 12.493 52.2024 12.441C52.2284 12.3803 52.2414 12.2027 52.2414 11.908V7.501C52.2414 7.20633 52.2284 7.033 52.2024 6.981C52.1764 6.92033 52.0941 6.88133 51.9554 6.864L51.2404 6.773V6.409H53.6584V7.553C53.9011 7.111 54.2131 6.79033 54.5944 6.591C54.9757 6.383 55.3614 6.279 55.7514 6.279C56.2194 6.279 56.6137 6.40033 56.9344 6.643C57.2637 6.877 57.4977 7.215 57.6364 7.657C57.8704 7.17167 58.1867 6.82067 58.5854 6.604C58.9841 6.38733 59.3827 6.279 59.7814 6.279C60.3967 6.279 60.8864 6.48267 61.2504 6.89C61.6144 7.29733 61.7964 7.87367 61.7964 8.619V11.908C61.7964 12.2027 61.8094 12.3803 61.8354 12.441C61.8614 12.493 61.9437 12.5277 62.0824 12.545L62.7974 12.636V13H59.3004V12.636L60.0154 12.545C60.1541 12.5277 60.2364 12.493 60.2624 12.441C60.2884 12.3803 60.3014 12.2027 60.3014 11.908V8.632C60.3014 8.034 60.2191 7.60067 60.0544 7.332C59.8897 7.05467 59.6427 6.916 59.3134 6.916C59.1747 6.916 59.0101 6.955 58.8194 7.033C58.6287 7.10233 58.4381 7.23667 58.2474 7.436C58.0567 7.63533 57.8921 7.92567 57.7534 8.307C57.7621 8.35033 57.7664 8.40233 57.7664 8.463C57.7664 8.515 57.7664 8.567 57.7664 8.619V11.908C57.7664 12.2027 57.7794 12.3803 57.8054 12.441C57.8314 12.493 57.9137 12.5277 58.0524 12.545L58.7674 12.636ZM69.5685 9.568V9.828C69.5685 10.8247 69.3085 11.6263 68.7885 12.233C68.2771 12.831 67.5448 13.13 66.5915 13.13C65.6381 13.13 64.9015 12.831 64.3815 12.233C63.8701 11.6263 63.6145 10.8247 63.6145 9.828V9.568C63.6145 8.57133 63.8701 7.774 64.3815 7.176C64.9015 6.578 65.6381 6.279 66.5915 6.279C67.5448 6.279 68.2771 6.578 68.7885 7.176C69.3085 7.774 69.5685 8.57133 69.5685 9.568ZM67.9695 9.308C67.9695 8.38067 67.8525 7.722 67.6185 7.332C67.3845 6.93333 67.0421 6.734 66.5915 6.734C66.1495 6.734 65.8071 6.93333 65.5645 7.332C65.3305 7.722 65.2135 8.38067 65.2135 9.308V10.088C65.2135 11.0067 65.3305 11.6697 65.5645 12.077C65.8071 12.4757 66.1495 12.675 66.5915 12.675C67.0421 12.675 67.3845 12.4757 67.6185 12.077C67.8525 11.6697 67.9695 11.0067 67.9695 10.088V9.308Z" fill="#FF0000"/>
<path d="M19 14.521H70.2445V15.366H19V14.521Z" fill="#FF0000"/>
</svg>
